<svg xmlns="http://www.w3.org/2000/svg" viewBox="0 0 750 500"><g id="freepik--background-complete--inject-120"><path d="M383,128H193.42s18.79-29.86,47.72-29.86,38,20.61,38,20.61,19.51-11.2,35.54-11.2,30,14.8,30,14.8S367.28,114.4,383,128Z" style="fill:#ebebeb"></path><path d="M655.59,178.55H466.05s18.79-29.85,47.71-29.85,38,20.6,38,20.6,19.52-11.19,35.55-11.19,30,14.79,30,14.79S639.91,165,655.59,178.55Z" style="fill:#ebebeb"></path><path d="M173.28,244.69H84.7S104.5,228,120.09,228s20.2,11.12,20.2,11.12,11-5.19,21.2-4.26S173.28,244.69,173.28,244.69Z" style="fill:#ebebeb"></path><path d="M698.51,212.49H609.94s19.79-16.68,35.38-16.68,20.2,11.12,20.2,11.12,11-5.19,21.2-4.26S698.51,212.49,698.51,212.49Z" style="fill:#ebebeb"></path><path d="M568.72,71.31H480.14s19.79-16.68,35.39-16.68,20.2,11.12,20.2,11.12,11-5.19,21.2-4.26S568.72,71.31,568.72,71.31Z" style="fill:#ebebeb"></path><path d="M140.06,164.36H51.49s19.79-16.68,35.38-16.68,20.2,11.12,20.2,11.12,11-5.19,21.21-4.26S140.06,164.36,140.06,164.36Z" style="fill:#ebebeb"></path><path d="M674.88,291.91H586.3s19.8-16.68,35.39-16.68,20.2,11.12,20.2,11.12,11-5.19,21.2-4.27S674.88,291.91,674.88,291.91Z" style="fill:#ebebeb"></path></g><g id="freepik--Water--inject-120"><g style="opacity:0.7000000000000001"><path d="M182.17,358.56s157.47,3.41,157.11,9.38c-.2,3.41-125,5.25-125,10.65,0,3.11,134.58,4.27,134.58,7.68,0,2.13-56.75,4.69-56.75,6.89,0,3.35,83.5,4.91,84,6.62S275.3,401.91,275.3,407c0,4.41,90.37,2.84,90.37,5S329,416,329,418.12s82,2.56,84.77,4.69-106.64,3-106.64,5.55,81.87,3,81.87,5-35.42,5-35.42,5S404,435.61,404,432.91s-25.31-3-25.85-3.41,76.09-3.56,76.09-8.11-70-5.26-70-6.11,65.25-2.42,65.25-6.26-80.07-3.41-80.07-4.27,103.93-4.16,103.93-6.29c0-3.94-83.14-4.8-83.14-6.79,0-3.55,114.41-1.2,114.41-7.31,0-3.7-90.44-4.56-90.37-8.33.09-5,153.54-5.12,153.54-10.81,0-4.26-65.52-6.66-65.52-6.66H194.36" style="fill:#dbdbdb"></path><path d="M491.63,373.54s22.3,1.78,27.87,1.92,17.26-1.92,17.26-1.92Z" style="fill:#dbdbdb"></path><path d="M58.83,398.08S81.12,399.86,86.7,400,104,398.08,104,398.08Z" style="fill:#dbdbdb"></path><path d="M130.93,375.28s38.26,3.16,47.82,3.42,29.6-3.42,29.6-3.42Z" style="fill:#dbdbdb"></path><path d="M513.08,385s38.25,3.17,47.82,3.42S590.5,385,590.5,385Z" style="fill:#dbdbdb"></path><path d="M238.25,446.44s38.26,3.17,47.82,3.42,29.61-3.42,29.61-3.42Z" style="fill:#dbdbdb"></path><path d="M545.23,443.2s38.26,3.17,47.82,3.42,29.61-3.42,29.61-3.42Z" style="fill:#dbdbdb"></path><path d="M69.92,349.44s38.25,3.16,47.82,3.42,29.6-3.42,29.6-3.42Z" style="fill:#dbdbdb"></path><path d="M98.26,417.13s38.26,3.17,47.82,3.42,29.6-3.42,29.6-3.42Z" style="fill:#dbdbdb"></path><path d="M603.75,414.35s38.26,3.16,47.83,3.42,29.6-3.42,29.6-3.42Z" style="fill:#dbdbdb"></path><path d="M202.59,396.74s47.5,4.24,59.38,4.58,36.76-4.58,36.76-4.58Z" style="fill:#dbdbdb"></path><path d="M522.7,416.4s-32.72,4.52-40.91,4.88-25.32-4.88-25.32-4.88Z" style="fill:#dbdbdb"></path><path d="M697.44,351.15s-32.73,4.52-40.91,4.88-25.32-4.88-25.32-4.88Z" style="fill:#dbdbdb"></path><path d="M414,361.67s22.29,3,27.87,3.22,17.25-3.22,17.25-3.22Z" style="fill:#dbdbdb"></path><path d="M267.74,363.29s-32.68,3.5-40.85,3.78-25.29-3.78-25.29-3.78Z" style="fill:#dbdbdb"></path><path d="M277,413.56s11.67,1.84,15.76,1.92,17.34-1.92,17.34-1.92Z" style="fill:#dbdbdb"></path><path d="M175.86,403.3s11.67,1.84,15.76,1.92S209,403.3,209,403.3Z" style="fill:#dbdbdb"></path><path d="M322.44,437.63s11.67,1.85,15.76,1.92,17.34-1.92,17.34-1.92Z" style="fill:#dbdbdb"></path><path d="M92.08,429.21s11.67,1.85,15.76,1.92,17.34-1.92,17.34-1.92Z" style="fill:#dbdbdb"></path><path d="M527.66,420.33s11.67,1.85,15.76,1.92,17.34-1.92,17.34-1.92Z" style="fill:#dbdbdb"></path><path d="M619.63,384.83s11.67,1.84,15.76,1.92,17.34-1.92,17.34-1.92Z" style="fill:#dbdbdb"></path><path d="M651.38,428.25s11.66,1.85,15.75,1.92,17.35-1.92,17.35-1.92Z" style="fill:#dbdbdb"></path><path d="M394.72,429.21s6,1.85,8.12,1.92,8.94-1.92,8.94-1.92Z" style="fill:#dbdbdb"></path><path d="M446.32,402.94s8.45,1.27,11.41,1.32,12.55-1.32,12.55-1.32Z" style="fill:#dbdbdb"></path><path d="M345.87,374.76s-9.21,1.78-11.51,1.92-19.28-1.92-19.28-1.92Z" style="fill:#dbdbdb"></path><path d="M401.45,370.57s-6.23,1.78-7.78,1.92-13.05-1.92-13.05-1.92Z" style="fill:#dbdbdb"></path><polygon points="400.94 381.33 405.11 382.11 406.04 386.51 406.98 382.11 411.15 381.33 406.99 380.31 406.04 376.16 405.09 380.31 400.94 381.33" style="fill:#fff"></polygon><polygon points="347.99 402.74 352.17 403.51 353.1 407.91 354.03 403.51 358.21 402.74 354.05 401.72 353.1 397.56 352.15 401.72 347.99 402.74" style="fill:#fff"></polygon><path d="M350.74,390.17a.43.43,0,0,1,0,.86A.43.43,0,0,1,350.74,390.17Z" style="fill:#fff"></path><path d="M387.34,388.06a.43.43,0,0,1,0,.86A.43.43,0,0,1,387.34,388.06Z" style="fill:#fff"></path><path d="M401.45,415.2a.43.43,0,0,1,0,.86A.43.43,0,0,1,401.45,415.2Z" style="fill:#fff"></path><path d="M345.87,430.75a.43.43,0,0,1,0,.86A.43.43,0,0,1,345.87,430.75Z" style="fill:#fff"></path><path d="M447,394.83a.43.43,0,0,1,0,.86A.43.43,0,0,1,447,394.83Z" style="fill:#fff"></path><path d="M252,379.06a.43.43,0,0,1,0,.86A.43.43,0,0,1,252,379.06Z" style="fill:#fff"></path><path d="M492.05,380.25a.43.43,0,0,1,0,.86A.43.43,0,0,1,492.05,380.25Z" style="fill:#fff"></path><path d="M414,382.58a.83.83,0,0,1,0,1.65A.83.83,0,0,1,414,382.58Z" style="fill:#fff"></path><path d="M419.49,426.84a.83.83,0,0,1,0,1.65A.83.83,0,0,1,419.49,426.84Z" style="fill:#fff"></path><polygon points="272.64 408.18 275.3 408.67 275.89 411.47 276.49 408.67 279.14 408.18 276.5 407.53 275.89 404.88 275.29 407.53 272.64 408.18" style="fill:#fff"></polygon><polygon points="449.97 398.55 452.63 399.04 453.22 401.84 453.81 399.04 456.47 398.55 453.82 397.9 453.22 395.26 452.61 397.9 449.97 398.55" style="fill:#fff"></polygon><polygon points="301.94 387.8 303.43 388.07 303.76 389.64 304.09 388.07 305.57 387.8 304.1 387.44 303.76 385.96 303.42 387.44 301.94 387.8" style="fill:#fff"></polygon><path d="M312.41,389.42a.83.83,0,0,1,0,1.65A.83.83,0,0,1,312.41,389.42Z" style="fill:#fff"></path><polygon points="378.81 417.47 380.29 417.75 380.62 419.31 380.95 417.75 382.44 417.47 380.96 417.11 380.62 415.63 380.28 417.11 378.81 417.47" style="fill:#fff"></polygon><polygon points="484.37 380.98 485.86 381.25 486.19 382.82 486.52 381.25 488.01 380.98 486.53 380.62 486.19 379.14 485.85 380.62 484.37 380.98" style="fill:#fff"></polygon><polygon points="376.99 381.33 378.47 381.61 378.81 383.17 379.14 381.61 380.62 381.33 379.14 380.97 378.81 379.49 378.47 380.97 376.99 381.33" style="fill:#fff"></polygon></g></g><g id="freepik--Sun--inject-120"><circle cx="150.59" cy="86.91" r="41.3" transform="translate(58.56 234.43) rotate(-88.03)" style="fill:#C4834C;opacity:0.30000000000000004"></circle><circle cx="150.59" cy="86.91" r="35.38" transform="translate(-17.54 42.58) rotate(-15.22)" style="fill:#C4834C;opacity:0.5"></circle></g><g id="freepik--Birds--inject-120"><path d="M680.08,250.92a25.77,25.77,0,0,0-3.23-1.64,13.6,13.6,0,0,0-3.57-1.07,3,3,0,0,0-1.14,0,1.59,1.59,0,0,0-.35.14l-.24.14-.41.3a17,17,0,0,0-1.4,1.25c-.88.86-1.67,1.77-2.46,2.71l.92-.26a27.47,27.47,0,0,0-3.65-1,15,15,0,0,0-1.93-.27,8.91,8.91,0,0,0-1,0,2.87,2.87,0,0,0-.56.1,5.59,5.59,0,0,0-.57.22,6.81,6.81,0,0,0-1.56,1.31,18.35,18.35,0,0,0-1.19,1.48,22.62,22.62,0,0,0-1.94,3.19c.85-.9,1.68-1.81,2.56-2.66.43-.42.87-.84,1.33-1.21a5.83,5.83,0,0,1,1.37-.93,3.28,3.28,0,0,1,1.46,0,13.31,13.31,0,0,1,1.71.35c1.15.28,2.32.65,3.44,1l.56.2.36-.45c.73-.92,1.51-1.81,2.3-2.67a15.42,15.42,0,0,1,1.2-1.22c.1-.08.2-.18.3-.25l.14-.1s0,0,0,0a1.84,1.84,0,0,1,.65-.09,17.59,17.59,0,0,1,3.4.56C677.76,250.31,678.91,250.63,680.08,250.92Z" style="fill:#263238"></path><path d="M657.69,236.25a21.33,21.33,0,0,0-2-2.28,11.3,11.3,0,0,0-2.4-1.95,2.72,2.72,0,0,0-.89-.32,1.14,1.14,0,0,0-.32,0l-.22,0c-.15,0-.27.06-.41.09a14.91,14.91,0,0,0-1.47.52c-1,.39-1.84.84-2.74,1.3l.79.1a22.17,22.17,0,0,0-2.49-1.94,11.76,11.76,0,0,0-1.39-.81,5.8,5.8,0,0,0-.8-.32,3.11,3.11,0,0,0-.46-.1,2.9,2.9,0,0,0-.51,0,5.43,5.43,0,0,0-1.61.51c-.48.23-.93.49-1.38.76a18.61,18.61,0,0,0-2.49,1.84c.94-.42,1.86-.86,2.8-1.23a13.38,13.38,0,0,1,1.41-.52,4.66,4.66,0,0,1,1.34-.28,2.81,2.81,0,0,1,1.14.42,10.11,10.11,0,0,1,1.2.81c.8.58,1.58,1.23,2.32,1.87l.37.33.41-.23c.85-.47,1.74-.91,2.61-1.33a12,12,0,0,1,1.3-.55l.31-.1.14,0h.05a1.44,1.44,0,0,1,.53.13,15.07,15.07,0,0,1,2.43,1.5C656.1,235,656.88,235.65,657.69,236.25Z" style="fill:#263238"></path><path d="M285.13,87.37a33,33,0,0,0-3.72-2.55,17.31,17.31,0,0,0-4.23-1.9,3.61,3.61,0,0,0-1.4-.12,2.26,2.26,0,0,0-.47.11l-.31.14-.55.3a21.2,21.2,0,0,0-1.94,1.31c-1.22.92-2.34,1.92-3.47,2.94l1.18-.17a35.89,35.89,0,0,0-4.33-1.85,17.74,17.74,0,0,0-2.33-.63,7.46,7.46,0,0,0-1.28-.16,3.46,3.46,0,0,0-.71,0,4,4,0,0,0-.74.18,8.37,8.37,0,0,0-2.13,1.36c-.61.52-1.17,1.07-1.71,1.63a28.83,28.83,0,0,0-2.91,3.62c1.2-1,2.38-2,3.59-2.86.6-.46,1.21-.9,1.84-1.29a7.36,7.36,0,0,1,1.84-.92,4.11,4.11,0,0,1,1.8.18,15.23,15.23,0,0,1,2.06.71c1.37.53,2.75,1.17,4.07,1.83l.66.33.52-.5c1-1,2.15-2,3.26-2.91a19.51,19.51,0,0,1,1.67-1.31c.14-.08.29-.19.42-.25l.19-.11s0,0,.07,0a2.16,2.16,0,0,1,.81,0,21.93,21.93,0,0,1,4.1,1.24C282.37,86.23,283.74,86.81,285.13,87.37Z" style="fill:#263238"></path><path d="M90.54,152.19A22.18,22.18,0,0,0,88,150.57a11.85,11.85,0,0,0-2.87-1.18,2.56,2.56,0,0,0-.94,0,1.27,1.27,0,0,0-.3.09,1,1,0,0,0-.21.1c-.13.06-.24.14-.36.21a13.55,13.55,0,0,0-1.26.91c-.8.64-1.53,1.33-2.26,2l.79-.14a22.33,22.33,0,0,0-2.94-1.14,12.85,12.85,0,0,0-1.57-.38,7.44,7.44,0,0,0-.85-.08,2.56,2.56,0,0,0-.47,0,3,3,0,0,0-.49.14,5.4,5.4,0,0,0-1.39,1c-.4.36-.76.74-1.11,1.12a19.33,19.33,0,0,0-1.86,2.48c.78-.67,1.54-1.36,2.33-2a14.43,14.43,0,0,1,1.2-.9,5,5,0,0,1,1.21-.66,3.08,3.08,0,0,1,1.21.08,12.83,12.83,0,0,1,1.38.43c.93.33,1.86.73,2.76,1.14l.44.21.34-.35c.67-.69,1.4-1.37,2.11-2a12.82,12.82,0,0,1,1.09-.91l.27-.18.13-.07s0,0,0,0a1.26,1.26,0,0,1,.53,0,14.26,14.26,0,0,1,2.77.74C88.67,151.49,89.6,151.85,90.54,152.19Z" style="fill:#263238"></path><path d="M115.19,143a33.91,33.91,0,0,0-2.79-3.54,17.28,17.28,0,0,0-3.48-3.07,3.72,3.72,0,0,0-1.3-.53,1.48,1.48,0,0,0-.48,0l-.34,0c-.22,0-.41.08-.61.12a18.87,18.87,0,0,0-2.24.68c-1.44.52-2.81,1.13-4.19,1.77l1.18.19a35.93,35.93,0,0,0-3.59-3.05,19.14,19.14,0,0,0-2-1.3,9.64,9.64,0,0,0-1.17-.53,3.67,3.67,0,0,0-.69-.18,3.84,3.84,0,0,0-.76,0,8.17,8.17,0,0,0-2.44.66c-.73.31-1.43.67-2.11,1a29.62,29.62,0,0,0-3.86,2.6c1.44-.57,2.85-1.17,4.28-1.66a22.15,22.15,0,0,1,2.14-.69,7.39,7.39,0,0,1,2-.33,4.16,4.16,0,0,1,1.67.7,17.47,17.47,0,0,1,1.75,1.29c1.15.92,2.28,1.94,3.34,3l.54.51.64-.32c1.29-.65,2.65-1.26,4-1.82a20.15,20.15,0,0,1,2-.75l.47-.12.21,0s0,0,.08,0a2.19,2.19,0,0,1,.77.24,22,22,0,0,1,3.55,2.4C112.89,141,114,142,115.19,143Z" style="fill:#263238"></path></g><g id="freepik--Floor--inject-120"><polygon points="698.18 340.06 617.48 340.3 536.78 340.39 375.38 340.56 213.99 340.39 133.29 340.31 52.59 340.06 133.29 339.81 213.99 339.73 375.38 339.56 536.78 339.73 617.48 339.82 698.18 340.06" style="fill:#263238"></polygon><polygon points="698.18 466.31 617.48 466.55 536.78 466.64 375.38 466.81 213.99 466.64 133.29 466.56 52.59 466.31 133.29 466.07 213.99 465.98 375.38 465.81 536.78 465.98 617.48 466.07 698.18 466.31" style="fill:#263238"></polygon></g><g id="freepik--Trees--inject-120"><path d="M204.29,379.25a137.27,137.27,0,0,1-9.41,47.28c-5.6,14.1-41.45,28.73-51.28,39.83H160s38.19-27.26,41.31-39.51c7-27.32,4.25-48,4.25-48Z" style="fill:#C4834C"></path><path d="M204.29,379.25a137.27,137.27,0,0,1-9.41,47.28c-5.6,14.1-41.45,28.73-51.28,39.83H160s38.19-27.26,41.31-39.51c7-27.32,4.25-48,4.25-48Z" style="opacity:0.5"></path><path d="M171.23,457.86l-.37.29c-.65,0-1.3,0-1.94,0-1.36,0-2.73-.05-4.09-.12,1.36-.06,2.73-.09,4.09-.12Z" style="fill:#C4834C"></path><path d="M168.23,453.15c-.67,0-1.36.05-2,.09l-2,0-2.63,0c.16-.11.32-.2.49-.3l2.14,0,2,0Z" style="fill:#C4834C"></path><path d="M163.64,454.2c-.68,0-1.36.05-2,.08l-1.71,0,.35-.22,1.36,0Z" style="fill:#C4834C"></path><path d="M192.54,439.19a1.29,1.29,0,0,1-.16.17c-.82,0-1.63,0-2.44-.08C190.8,439.24,191.68,439.22,192.54,439.19Z" style="fill:#C4834C"></path><path d="M195.16,436.37l-.22.26-.61,0c-1.36,0-2.72-.05-4.08-.12,1.36-.05,2.72-.08,4.08-.11Z" style="fill:#C4834C"></path><path d="M202.07,423.57c0,.05,0,.11,0,.17l-2.48-.09Z" style="fill:#C4834C"></path><path d="M203.79,411.06l-2,.07-1.88.05.06-.23,1.82,0C202.43,411,203.11,411,203.79,411.06Z" style="fill:#C4834C"></path><path d="M205.67,399.68a.28.28,0,0,1,0,.09l-1.21,0Z" style="fill:#C4834C"></path><path d="M202.23,409.52c-.65,0-1.31.05-2,.08a.83.83,0,0,1,0-.15Z" style="fill:#C4834C"></path><path d="M192.3,360.26l4.17,0-4.1,1.55a16.42,16.42,0,0,0,1.41,5.35l4.38-.78-3.55,2.36a16.55,16.55,0,0,0,1.11,1.66l2.61-.58-1.79,1.6a22.28,22.28,0,0,0,2.77,2.7l2.39-1.62L200,374.72a35.62,35.62,0,0,0,6.37,3.86l-9.21-32.38a26.94,26.94,0,0,0-3.34,6.22l1.74.4-2.07.5c-.24.71-.46,1.46-.64,2.24l4.2.6-4.57,1.3A19.74,19.74,0,0,0,192.3,360.26Z" style="fill:#37474f"></path><path d="M182.73,373.3l1.94-1.42-1.39,2.27a12.63,12.63,0,0,0,2.2,2.42l2.56-2.86-1.13,3.91a13,13,0,0,0,1.7.91l1.74-2.09-.54,2.57a17.09,17.09,0,0,0,3.24.78l1.65-4,.1,4.16c.57,0,1.16.06,1.78,0l.67-2.72.85,2.66a40.17,40.17,0,0,0,8.18-1.43l-25.51-11.12A14.43,14.43,0,0,0,182.73,373.3Z" style="fill:#37474f"></path><path d="M206.28,378.57a47.94,47.94,0,0,0,8-6.39l-2.48-2.45,3.41,1.48a30,30,0,0,0,2.12-2.54L214.9,366l3.48,1.28c.5-.75,1-1.5,1.35-2.24l-4.68-3.14,5.89.54a22.88,22.88,0,0,0,1.43-5.28h0L216.05,354l6.55.55c0-.48,0-.95,0-1.41l-3.66-.77,3.59-.54a27.21,27.21,0,0,0-.51-3.4l-5.45-.2,5-1.56a28.13,28.13,0,0,0-4.14-8.64Z" style="fill:#37474f"></path><path d="M216.74,377.29l-.38-3.15L218.1,377h0c.5-.13,1-.28,1.53-.43l-.71-2.3,1.52,2c.83-.27,1.66-.57,2.47-.9l-1.24-2.86,2.64,2.24a23.88,23.88,0,0,0,4.33-2.57l-3-4,4.25,2.95a16.67,16.67,0,0,0,2.68-3.06l-3.08-3.36,3.87,2a14.32,14.32,0,0,0,.89-2l-4.91-3.84,5.63,1a18.23,18.23,0,0,0,.24-2.94l-3.93-1.24,3.88-.19a28.4,28.4,0,0,0-1.32-6.64s-11.12,20.65-27.61,27.62A51.32,51.32,0,0,0,216.74,377.29Z" style="fill:#37474f"></path><path d="M212.87,383l1-1.21-.6,1.37a11.25,11.25,0,0,0,1.15.4l.92-1.71,0,2a12.4,12.4,0,0,0,1.66.26l.5-3.09.77,3.14a12.26,12.26,0,0,0,3.49-.55l.09-2.43.75,2.14a13.79,13.79,0,0,0,1.35-.6l-.87-2.85,1.85,2.3a15.79,15.79,0,0,0,2.18-1.57l-.95-1.82,1.43,1.41c.24-.21.47-.43.69-.65l-.69-1,1.11.63a19.93,19.93,0,0,0,2.68-3.43c-9.27,5.42-25.2,2.92-25.2,2.92A23.13,23.13,0,0,0,212.87,383Z" style="fill:#37474f"></path><path d="M190.28,386.29l.72-1.18-.17,1.37a9.65,9.65,0,0,0,1.52.38l.42-2.23.35,2.34a10,10,0,0,0,2.38,0l.21-2.25,1,2a10,10,0,0,0,1.56-.5l-.49-1.87,1.12,1.6a12.37,12.37,0,0,0,1.18-.63l-.75-2.3,2,1.48c.38-.28.76-.59,1.15-.93l-.83-1.17,1.29.76a27.43,27.43,0,0,0,3.84-4.58S195,384.46,186.4,384A12.36,12.36,0,0,0,190.28,386.29Z" style="fill:#37474f"></path><path d="M208.19,388.36,210,387.3l-1.35,1.8a9.27,9.27,0,0,0,1.11,1.39l1.48-.83-1,1.28a7.67,7.67,0,0,0,.64.52l1.84-1.67-1,2.22a8.84,8.84,0,0,0,2.35.87l1.15-1.49-.32,1.64a11.19,11.19,0,0,0,1.13.09l.67-1.57,0,1.58a13,13,0,0,0,3.63-.58c-8.45-3.36-14-13.08-14-13.08A19.19,19.19,0,0,0,208.19,388.36Z" style="fill:#37474f"></path><path d="M201,383.82a3.38,3.38,0,1,0,3.5-3.25A3.38,3.38,0,0,0,201,383.82Z" style="fill:#C4834C"></path><path d="M201,383.82a3.38,3.38,0,1,0,3.5-3.25A3.38,3.38,0,0,0,201,383.82Z" style="opacity:0.4"></path><path d="M204,380.93a3.38,3.38,0,1,0,3.5-3.25A3.38,3.38,0,0,0,204,380.93Z" style="fill:#C4834C"></path><path d="M204,380.93a3.38,3.38,0,1,0,3.5-3.25A3.38,3.38,0,0,0,204,380.93Z" style="opacity:0.30000000000000004"></path><path d="M200.65,380.2a3.38,3.38,0,1,0,3.5-3.25A3.38,3.38,0,0,0,200.65,380.2Z" style="fill:#C4834C"></path><path d="M200.65,380.2a3.38,3.38,0,1,0,3.5-3.25A3.38,3.38,0,0,0,200.65,380.2Z" style="opacity:0.2"></path><path d="M110.51,312.65a304.53,304.53,0,0,0,12.94,83.43c7.72,24.87,23.91,50.7,37.44,70.28H138.38s-19.42-48.1-23.72-69.73c-9.58-48.2-5.84-84.67-5.84-84.67Z" style="fill:#C4834C"></path><path d="M110.51,312.65a304.53,304.53,0,0,0,12.94,83.43c7.72,24.87,23.91,50.7,37.44,70.28H138.38s-19.42-48.1-23.72-69.73c-9.58-48.2-5.84-84.67-5.84-84.67Z" style="opacity:0.30000000000000004"></path><path d="M132.52,451.35c.06.17.14.35.2.52,1.08,0,2.18,0,3.27-.05,1.87,0,3.75-.09,5.62-.21-1.87-.11-3.75-.16-5.62-.21C134.83,451.37,133.67,451.36,132.52,451.35Z" style="fill:#C4834C"></path><path d="M134.5,443.06c.94.06,1.87.08,2.81.13l2.81.08c1.87.05,3.74.06,5.62.06h.16c-.12-.18-.23-.37-.34-.55-1.81,0-3.63,0-5.44.07l-2.81.07C136.37,443,135.44,443,134.5,443.06Z" style="fill:#C4834C"></path><path d="M137.41,439.42c.94.06,1.87.08,2.81.13l2.81.08h.65c-.08-.15-.17-.29-.26-.44H143l-2.81.08C139.28,439.33,138.35,439.36,137.41,439.42Z" style="fill:#C4834C"></path><path d="M120.75,418.41c0,.11.07.21.1.32,1.25,0,2.48-.08,3.73-.16C123.3,418.5,122,418.45,120.75,418.41Z" style="fill:#C4834C"></path><path d="M119.15,413.41c0,.17.11.33.16.5l1.83,0c1.88,0,3.75-.1,5.62-.21-1.87-.11-3.74-.16-5.62-.21Z" style="fill:#C4834C"></path><path d="M113.56,390.85l.06.3c1.13,0,2.27-.08,3.4-.15C115.87,390.93,114.72,390.89,113.56,390.85Z" style="fill:#C4834C"></path><path d="M111.2,368.77c.94.06,1.87.09,2.81.14l2.58.07-.09-.4-2.49.06C113.07,368.68,112.14,368.71,111.2,368.77Z" style="fill:#C4834C"></path><path d="M108.61,348.69a.91.91,0,0,0,0,.17l1.67-.09Z" style="fill:#C4834C"></path><path d="M113.34,366.07c.9.06,1.8.09,2.7.12,0-.08,0-.17-.05-.25C115.11,366,114.22,366,113.34,366.07Z" style="fill:#C4834C"></path><path d="M138.75,286.86,132,285.24l6,4.13a27,27,0,0,1-4.42,8l-6.73-3,4.76,5.23a29.48,29.48,0,0,1-2.45,2.22l-4-2,2.23,3.29a37.6,37.6,0,0,1-5.53,3.22l-3.21-3.56,1.83,4.19a57.26,57.26,0,0,1-11.79,3.63l27.82-48.33a44.93,44.93,0,0,1,2.87,11.34l-2.95,0,3.12,1.63c.1,1.23.15,2.52.13,3.85l-7-.72,6.81,3.94A32.7,32.7,0,0,1,138.75,286.86Z" style="fill:#455a64"></path><path d="M148.88,311.67l-2.55-3.06,1.33,4.2a21.68,21.68,0,0,1-4.52,3l-3-5.64.24,6.75a23.25,23.25,0,0,1-3.09.78l-2-4.06L135.2,318a29.16,29.16,0,0,1-5.51-.05l-1.06-7.07-1.83,6.65c-.93-.16-1.89-.38-2.88-.63v-4.64l-2.44,3.93a67.41,67.41,0,0,1-12.56-5.6l45.46-7.6A23.7,23.7,0,0,1,148.88,311.67Z" style="fill:#455a64"></path><path d="M108.92,310.66a79,79,0,0,1-10.35-13.5l5-3-6.06,1a52.89,52.89,0,0,1-2.4-4.93l5.05-3.34-6.1.65c-.5-1.4-.93-2.78-1.27-4.13l8.78-3.17-9.69-1.51a38.44,38.44,0,0,1-.16-9.06h0l11.43-2.58-10.75-1.75c.17-.78.35-1.53.56-2.27l6.19.23-5.55-2.3a41.75,41.75,0,0,1,2.19-5.25l8.83,1.87-7.41-4.53a47,47,0,0,1,10.13-12.23Z" style="fill:#455a64"></path><path d="M92.61,304.4l1.89-4.92-3.94,3.84h0c-.76-.42-1.52-.85-2.28-1.31l2-3.41-3.25,2.67c-1.23-.77-2.44-1.58-3.62-2.45l3.15-4.09-5.15,2.53a40,40,0,0,1-5.91-5.87l6.37-5.26-8,3a26.71,26.71,0,0,1-3.08-6l6.3-4.16-7,1.73a24.19,24.19,0,0,1-.62-3.57L78.89,273l-9.49-.57a29.77,29.77,0,0,1,.81-4.82l6.8-.41-6.15-1.87a46.4,46.4,0,0,1,4.8-10.14s9.56,37.66,33.26,55.49A85.16,85.16,0,0,1,92.61,304.4Z" style="fill:#455a64"></path><path d="M96.55,315.07l-1.13-2.35.41,2.44c-.69.09-1.35.15-2,.18L93,312.22l-.86,3.13a22,22,0,0,1-2.76-.24l.43-5.17-2.5,4.73A20.39,20.39,0,0,1,82,312.39l.83-3.94-2.07,3.13a24,24,0,0,1-1.92-1.5l2.54-4.24-3.9,3a28.61,28.61,0,0,1-2.87-3.4l2.27-2.55L74,304.55c-.3-.45-.59-.89-.85-1.33l1.53-1.4-2,.56a33.37,33.37,0,0,1-2.94-6.59C82.4,308.23,109,310.62,109,310.62A38.82,38.82,0,0,1,96.55,315.07Z" style="fill:#455a64"></path><path d="M131.52,329.5l-.68-2.17-.28,2.26a18.65,18.65,0,0,1-2.59,0l.22-3.76-1.5,3.62a17.14,17.14,0,0,1-3.82-1l.57-3.69-2.36,2.88a18.1,18.1,0,0,1-2.31-1.43l1.54-2.82-2.44,2.13a18.81,18.81,0,0,1-1.65-1.49l2.13-3.39-3.79,1.58c-.5-.61-1-1.25-1.48-2l1.81-1.55-2.37.71a44.33,44.33,0,0,1-4.34-8.91s16.49,14.16,30.51,16.83A20.55,20.55,0,0,1,131.52,329.5Z" style="fill:#455a64"></path><path d="M101.9,325.63l-2.45-2.42,1.44,3.43a15.29,15.29,0,0,1-2.32,1.78l-2.06-1.93L97.62,329a12.62,12.62,0,0,1-1.24.58l-2.28-3.42.65,3.95a14.87,14.87,0,0,1-4.13.46l-1.25-2.87-.15,2.76c-.63-.07-1.25-.17-1.84-.29l-.44-2.8-.61,2.54a21.54,21.54,0,0,1-5.6-2.39c14.94-2,27.79-15.38,27.79-15.38C106.81,318.5,104.49,322.8,101.9,325.63Z" style="fill:#455a64"></path><path d="M115.32,321.23A5.59,5.59,0,1,1,111,314.6,5.59,5.59,0,0,1,115.32,321.23Z" style="fill:#C4834C"></path><path d="M115.32,321.23A5.59,5.59,0,1,1,111,314.6,5.59,5.59,0,0,1,115.32,321.23Z" style="opacity:0.4"></path><path d="M111.62,315.37a5.59,5.59,0,1,1-4.31-6.63A5.59,5.59,0,0,1,111.62,315.37Z" style="fill:#C4834C"></path><path d="M111.62,315.37a5.59,5.59,0,1,1-4.31-6.63A5.59,5.59,0,0,1,111.62,315.37Z" style="opacity:0.30000000000000004"></path><path d="M117.3,315.54a5.59,5.59,0,1,1-4.31-6.63A5.59,5.59,0,0,1,117.3,315.54Z" style="fill:#C4834C"></path><path d="M117.3,315.54a5.59,5.59,0,1,1-4.31-6.63A5.59,5.59,0,0,1,117.3,315.54Z" style="opacity:0.2"></path><path d="M632.74,322.26a285.59,285.59,0,0,1-12.13,78.21c-7.24,23.32-22.42,47.53-35.11,65.89h21.11s18.21-45.1,22.24-65.37c9-45.2,5.47-79.38,5.47-79.38Z" style="fill:#C4834C"></path><path d="M632.74,322.26a285.59,285.59,0,0,1-12.13,78.21c-7.24,23.32-22.42,47.53-35.11,65.89h21.11s18.21-45.1,22.24-65.37c9-45.2,5.47-79.38,5.47-79.38Z" style="opacity:0.30000000000000004"></path><path d="M612.1,452.29l-.18.49-3.07,0c-1.75,0-3.51-.09-5.27-.2,1.76-.1,3.52-.15,5.27-.19C609.93,452.31,611,452.3,612.1,452.29Z" style="fill:#C4834C"></path><path d="M610.25,444.51c-.88.06-1.76.09-2.64.13l-2.63.07c-1.76.05-3.51.05-5.27.06h-.15l.32-.51c1.69,0,3.4,0,5.1.06l2.63.07Z" style="fill:#C4834C"></path><path d="M607.52,441.1c-.88.06-1.76.08-2.64.12l-2.63.08h-.61l.24-.41h.37l2.63.07C605.76,441,606.64,441,607.52,441.1Z" style="fill:#C4834C"></path><path d="M623.14,421.41c0,.1-.06.2-.1.3-1.17,0-2.32-.08-3.49-.15C620.75,421.49,621.94,421.44,623.14,421.41Z" style="fill:#C4834C"></path><path d="M624.64,416.72l-.15.46c-.58,0-1.15,0-1.72,0-1.76,0-3.51-.09-5.27-.2,1.76-.1,3.51-.15,5.27-.19Z" style="fill:#C4834C"></path><path d="M629.87,395.57c0,.09,0,.18,0,.28-1.06,0-2.13-.07-3.19-.14C627.71,395.65,628.79,395.6,629.87,395.57Z" style="fill:#C4834C"></path><path d="M632.09,374.87c-.88.06-1.75.08-2.63.13l-2.42.07c0-.13.05-.26.08-.38l2.34.06C630.34,374.79,631.21,374.81,632.09,374.87Z" style="fill:#C4834C"></path><path d="M634.52,356a.86.86,0,0,1,0,.16l-1.57-.08Z" style="fill:#C4834C"></path><path d="M630.08,372.34c-.84.05-1.68.08-2.52.11,0-.08,0-.16,0-.24C628.43,372.25,629.26,372.28,630.08,372.34Z" style="fill:#C4834C"></path><path d="M606.26,298.07l6.31-1.52-5.6,3.88a25.1,25.1,0,0,0,4.14,7.52l6.31-2.82L613,310a27.28,27.28,0,0,0,2.29,2.08l3.71-1.86-2.08,3.09a35.31,35.31,0,0,0,5.18,3l3-3.34L623.35,317a54.38,54.38,0,0,0,11.06,3.4L608.32,275a42.11,42.11,0,0,0-2.69,10.64l2.77-.05-2.92,1.53a35.43,35.43,0,0,0-.13,3.61l6.55-.67-6.38,3.69A29.75,29.75,0,0,0,606.26,298.07Z" style="fill:#37474f"></path><path d="M596.77,321.33l2.39-2.86-1.25,3.93a20.1,20.1,0,0,0,4.23,2.82l2.79-5.28-.23,6.33a22.19,22.19,0,0,0,2.89.73l1.84-3.81.16,4.08a27.24,27.24,0,0,0,5.17,0l1-6.62,1.72,6.23c.87-.16,1.77-.35,2.69-.59v-4.35l2.29,3.68a63.2,63.2,0,0,0,11.78-5.25L591.6,313.2A22.16,22.16,0,0,0,596.77,321.33Z" style="fill:#37474f"></path><path d="M634.23,320.39a74,74,0,0,0,9.7-12.66L639.28,305l5.69.95a51.33,51.33,0,0,0,2.25-4.62l-4.74-3.13,5.72.61c.47-1.31.87-2.61,1.19-3.88l-8.24-3,9.09-1.41a35.74,35.74,0,0,0,.15-8.49h0l-10.72-2.41L649.75,278c-.15-.72-.33-1.43-.52-2.12l-5.8.22,5.2-2.17a40.79,40.79,0,0,0-2-4.92l-8.28,1.75,6.94-4.24A43.9,43.9,0,0,0,635.75,255Z" style="fill:#37474f"></path><path d="M649.52,314.52l-1.77-4.61,3.69,3.59h0c.71-.39,1.42-.79,2.14-1.22l-1.93-3.2,3.06,2.51c1.14-.72,2.28-1.49,3.39-2.3l-3-3.83,4.82,2.37a37.55,37.55,0,0,0,5.55-5.51l-6-4.93,7.52,2.85a25.5,25.5,0,0,0,2.88-5.62l-5.9-3.9,6.61,1.62a22.61,22.61,0,0,0,.58-3.34l-8.85-3.94,8.89-.53a28.08,28.08,0,0,0-.76-4.52l-6.37-.39,5.76-1.74a43.73,43.73,0,0,0-4.5-9.52s-9,35.31-31.18,52A79.6,79.6,0,0,0,649.52,314.52Z" style="fill:#37474f"></path><path d="M645.83,324.52l1.06-2.2-.39,2.29c.64.08,1.27.13,1.88.16l.74-2.92.8,2.93a21.35,21.35,0,0,0,2.59-.22l-.41-4.85,2.35,4.44a19.18,19.18,0,0,0,5.06-2.14l-.79-3.7,1.94,2.94a19.44,19.44,0,0,0,1.81-1.41l-2.39-4,3.67,2.77a28,28,0,0,0,2.69-3.18l-2.13-2.4,2.69,1.6c.28-.42.55-.84.79-1.24l-1.43-1.32,1.91.52a31.69,31.69,0,0,0,2.75-6.17c-11.93,11.66-36.88,13.9-36.88,13.9A36,36,0,0,0,645.83,324.52Z" style="fill:#37474f"></path><path d="M613,338.05l.64-2,.26,2.13a18,18,0,0,0,2.43,0l-.2-3.52,1.4,3.4a16.65,16.65,0,0,0,3.58-.94l-.54-3.47,2.22,2.71A18.22,18.22,0,0,0,625,335l-1.45-2.64,2.29,2a19.62,19.62,0,0,0,1.55-1.39l-2-3.18,3.56,1.48c.47-.57.93-1.18,1.39-1.84l-1.7-1.45,2.23.66a41.26,41.26,0,0,0,4.06-8.36s-15.46,13.28-28.6,15.79A19.27,19.27,0,0,0,613,338.05Z" style="fill:#37474f"></path><path d="M640.81,334.42l2.3-2.27-1.36,3.22a14.14,14.14,0,0,0,2.19,1.67l1.93-1.81-1,2.31a9.32,9.32,0,0,0,1.16.54l2.15-3.2-.61,3.7a13.66,13.66,0,0,0,3.86.43l1.18-2.68.13,2.59c.6-.07,1.18-.17,1.73-.28l.42-2.63.57,2.39a20.11,20.11,0,0,0,5.25-2.24c-14-1.88-26-14.42-26-14.42C636.2,327.73,638.39,331.77,640.81,334.42Z" style="fill:#37474f"></path><path d="M628.23,330.3a5.24,5.24,0,1,0,4-6.22A5.24,5.24,0,0,0,628.23,330.3Z" style="fill:#C4834C"></path><path d="M628.23,330.3a5.24,5.24,0,1,0,4-6.22A5.24,5.24,0,0,0,628.23,330.3Z" style="opacity:0.4"></path><path d="M631.69,324.8a5.24,5.24,0,1,0,4-6.21A5.25,5.25,0,0,0,631.69,324.8Z" style="fill:#C4834C"></path><path d="M631.69,324.8a5.24,5.24,0,1,0,4-6.21A5.25,5.25,0,0,0,631.69,324.8Z" style="opacity:0.30000000000000004"></path><path d="M626.37,325a5.24,5.24,0,1,0,4-6.22A5.24,5.24,0,0,0,626.37,325Z" style="fill:#C4834C"></path><path d="M626.37,325a5.24,5.24,0,1,0,4-6.22A5.24,5.24,0,0,0,626.37,325Z" style="opacity:0.2"></path><path d="M84.1,374.62A144.76,144.76,0,0,0,94,424.41c5.9,14.85,43.65,30.26,54,41.95H130.79s-40.22-28.71-43.51-41.62C80,396,82.81,374.21,82.81,374.21Z" style="fill:#C4834C"></path><path d="M84.1,374.62A144.76,144.76,0,0,0,94,424.41c5.9,14.85,43.65,30.26,54,41.95H130.79s-40.22-28.71-43.51-41.62C80,396,82.81,374.21,82.81,374.21Z" style="opacity:0.30000000000000004"></path><path d="M118.92,457.41l.39.3,2,0c1.43,0,2.87-.06,4.3-.13-1.43-.07-2.87-.1-4.3-.13Z" style="fill:#C4834C"></path><path d="M122.07,452.45c.72,0,1.44.05,2.15.09l2.15,0,2.78,0-.52-.31-2.26,0-2.15,0Z" style="fill:#C4834C"></path><path d="M126.91,453.56l2.15.08,1.8,0-.37-.24-1.43,0C128.34,453.5,127.63,453.52,126.91,453.56Z" style="fill:#C4834C"></path><path d="M96.47,437.75l.17.18c.86,0,1.71-.05,2.57-.09C98.3,437.79,97.38,437.77,96.47,437.75Z" style="fill:#C4834C"></path><path d="M93.71,434.77,94,435h.64c1.43,0,2.87,0,4.3-.13-1.43-.06-2.87-.09-4.3-.12Z" style="fill:#C4834C"></path><path d="M86.44,421.29a1.16,1.16,0,0,0,0,.18l2.61-.09Z" style="fill:#C4834C"></path><path d="M84.63,408.11l2.15.09,2,0-.06-.24-1.91,0Z" style="fill:#C4834C"></path><path d="M82.64,396.13a.34.34,0,0,1,0,.1l1.28-.05Z" style="fill:#C4834C"></path><path d="M86.27,406.5c.68,0,1.38.05,2.06.08a.75.75,0,0,0,0-.16C87.62,406.45,86.94,406.46,86.27,406.5Z" style="fill:#C4834C"></path><path d="M96.73,354.61l-4.4,0,4.33,1.63a17.39,17.39,0,0,1-1.49,5.63l-4.62-.82,3.74,2.49a17,17,0,0,1-1.16,1.74l-2.75-.6,1.88,1.68a23.15,23.15,0,0,1-2.91,2.84l-2.53-1.7,1.77,2.3a36.16,36.16,0,0,1-6.71,4.06l9.7-34.1a28.4,28.4,0,0,1,3.52,6.56l-1.82.42,2.17.53c.25.74.48,1.53.68,2.35l-4.42.63,4.8,1.38A20.24,20.24,0,0,1,96.73,354.61Z" style="fill:#37474f"></path><path d="M106.81,368.35l-2-1.49,1.47,2.38a13.67,13.67,0,0,1-2.32,2.55l-2.7-3,1.19,4.12a14.28,14.28,0,0,1-1.78,1l-1.83-2.2.56,2.71a18.53,18.53,0,0,1-3.41.82L94.2,371l-.11,4.39c-.6,0-1.22.05-1.87.05l-.71-2.86-.9,2.8A43.05,43.05,0,0,1,82,373.85l26.87-11.7A15.06,15.06,0,0,1,106.81,368.35Z" style="fill:#37474f"></path><path d="M82,373.9a50.21,50.21,0,0,1-8.47-6.73l2.6-2.58-3.58,1.56c-.82-.89-1.57-1.78-2.24-2.67l2.6-2.84L69.26,362c-.53-.79-1-1.58-1.42-2.36l4.93-3.31-6.21.57a24.41,24.41,0,0,1-1.5-5.56h0L71.71,348l-6.9.58c0-.51,0-1,0-1.49l3.85-.81-3.78-.57a26.16,26.16,0,0,1,.54-3.57l5.73-.21-5.26-1.65a29.61,29.61,0,0,1,4.36-9.1Z" style="fill:#37474f"></path><path d="M71,372.55l.4-3.32-1.84,3h0c-.54-.14-1.07-.29-1.61-.45l.74-2.42-1.6,2.15c-.87-.28-1.74-.6-2.61-1l1.31-3L63,369.88a26,26,0,0,1-4.55-2.71l3.11-4.23-4.48,3.11a17.38,17.38,0,0,1-2.82-3.22l3.24-3.54-4.08,2.15a15.35,15.35,0,0,1-.93-2.1l5.18-4-5.94,1.11a18.13,18.13,0,0,1-.24-3.1l4.13-1.3-4.08-.2a29,29,0,0,1,1.39-7S64.64,366.56,82,373.9A54.07,54.07,0,0,1,71,372.55Z" style="fill:#37474f"></path><path d="M75.06,378.52,74,377.25l.63,1.45c-.41.16-.81.29-1.21.41l-1-1.8,0,2.06a12.56,12.56,0,0,1-1.74.28l-.53-3.25-.81,3.3a12.83,12.83,0,0,1-3.68-.57l-.1-2.57-.79,2.26c-.49-.19-1-.4-1.42-.63l.92-3-2,2.43A19.17,19.17,0,0,1,60,376L61,374l-1.51,1.5c-.26-.23-.5-.46-.73-.69l.73-1.11-1.17.66a21.24,21.24,0,0,1-2.83-3.61c9.77,5.71,26.55,3.08,26.55,3.08A24.47,24.47,0,0,1,75.06,378.52Z" style="fill:#37474f"></path><path d="M98.85,382l-.75-1.24.18,1.44a12.47,12.47,0,0,1-1.6.4l-.45-2.35-.37,2.46a10.57,10.57,0,0,1-2.51,0l-.21-2.37-1,2.15a12.59,12.59,0,0,1-1.65-.53l.52-2-1.18,1.69a13.77,13.77,0,0,1-1.25-.66l.8-2.42-2.1,1.56c-.4-.3-.8-.62-1.21-1l.87-1.24-1.35.81a28.34,28.34,0,0,1-4-4.83s12.35,6.19,21.41,5.67A13.11,13.11,0,0,1,98.85,382Z" style="fill:#37474f"></path><path d="M80,384.21l-1.88-1.11L79.52,385a9.08,9.08,0,0,1-1.16,1.46l-1.56-.87,1.06,1.35c-.21.19-.44.37-.67.54l-1.94-1.75,1,2.33a9.07,9.07,0,0,1-2.47.92l-1.22-1.57.34,1.73c-.4.05-.8.08-1.18.1L71,387.57l0,1.66a13.51,13.51,0,0,1-3.82-.61C76.12,385.08,82,374.85,82,374.85A20.19,20.19,0,0,1,80,384.21Z" style="fill:#37474f"></path><path d="M87.58,379.43A3.55,3.55,0,1,1,83.9,376,3.55,3.55,0,0,1,87.58,379.43Z" style="fill:#C4834C"></path><path d="M87.58,379.43A3.55,3.55,0,1,1,83.9,376,3.55,3.55,0,0,1,87.58,379.43Z" style="opacity:0.4"></path><path d="M84.4,376.39A3.55,3.55,0,1,1,80.72,373,3.55,3.55,0,0,1,84.4,376.39Z" style="fill:#C4834C"></path><path d="M84.4,376.39A3.55,3.55,0,1,1,80.72,373,3.55,3.55,0,0,1,84.4,376.39Z" style="opacity:0.30000000000000004"></path><path d="M87.93,375.61a3.55,3.55,0,1,1-3.68-3.42A3.56,3.56,0,0,1,87.93,375.61Z" style="fill:#C4834C"></path><path d="M87.93,375.61a3.55,3.55,0,1,1-3.68-3.42A3.56,3.56,0,0,1,87.93,375.61Z" style="opacity:0.2"></path><path d="M667.82,380a136.11,136.11,0,0,1-9.32,46.87c-5.56,14-41.08,28.47-50.83,39.47h16.21s37.86-27,41-39.16c6.9-27.08,4.21-47.56,4.21-47.56Z" style="fill:#C4834C"></path><path d="M667.82,380a136.11,136.11,0,0,1-9.32,46.87c-5.56,14-41.08,28.47-50.83,39.47h16.21s37.86-27,41-39.16c6.9-27.08,4.21-47.56,4.21-47.56Z" style="opacity:0.5"></path><path d="M635.06,457.93l-.37.29-1.93,0c-1.35,0-2.7-.06-4-.12,1.35-.07,2.7-.1,4-.12Z" style="fill:#C4834C"></path><path d="M632.08,453.27c-.67,0-1.34.05-2,.08l-2,0q-1.31,0-2.61,0l.48-.29q1.07,0,2.13,0l2,0Z" style="fill:#C4834C"></path><path d="M627.54,454.31l-2,.08-1.7,0a3.37,3.37,0,0,0,.35-.22l1.35,0Z" style="fill:#C4834C"></path><path d="M656.18,439.43l-.16.17c-.81,0-1.61,0-2.42-.08Z" style="fill:#C4834C"></path><path d="M658.77,436.63a2.65,2.65,0,0,0-.21.26H658c-1.35,0-2.7-.05-4-.12,1.34-.06,2.69-.09,4-.11Z" style="fill:#C4834C"></path><path d="M665.62,424a1.36,1.36,0,0,1,0,.17l-2.45-.09Z" style="fill:#C4834C"></path><path d="M667.32,411.55l-2,.07-1.86,0,.06-.22,1.8,0C666,411.5,666.65,411.51,667.32,411.55Z" style="fill:#C4834C"></path><path d="M669.19,400.27a.28.28,0,0,1,0,.09l-1.2-.05Z" style="fill:#C4834C"></path><path d="M665.78,410l-1.94.07,0-.15C664.51,410,665.15,410,665.78,410Z" style="fill:#C4834C"></path><path d="M655.94,361.2l4.13,0L656,362.77a15.83,15.83,0,0,0,1.4,5.29l4.34-.77-3.52,2.35a16.2,16.2,0,0,0,1.1,1.64l2.58-.57-1.77,1.58a22.54,22.54,0,0,0,2.74,2.68l2.38-1.61-1.67,2.17a34.49,34.49,0,0,0,6.32,3.82l-9.13-32.09a26.86,26.86,0,0,0-3.31,6.17l1.72.4-2.05.49c-.24.71-.46,1.45-.64,2.22l4.16.59-4.52,1.3A18,18,0,0,0,655.94,361.2Z" style="fill:#455a64"></path><path d="M646.45,374.13l1.93-1.41L647,375a13.1,13.1,0,0,0,2.18,2.41l2.54-2.84-1.12,3.88a13.37,13.37,0,0,0,1.68.9l1.72-2.07-.53,2.55a17.57,17.57,0,0,0,3.21.77l1.64-3.95.1,4.13c.56,0,1.15.05,1.76.05l.67-2.7.84,2.64a40.2,40.2,0,0,0,8.1-1.43l-25.27-11A14.23,14.23,0,0,0,646.45,374.13Z" style="fill:#455a64"></path><path d="M669.79,379.35a47.11,47.11,0,0,0,8-6.34l-2.45-2.43,3.37,1.47a29.57,29.57,0,0,0,2.11-2.51l-2.45-2.67,3.45,1.27c.49-.75.94-1.48,1.33-2.22l-4.63-3.12,5.84.54a22.86,22.86,0,0,0,1.41-5.24h0l-6.26-3.16,6.49.55c0-.48,0-.94,0-1.4l-3.63-.76,3.56-.53a25,25,0,0,0-.51-3.37l-5.4-.2,5-1.55a27.89,27.89,0,0,0-4.1-8.57Z" style="fill:#455a64"></path><path d="M680.16,378.08l-.38-3.13,1.74,2.8h0c.5-.13,1-.27,1.51-.43l-.69-2.27,1.5,2c.82-.27,1.64-.56,2.45-.9l-1.23-2.82,2.62,2.21A24,24,0,0,0,692,373L689,369l4.22,2.92a16.7,16.7,0,0,0,2.65-3l-3-3.33,3.84,2a16.07,16.07,0,0,0,.88-2l-4.87-3.81,5.58,1.05a17,17,0,0,0,.23-2.92l-3.88-1.23,3.84-.18a27.88,27.88,0,0,0-1.31-6.59s-11,20.47-27.37,27.38A50.82,50.82,0,0,0,680.16,378.08Z" style="fill:#455a64"></path><path d="M676.33,383.7l1-1.2-.59,1.36c.38.15.76.28,1.13.39l.91-1.69.05,1.94a11.88,11.88,0,0,0,1.64.26l.49-3.06.77,3.11a12.11,12.11,0,0,0,3.46-.54l.09-2.41L686,384c.46-.18.91-.38,1.34-.6l-.86-2.82,1.83,2.28a18.09,18.09,0,0,0,2.16-1.55l-.94-1.82,1.41,1.41c.24-.22.47-.43.69-.65l-.69-1,1.1.62a20,20,0,0,0,2.67-3.39c-9.19,5.37-25,2.89-25,2.89A23.24,23.24,0,0,0,676.33,383.7Z" style="fill:#455a64"></path><path d="M653.94,387l.71-1.17-.17,1.36a11.11,11.11,0,0,0,1.51.37l.42-2.21.34,2.32a10.38,10.38,0,0,0,2.36,0l.21-2.23.95,2a11.57,11.57,0,0,0,1.55-.5l-.49-1.86,1.11,1.59a13.23,13.23,0,0,0,1.17-.62l-.74-2.28,2,1.47c.37-.28.76-.59,1.14-.93l-.82-1.16,1.27.76a25.78,25.78,0,0,0,3.81-4.55s-11.63,5.83-20.15,5.34A12.24,12.24,0,0,0,653.94,387Z" style="fill:#455a64"></path><path d="M671.69,389.05l1.77-1.05-1.33,1.78a9.09,9.09,0,0,0,1.09,1.38l1.48-.82-1,1.27c.21.18.42.35.64.51l1.82-1.65-.95,2.2a8.62,8.62,0,0,0,2.32.86l1.15-1.48-.32,1.63a10.81,10.81,0,0,0,1.11.09l.67-1.56,0,1.57a13,13,0,0,0,3.6-.57c-8.38-3.34-13.89-13-13.89-13A19,19,0,0,0,671.69,389.05Z" style="fill:#455a64"></path><path d="M664.54,384.55a3.35,3.35,0,1,0,3.47-3.22A3.35,3.35,0,0,0,664.54,384.55Z" style="fill:#C4834C"></path><path d="M664.54,384.55a3.35,3.35,0,1,0,3.47-3.22A3.35,3.35,0,0,0,664.54,384.55Z" style="opacity:0.4"></path><path d="M667.54,381.69a3.35,3.35,0,1,0,3.46-3.22A3.34,3.34,0,0,0,667.54,381.69Z" style="fill:#C4834C"></path><path d="M667.54,381.69a3.35,3.35,0,1,0,3.46-3.22A3.34,3.34,0,0,0,667.54,381.69Z" style="opacity:0.30000000000000004"></path><path d="M664.22,381a3.34,3.34,0,1,0,3.46-3.22A3.34,3.34,0,0,0,664.22,381Z" style="fill:#C4834C"></path><path d="M664.22,381a3.34,3.34,0,1,0,3.46-3.22A3.34,3.34,0,0,0,664.22,381Z" style="opacity:0.2"></path></g><g id="freepik--Bushes--inject-120"><path d="M147.28,466.36H85.58A11.74,11.74,0,0,1,83.83,463c-.52-1.88,0-4.38,1.93-5.24,1.26-.55,2.62-.09,3.93-.06a1.07,1.07,0,0,0,1-.41,1.2,1.2,0,0,0,.1-.87,2.88,2.88,0,0,0-1.35-1.47.17.17,0,0,1,0-.25,3.19,3.19,0,0,1,4-.09,2.21,2.21,0,0,0-.06-2.58,27.76,27.76,0,0,0-1.78-2.27A2.93,2.93,0,0,1,91,447.6a3.21,3.21,0,0,1,1.3-1.92c1.06-.85,2.88-1.8,4.13-.8s.49,3.14,1.38,4.47a1.45,1.45,0,0,0,1,.75,1.18,1.18,0,0,0,1-.62c.31-.45.57-1,1.11-1.18-.15-1.37-.5-2.71-.63-4.08-.19-2,.25-4.53,2.32-5.38a3.14,3.14,0,0,1,2.53,0,2.52,2.52,0,0,1,1.3,2.25c.06,1.17-.34,2.32-.2,3.49.08.71.43,1.47,1.29,1.3a4.22,4.22,0,0,0,1.57-.85c.64-.44,1.72-.93,2.39-.28.39.38.33,1,.67,1.4a1.86,1.86,0,0,0,1.43.5c1,0,2-.24,3.07-.15a6.74,6.74,0,0,1,2.8.83,4.52,4.52,0,0,1,1.89,2.05c.35.74.95,2.49,2.08,1.72a4.15,4.15,0,0,0,1-1.41c.3-.49.59-1,.91-1.45a6.67,6.67,0,0,1,2.23-2.19,4.45,4.45,0,0,1,5.58,1.22,4.57,4.57,0,0,1,.89,2.94c-.07,1.21-.9,2.24-1,3.44a1.68,1.68,0,0,0,.65,1.53c.64.37,1.43,0,2.08-.12s1.79-.07,2.09.73a1.09,1.09,0,0,1-.23,1c-.13.19-.3.36-.42.56s-.14.4.12.57c.77.52,1.81.33,2.68.42C145.23,458.89,147.05,464.93,147.28,466.36Z" style="fill:#263238"></path><path d="M103.66,456.29c-.75,3.41-1.5,6.76-.62,10.07h-.7c-.27-.65-.52-1.32-.77-2-2.54-1.18-5.27-.23-7.95-.56A8.67,8.67,0,0,1,88,460.87a.11.11,0,1,1,.16-.16,12.82,12.82,0,0,0,3.74,2.14c-.29-.34-.56-.69-.87-1-.45-.46-1-.85-1.43-1.27,0,0,0-.06,0-.05a10.2,10.2,0,0,1,1.51,1.2A8.8,8.8,0,0,1,92.31,463a9.22,9.22,0,0,0,2.72.38c2.11,0,4.46-.47,6.37.6-.16-.4-.33-.8-.5-1.2A37.23,37.23,0,0,0,98.29,458a32,32,0,0,1-2.68-4.68,18.74,18.74,0,0,1-1.28-5c0-.08.12-.13.14,0a23.39,23.39,0,0,0,3.6,8.17c-.49-1.48-.89-3-1.51-4.42,0-.1.1-.19.15-.09a18.79,18.79,0,0,1,2,5.59l.33.51a33.61,33.61,0,0,1,2.89,5.71,24.23,24.23,0,0,1,.78-6.3,34.63,34.63,0,0,0,1-6.63c0-.2,0-.4,0-.6a15.8,15.8,0,0,1-1.5-8.29c0-.18.29-.19.29,0a25.43,25.43,0,0,0,.34,4.61,20,20,0,0,0,.86,3,50.67,50.67,0,0,0-.48-5.34c0-.16.22-.18.25,0A24.74,24.74,0,0,1,103.66,456.29Z" style="fill:#455a64"></path><path d="M117.37,451.7a23,23,0,0,1-1.58,2.71,11.69,11.69,0,0,1-.62,2.16,7.84,7.84,0,0,1-1.64,2.56,6.06,6.06,0,0,0-1.94,2.87,10.39,10.39,0,0,1,1.22,4.36h-.51c-.43-2.76-1.84-5-3.1-7.53-1.11-2.21-2-5.08-.93-7.48.06-.14.26,0,.23.1-.75,3.19.59,5.87,2.08,8.63.23.42.47.86.7,1.3a3.83,3.83,0,0,1,.77-1.5,18.32,18.32,0,0,0,2.22-2.83c1.27-2.41,1.07-5,1.42-7.62,0-.15.22-.09.23,0a15.7,15.7,0,0,1,0,4.22,17.68,17.68,0,0,1,1.24-2.11A.13.13,0,1,1,117.37,451.7Z" style="fill:#455a64"></path><path d="M130.56,450a8.62,8.62,0,0,1-1.65,3.72c-.64.84-1.64,1.38-2.27,2.22-.54,1.12-1.14,2.2-1.76,3.28s-1.84,2.7-1.27,4.07c0,.07,0,.11-.08.12a4.61,4.61,0,0,1,1.07,2.95h-.3c-.33-4-6-5.05-6.06-9.17,0-.19.3-.24.33-.05.42,2.24,2.17,3.5,3.75,4.95.32.31.64.63.94,1a3,3,0,0,1,.28-2.57c.63-1.31,1.41-2.55,2.08-3.83a26,26,0,0,0,1.82-4.15A16,16,0,0,0,128,448c0-.09.14-.12.16,0,.53,2.23-.19,4.78-1.06,6.87.32-.31.68-.6,1-.92a12.77,12.77,0,0,0,2.16-4A.16.16,0,0,1,130.56,450Z" style="fill:#455a64"></path><path d="M142,462c-1.35.2-2.65.52-4,.59a20.18,20.18,0,0,1-4.18-.21,19.85,19.85,0,0,0-5.12-.49,12.36,12.36,0,0,0,1.49-.77,9.25,9.25,0,0,0,3.77-4.38c.07-.18-.18-.24-.28-.12a18.93,18.93,0,0,1-2.41,2.95,15.44,15.44,0,0,1-3.61,2.18,7,7,0,0,0-2.52,1.9c-.18.23-1,1.41-.51,1.66a.09.09,0,0,0,.09,0l0,0a0,0,0,0,0,0-.08,8.41,8.41,0,0,1,.92-1.43,6.29,6.29,0,0,1,1.27-1l.72-.39c2.31-.44,4.67.4,7,.67a15.67,15.67,0,0,0,7.54-.68A.2.2,0,0,0,142,462Z" style="fill:#455a64"></path><path d="M112,465.14a8.62,8.62,0,0,0-2.79-2.17,6.36,6.36,0,0,1-2.91-3.5c0-.14-.29-.13-.27,0,.39,3.14,3.64,4,5.77,5.78C111.87,465.38,112.06,465.27,112,465.14Z" style="fill:#455a64"></path><path d="M97.85,463.15a8.53,8.53,0,0,0-2.58-2.87,7.48,7.48,0,0,1-2.7-4.2c0-.1-.2-.06-.17.05a7.82,7.82,0,0,0,2,4c1.08,1.07,2.27,2,3.29,3.12C97.77,463.29,97.89,463.23,97.85,463.15Z" style="fill:#455a64"></path><path d="M100.78,451.21a.41.41,0,0,1-.77-.1.28.28,0,0,1,0-.09v0a.42.42,0,0,1,0-.23.43.43,0,0,1,.31-.3C100.71,450.39,101,450.87,100.78,451.21Z" style="fill:#37474f"></path><path d="M140,460.82a.42.42,0,0,1-.77-.11.28.28,0,0,1,0-.09h0a.47.47,0,0,1,0-.24.43.43,0,0,1,.31-.3C139.89,460,140.15,460.47,140,460.82Z" style="fill:#37474f"></path><path d="M101.82,451.83a.06.06,0,0,0,0,0h0a.29.29,0,0,0-.07-.25.1.1,0,0,0,0,0,.22.22,0,0,0-.33.08c-.11.24.16.55.37.35a.22.22,0,0,0,0-.08h0Z" style="fill:#37474f"></path><path d="M126.15,449.92v0h0a.26.26,0,0,0-.23-.13h-.06a.21.21,0,0,0-.18.28c.09.25.5.28.51,0a.29.29,0,0,0,0-.09h0Z" style="fill:#37474f"></path><path d="M101.94,450.33a.17.17,0,0,0-.22.08.11.11,0,0,0,0,.1.16.16,0,0,0,.31.05A.19.19,0,0,0,101.94,450.33Z" style="fill:#37474f"></path><path d="M110.53,445.68a.16.16,0,0,0-.21.07.12.12,0,0,0,0,.1.15.15,0,0,0,.3.06A.18.18,0,0,0,110.53,445.68Z" style="fill:#37474f"></path><path d="M127,448.52a.16.16,0,0,0-.1.2s0,.06.06.08a.16.16,0,0,0,.25-.18A.17.17,0,0,0,127,448.52Z" style="fill:#37474f"></path><path d="M694.47,466.36h-61.7A11.27,11.27,0,0,1,631,463c-.52-1.88,0-4.38,1.92-5.24,1.27-.55,2.63-.09,3.93-.06a1.09,1.09,0,0,0,1-.41,1.15,1.15,0,0,0,.09-.87c-.16-.67-.81-1.1-1.34-1.47a.16.16,0,0,1,0-.25,3.19,3.19,0,0,1,4-.09,2.21,2.21,0,0,0-.06-2.58c-.47-.85-1.24-1.48-1.78-2.27a2.94,2.94,0,0,1-.6-2.13,3.26,3.26,0,0,1,1.3-1.92c1.06-.85,2.89-1.8,4.14-.8s.49,3.14,1.37,4.47a1.48,1.48,0,0,0,1.06.75,1.18,1.18,0,0,0,1-.62c.32-.45.57-1,1.11-1.18-.14-1.37-.5-2.71-.63-4.08-.19-2,.26-4.53,2.32-5.38a3.14,3.14,0,0,1,2.53,0,2.53,2.53,0,0,1,1.31,2.25c.05,1.17-.35,2.32-.21,3.49.09.71.44,1.47,1.29,1.3a4.26,4.26,0,0,0,1.58-.85c.63-.44,1.72-.93,2.38-.28.39.38.34,1,.68,1.4a1.84,1.84,0,0,0,1.42.5c1,0,2-.24,3.07-.15a6.78,6.78,0,0,1,2.81.83,4.5,4.5,0,0,1,1.88,2.05c.35.74,1,2.49,2.08,1.72a4.31,4.31,0,0,0,1-1.41c.29-.49.58-1,.9-1.45a6.77,6.77,0,0,1,2.23-2.19,4.46,4.46,0,0,1,5.59,1.22,4.56,4.56,0,0,1,.88,2.94c-.07,1.21-.89,2.24-.94,3.44a1.66,1.66,0,0,0,.65,1.53c.63.37,1.42,0,2.07-.12s1.8-.07,2.09.73a1.06,1.06,0,0,1-.22,1c-.14.19-.31.36-.43.56s-.13.4.13.57c.76.52,1.8.33,2.67.42C692.42,458.89,694.23,464.93,694.47,466.36Z" style="fill:#263238"></path><path d="M650.85,456.29c-.76,3.41-1.5,6.76-.62,10.07h-.71c-.26-.65-.51-1.32-.77-2-2.53-1.18-5.27-.23-8-.56a8.67,8.67,0,0,1-5.65-2.95.12.12,0,0,1,.17-.16,12.64,12.64,0,0,0,3.73,2.14c-.28-.34-.55-.69-.86-1-.45-.46-1-.85-1.44-1.27,0,0,0-.06,0-.05a9.79,9.79,0,0,1,1.52,1.2,8.21,8.21,0,0,1,1.18,1.25,9.33,9.33,0,0,0,2.73.38c2.1,0,4.46-.47,6.36.6-.16-.4-.32-.8-.5-1.2a36,36,0,0,0-2.6-4.76,33,33,0,0,1-2.69-4.68,19.11,19.11,0,0,1-1.27-5c0-.08.12-.13.13,0a23.58,23.58,0,0,0,3.6,8.17c-.49-1.48-.89-3-1.51-4.42,0-.1.11-.19.16-.09a18.79,18.79,0,0,1,2,5.59c.11.17.22.34.32.51a34.4,34.4,0,0,1,2.9,5.71,24.22,24.22,0,0,1,.77-6.3,34.65,34.65,0,0,0,1-6.63c0-.2,0-.4,0-.6a15.8,15.8,0,0,1-1.5-8.29.15.15,0,0,1,.29,0,25.43,25.43,0,0,0,.34,4.61,20,20,0,0,0,.86,3,50.7,50.7,0,0,0-.49-5.34c0-.16.22-.18.26,0A24.74,24.74,0,0,1,650.85,456.29Z" style="fill:#455a64"></path><path d="M664.56,451.7a26.21,26.21,0,0,1-1.58,2.71,11.71,11.71,0,0,1-.63,2.16,8,8,0,0,1-1.63,2.56,6.16,6.16,0,0,0-2,2.87,10.25,10.25,0,0,1,1.22,4.36h-.5c-.44-2.76-1.84-5-3.11-7.53-1.11-2.21-2-5.08-.93-7.48.07-.14.27,0,.24.1-.76,3.19.59,5.87,2.08,8.63.23.42.46.86.69,1.3a3.73,3.73,0,0,1,.78-1.5,19.63,19.63,0,0,0,2.22-2.83c1.27-2.41,1.06-5,1.42-7.62,0-.15.21-.09.23,0a15.7,15.7,0,0,1,0,4.22,16.43,16.43,0,0,1,1.24-2.11A.13.13,0,0,1,664.56,451.7Z" style="fill:#455a64"></path><path d="M677.75,450a8.74,8.74,0,0,1-1.65,3.72c-.65.84-1.65,1.38-2.28,2.22-.53,1.12-1.14,2.2-1.75,3.28s-1.84,2.7-1.27,4.07c0,.07,0,.11-.09.12a4.62,4.62,0,0,1,1.08,2.95h-.3c-.33-4-6-5.05-6.07-9.17,0-.19.3-.24.34-.05.42,2.24,2.17,3.5,3.74,4.95a10.88,10.88,0,0,1,.94,1,3,3,0,0,1,.29-2.57c.63-1.31,1.4-2.55,2.07-3.83a24.3,24.3,0,0,0,1.82-4.15,15.61,15.61,0,0,0,.59-4.51c0-.09.14-.12.17,0,.52,2.23-.19,4.78-1.07,6.87.33-.31.68-.6,1-.92a13,13,0,0,0,2.16-4A.16.16,0,0,1,677.75,450Z" style="fill:#455a64"></path><path d="M689.2,462c-1.35.2-2.66.52-4,.59a20.27,20.27,0,0,1-4.19-.21,19.85,19.85,0,0,0-5.12-.49,12.49,12.49,0,0,0,1.5-.77,9.25,9.25,0,0,0,3.77-4.38c.06-.18-.19-.24-.28-.12a20.15,20.15,0,0,1-2.41,2.95,15.5,15.5,0,0,1-3.62,2.18,7,7,0,0,0-2.52,1.9c-.17.23-1,1.41-.5,1.66a.1.1,0,0,0,.09,0l0,0a.05.05,0,0,0,0-.08c-.12,0,.9-1.42.91-1.43a6.35,6.35,0,0,1,1.28-1c.23-.14.47-.27.71-.39,2.31-.44,4.68.4,7,.67a15.64,15.64,0,0,0,7.53-.68A.2.2,0,0,0,689.2,462Z" style="fill:#455a64"></path><path d="M659.15,465.14a8.68,8.68,0,0,0-2.78-2.17,6.38,6.38,0,0,1-2.92-3.5c0-.14-.28-.13-.26,0,.38,3.14,3.63,4,5.76,5.78C659.06,465.38,659.24,465.27,659.15,465.14Z" style="fill:#455a64"></path><path d="M645,463.15a8.67,8.67,0,0,0-2.59-2.87,10.71,10.71,0,0,1-1.48-1.53,10.26,10.26,0,0,1-1.22-2.67c0-.1-.2-.06-.17.05a8,8,0,0,0,2,4c1.09,1.07,2.27,2,3.3,3.12C645,463.29,645.07,463.23,645,463.15Z" style="fill:#455a64"></path><path d="M648,451.21a.41.41,0,0,1-.76-.1.29.29,0,0,1,0-.09v0a.34.34,0,0,1,0-.23.4.4,0,0,1,.31-.3C647.9,450.39,648.16,450.87,648,451.21Z" style="fill:#37474f"></path><path d="M687.14,460.82a.41.41,0,0,1-.76-.11.29.29,0,0,1,0-.09h0a.38.38,0,0,1,0-.24.4.4,0,0,1,.31-.3A.49.49,0,0,1,687.14,460.82Z" style="fill:#37474f"></path><path d="M649,451.83v0h0a.28.28,0,0,0-.06-.25l-.06,0a.21.21,0,0,0-.32.08c-.11.24.16.55.36.35a.24.24,0,0,0,.06-.08h0Z" style="fill:#37474f"></path><path d="M673.34,449.92l0,0h0a.26.26,0,0,0-.22-.13H673a.2.2,0,0,0-.17.28c.09.25.5.28.5,0a.28.28,0,0,0,0-.09h0Z" style="fill:#37474f"></path><path d="M649.12,450.33a.16.16,0,0,0-.21.08.11.11,0,0,0,0,.1.15.15,0,0,0,.3.05A.18.18,0,0,0,649.12,450.33Z" style="fill:#37474f"></path><path d="M657.72,445.68a.16.16,0,0,0-.21.07.13.13,0,0,0,0,.1.16.16,0,0,0,.31.06A.19.19,0,0,0,657.72,445.68Z" style="fill:#37474f"></path><path d="M674.13,448.52c-.09,0-.11.11-.1.2a.12.12,0,0,0,.06.08.16.16,0,0,0,.26-.18A.18.18,0,0,0,674.13,448.52Z" style="fill:#37474f"></path><path d="M55.53,466.36H97.74A7.85,7.85,0,0,0,98.93,464a3,3,0,0,0-1.31-3.58,6.1,6.1,0,0,0-2.69,0,.75.75,0,0,1-.72-.28.83.83,0,0,1-.06-.6,1.91,1.91,0,0,1,.92-1,.11.11,0,0,0,0-.17,2.18,2.18,0,0,0-2.72-.07,1.5,1.5,0,0,1,0-1.76c.32-.58.84-1,1.21-1.55a2,2,0,0,0,.41-1.46,2.23,2.23,0,0,0-.89-1.32c-.72-.57-2-1.22-2.82-.54s-.34,2.15-.95,3.06a1,1,0,0,1-.72.51.81.81,0,0,1-.66-.43c-.21-.3-.39-.67-.76-.8.1-.94.34-1.85.43-2.79.13-1.35-.17-3.1-1.58-3.68a2.17,2.17,0,0,0-1.73,0,1.75,1.75,0,0,0-.9,1.54c0,.8.24,1.59.14,2.39-.06.49-.29,1-.88.89a3.06,3.06,0,0,1-1.08-.58c-.43-.3-1.17-.63-1.63-.19-.26.26-.23.67-.46.95a1.23,1.23,0,0,1-1,.34c-.71,0-1.39-.16-2.1-.1a4.6,4.6,0,0,0-1.92.57,3.12,3.12,0,0,0-1.29,1.4c-.24.51-.65,1.71-1.42,1.18a2.7,2.7,0,0,1-.71-1c-.2-.34-.4-.67-.62-1A4.39,4.39,0,0,0,69,452.5a3.06,3.06,0,0,0-3.82.83,3.14,3.14,0,0,0-.6,2c0,.83.61,1.53.65,2.36a1.15,1.15,0,0,1-.45,1c-.44.26-1,0-1.42-.08s-1.23-.05-1.43.5a.78.78,0,0,0,.15.7c.1.13.21.24.3.38s.09.27-.09.39a3.88,3.88,0,0,1-1.83.29C56.93,461.25,55.69,465.38,55.53,466.36Z" style="fill:#37474f"></path><path d="M85.37,459.47c.52,2.34,1,4.63.42,6.89h.49c.18-.44.35-.9.52-1.35,1.74-.81,3.61-.16,5.44-.38a6,6,0,0,0,3.87-2,.09.09,0,0,0-.12-.12A8.44,8.44,0,0,1,93.44,464c.19-.23.38-.47.59-.68s.65-.58,1-.87a0,0,0,1,0,0,0,6.18,6.18,0,0,0-1,.82,5,5,0,0,0-.81.85,6.65,6.65,0,0,1-1.87.26c-1.44,0-3-.32-4.35.41.11-.27.22-.55.34-.82A25.76,25.76,0,0,1,89,460.64a21.21,21.21,0,0,0,1.84-3.2,12.93,12.93,0,0,0,.87-3.42c0-.06-.08-.09-.09,0a16,16,0,0,1-2.46,5.59c.33-1,.6-2,1-3,0-.07-.07-.13-.11-.06a13.08,13.08,0,0,0-1.39,3.82c-.08.12-.15.24-.23.35a23.8,23.8,0,0,0-2,3.9,16,16,0,0,0-.53-4.3,24.92,24.92,0,0,1-.7-4.54v-.41a10.73,10.73,0,0,0,1-5.67.1.1,0,0,0-.19,0,17.64,17.64,0,0,1-.24,3.16,13.21,13.21,0,0,1-.59,2,34.82,34.82,0,0,1,.34-3.66c0-.11-.15-.12-.18,0A16.94,16.94,0,0,0,85.37,459.47Z" style="fill:#455a64"></path><path d="M76,456.33a17.29,17.29,0,0,0,1.08,1.86,8.13,8.13,0,0,0,.43,1.48,5.57,5.57,0,0,0,1.12,1.75,4.18,4.18,0,0,1,1.33,2,7.11,7.11,0,0,0-.84,3h.35a18,18,0,0,1,2.12-5.15c.76-1.51,1.39-3.48.64-5.11,0-.1-.18,0-.16.06.52,2.19-.4,4-1.42,5.9l-.48.9a2.6,2.6,0,0,0-.53-1A12.78,12.78,0,0,1,78.11,460c-.87-1.65-.73-3.44-1-5.22,0-.1-.15-.06-.16,0a10.76,10.76,0,0,0,0,2.89,12.24,12.24,0,0,0-.85-1.45A.09.09,0,0,0,76,456.33Z" style="fill:#455a64"></path><path d="M67,455.17a5.72,5.72,0,0,0,1.13,2.54c.44.58,1.12,1,1.55,1.53.37.76.79,1.5,1.2,2.24s1.26,1.84.87,2.78c0,.05,0,.08.06.08a3.2,3.2,0,0,0-.74,2h.21c.23-2.73,4.12-3.45,4.15-6.27a.12.12,0,0,0-.23,0c-.29,1.53-1.48,2.39-2.56,3.38a8.14,8.14,0,0,0-.64.67,2,2,0,0,0-.2-1.76c-.43-.89-1-1.74-1.42-2.61a17.84,17.84,0,0,1-1.24-2.84,10.8,10.8,0,0,1-.41-3.09.06.06,0,0,0-.11,0,8,8,0,0,0,.73,4.7c-.22-.21-.47-.41-.67-.63a9,9,0,0,1-1.47-2.74A.11.11,0,0,0,67,455.17Z" style="fill:#455a64"></path><path d="M59.14,463.38c.92.13,1.81.35,2.75.4a13.78,13.78,0,0,0,2.87-.14,13.45,13.45,0,0,1,3.5-.33,8.94,8.94,0,0,1-1-.53,6.29,6.29,0,0,1-2.58-3c0-.12.12-.17.19-.08a13.86,13.86,0,0,0,1.65,2A10.69,10.69,0,0,0,69,463.21a4.7,4.7,0,0,1,1.72,1.3c.12.16.7,1,.35,1.13,0,0-.05,0-.06,0l0,0s0-.05,0-.05-.62-1-.63-1a4.43,4.43,0,0,0-.87-.66c-.16-.09-.32-.18-.49-.26-1.58-.31-3.19.27-4.76.46a10.7,10.7,0,0,1-5.15-.47A.13.13,0,0,1,59.14,463.38Z" style="fill:#455a64"></path><path d="M79.69,465.53a5.91,5.91,0,0,1,1.9-1.49,4.36,4.36,0,0,0,2-2.39c0-.09.19-.09.18,0-.26,2.15-2.49,2.77-3.94,4C79.75,465.69,79.63,465.61,79.69,465.53Z" style="fill:#455a64"></path><path d="M89.34,464.17a6,6,0,0,1,1.77-2,6.62,6.62,0,0,0,1-1,6.76,6.76,0,0,0,.84-1.83.06.06,0,0,1,.12,0,5.34,5.34,0,0,1-1.39,2.72c-.74.74-1.55,1.36-2.25,2.14C89.4,464.26,89.32,464.22,89.34,464.17Z" style="fill:#455a64"></path><path d="M87.34,456a.29.29,0,0,0,.53-.07.13.13,0,0,1,0-.06h0a.32.32,0,0,0,0-.17.3.3,0,0,0-.21-.2C87.39,455.44,87.21,455.77,87.34,456Z" style="fill:#455a64"></path><path d="M60.54,462.57a.29.29,0,0,0,.53-.07s0,0,0-.06h0a.31.31,0,0,0,0-.17.28.28,0,0,0-.21-.2C60.59,462,60.41,462.33,60.54,462.57Z" style="fill:#455a64"></path><path d="M86.63,456.42s0,0,0,0h0a.23.23,0,0,1,0-.18l0,0a.14.14,0,0,1,.22.05c.08.16-.11.38-.25.24l0-.05h0Z" style="fill:#455a64"></path><path d="M70,455.12s0,0,0,0h0a.16.16,0,0,1,.15-.09h0a.14.14,0,0,1,.12.2c-.06.17-.34.19-.34,0a.13.13,0,0,1,0-.06h0Z" style="fill:#455a64"></path><path d="M86.55,455.4a.1.1,0,0,1,.14.05.06.06,0,0,1,0,.07.11.11,0,0,1-.21,0A.14.14,0,0,1,86.55,455.4Z" style="fill:#455a64"></path><path d="M80.67,452.22a.1.1,0,0,1,.14,0,0,0,0,0,1,0,.06.11.11,0,0,1-.21,0A.12.12,0,0,1,80.67,452.22Z" style="fill:#455a64"></path><path d="M69.44,454.16a.12.12,0,0,1,.07.14.07.07,0,0,1,0,.05.11.11,0,0,1-.18-.12A.13.13,0,0,1,69.44,454.16Z" style="fill:#455a64"></path><path d="M294.62,466.36H249.53a8.33,8.33,0,0,1-1.27-2.48c-.39-1.37,0-3.19,1.4-3.82.93-.41,1.92-.07,2.87-.05a.8.8,0,0,0,.77-.3.89.89,0,0,0,.07-.64,2.06,2.06,0,0,0-1-1.07.12.12,0,0,1,0-.18,2.32,2.32,0,0,1,2.91-.07,1.62,1.62,0,0,0,0-1.89c-.35-.61-.91-1.07-1.3-1.65a2.16,2.16,0,0,1-.44-1.56,2.46,2.46,0,0,1,.95-1.41c.78-.61,2.11-1.31,3-.57s.36,2.29,1,3.26a1.06,1.06,0,0,0,.77.55.84.84,0,0,0,.7-.46c.24-.33.42-.72.82-.86-.11-1-.37-2-.46-3-.14-1.44.18-3.31,1.69-3.93a2.25,2.25,0,0,1,1.85,0,1.83,1.83,0,0,1,1,1.64c0,.86-.25,1.7-.14,2.55.06.53.31,1.08.94,1a3.24,3.24,0,0,0,1.15-.63c.46-.32,1.26-.68,1.74-.2.29.28.25.72.5,1a1.3,1.3,0,0,0,1,.36c.75,0,1.48-.17,2.24-.11a4.93,4.93,0,0,1,2.05.61,3.34,3.34,0,0,1,1.38,1.5c.25.55.69,1.82,1.52,1.26a3.22,3.22,0,0,0,.75-1c.22-.36.43-.72.66-1.06a4.92,4.92,0,0,1,1.64-1.6,3.25,3.25,0,0,1,4.08.89,3.28,3.28,0,0,1,.64,2.14c-.05.89-.65,1.64-.69,2.52a1.22,1.22,0,0,0,.48,1.12c.46.27,1,0,1.51-.09s1.32-.05,1.53.53a.79.79,0,0,1-.16.75,4,4,0,0,0-.31.41c-.13.2-.1.29.09.42a4,4,0,0,0,1.95.3C293.13,460.9,294.45,465.31,294.62,466.36Z" style="fill:#455a64"></path><path d="M262.75,459c-.55,2.49-1.1,4.94-.45,7.36h-.52c-.19-.48-.38-1-.56-1.44-1.86-.87-3.86-.17-5.81-.41a6.35,6.35,0,0,1-4.13-2.16.08.08,0,1,1,.12-.12,8.92,8.92,0,0,0,2.73,1.56c-.21-.24-.41-.5-.63-.72s-.7-.62-1.05-.93c0,0,0-.05,0,0a7.72,7.72,0,0,1,1.1.88,6.24,6.24,0,0,1,.87.91,7.09,7.09,0,0,0,2,.28c1.54,0,3.26-.35,4.65.44l-.36-.88a27.35,27.35,0,0,0-1.91-3.48,23.63,23.63,0,0,1-2-3.42,14,14,0,0,1-.93-3.66c0-.06.09-.09.1,0a17.28,17.28,0,0,0,2.63,6c-.36-1.08-.65-2.18-1.1-3.23,0-.08.07-.14.11-.07a13.78,13.78,0,0,1,1.49,4.09l.24.37a25.09,25.09,0,0,1,2.11,4.17,17.42,17.42,0,0,1,.57-4.6,25.75,25.75,0,0,0,.75-4.85v-.44a11.55,11.55,0,0,1-1.09-6.05c0-.13.21-.14.21,0a18.15,18.15,0,0,0,.25,3.37,13.6,13.6,0,0,0,.63,2.18,36.89,36.89,0,0,0-.36-3.91c0-.11.16-.13.19,0A18,18,0,0,1,262.75,459Z" style="fill:#37474f"></path><path d="M272.77,455.64a17.2,17.2,0,0,1-1.16,2,8.21,8.21,0,0,1-.45,1.58,5.87,5.87,0,0,1-1.2,1.87,4.43,4.43,0,0,0-1.42,2.1,7.42,7.42,0,0,1,.89,3.18h-.37a18.89,18.89,0,0,0-2.27-5.5c-.81-1.62-1.48-3.72-.68-5.47.05-.1.2,0,.17.07-.55,2.34.44,4.3,1.52,6.31.17.31.35.63.51,1a2.87,2.87,0,0,1,.57-1.11,13.48,13.48,0,0,0,1.62-2.06c.93-1.76.78-3.67,1-5.57,0-.11.16-.06.17,0a11.42,11.42,0,0,1,0,3.09,10.86,10.86,0,0,1,.91-1.55A.09.09,0,0,1,272.77,455.64Z" style="fill:#37474f"></path><path d="M282.41,454.41a6.33,6.33,0,0,1-1.21,2.71c-.47.62-1.2,1-1.66,1.63-.39.82-.84,1.61-1.28,2.4s-1.35,2-.93,3c0,.05,0,.08-.06.08a3.41,3.41,0,0,1,.78,2.16h-.22c-.24-2.92-4.39-3.69-4.43-6.7,0-.14.22-.18.24,0,.31,1.64,1.59,2.56,2.74,3.62a9.28,9.28,0,0,1,.69.71,2.15,2.15,0,0,1,.21-1.87c.46-1,1-1.86,1.51-2.8a18.1,18.1,0,0,0,1.33-3,11.52,11.52,0,0,0,.44-3.3c0-.07.1-.08.11,0a8.51,8.51,0,0,1-.77,5c.24-.23.49-.44.71-.67a9.29,9.29,0,0,0,1.58-2.94A.12.12,0,0,1,282.41,454.41Z" style="fill:#37474f"></path><path d="M290.78,463.18c-1,.14-1.95.37-2.95.43a15,15,0,0,1-3.06-.16,14.91,14.91,0,0,0-3.74-.35,9.42,9.42,0,0,0,1.09-.57,6.78,6.78,0,0,0,2.76-3.2c.05-.13-.14-.18-.21-.08a14.49,14.49,0,0,1-1.76,2.15,11.24,11.24,0,0,1-2.64,1.59,5.16,5.16,0,0,0-1.84,1.39c-.13.17-.75,1-.37,1.21,0,0,.05,0,.06,0l0,0a0,0,0,0,0,0-.06,6.82,6.82,0,0,1,.67-1.05,5,5,0,0,1,.93-.71c.17-.1.35-.19.53-.28,1.68-.32,3.41.29,5.09.49a11.41,11.41,0,0,0,5.5-.5A.14.14,0,0,0,290.78,463.18Z" style="fill:#37474f"></path><path d="M268.82,465.47a6.36,6.36,0,0,0-2-1.59,4.66,4.66,0,0,1-2.13-2.55c0-.1-.21-.1-.19,0,.28,2.3,2.65,3,4.21,4.23C268.75,465.64,268.88,465.56,268.82,465.47Z" style="fill:#37474f"></path><path d="M258.5,464a6.13,6.13,0,0,0-1.89-2.1,7.62,7.62,0,0,1-1.08-1.12,7.32,7.32,0,0,1-.89-1.95.07.07,0,0,0-.13,0,5.72,5.72,0,0,0,1.48,2.9c.79.79,1.66,1.45,2.41,2.29C258.44,464.12,258.53,464.07,258.5,464Z" style="fill:#37474f"></path><path d="M260.64,455.29a.3.3,0,0,1-.56-.07.2.2,0,0,1,0-.07h0a.22.22,0,0,1,0-.18.29.29,0,0,1,.22-.21C260.59,454.69,260.78,455,260.64,455.29Z" style="fill:#37474f"></path><path d="M289.27,462.31a.3.3,0,0,1-.56-.08s0,0,0-.06h0a.35.35,0,0,1,0-.18.32.32,0,0,1,.23-.22A.36.36,0,0,1,289.27,462.31Z" style="fill:#37474f"></path><path d="M261.4,455.74a0,0,0,0,0,0,0h0a.18.18,0,0,0-.05-.18l0,0a.15.15,0,0,0-.23.06c-.08.17.12.4.27.25l0-.05h0Z" style="fill:#37474f"></path><path d="M279.18,454.35s0,0,0,0h0a.19.19,0,0,0-.16-.09H279a.15.15,0,0,0-.13.2c.07.18.37.2.37,0a.15.15,0,0,0,0-.07h0Z" style="fill:#37474f"></path><path d="M261.49,454.65a.13.13,0,0,0-.16.05.09.09,0,0,0,0,.07.12.12,0,0,0,.23,0A.14.14,0,0,0,261.49,454.65Z" style="fill:#37474f"></path><path d="M267.77,451.25a.13.13,0,0,0-.16.05.17.17,0,0,0,0,.07.12.12,0,0,0,.23,0A.13.13,0,0,0,267.77,451.25Z" style="fill:#37474f"></path><path d="M279.76,453.32a.13.13,0,0,0-.07.15.1.1,0,0,0,.05.06.11.11,0,0,0,.18-.13A.14.14,0,0,0,279.76,453.32Z" style="fill:#37474f"></path></g><g id="freepik--House--inject-120"><rect x="132.07" y="244.06" width="238.59" height="109.54" style="fill:#C4834C"></rect><rect x="132.07" y="244.06" width="238.59" height="109.54" style="fill:#fff;opacity:0.6000000000000001"></rect><polygon points="370.65 244.06 370.65 353.72 363.77 353.72 361.49 255.42 132.07 257.66 132.07 244.18 357.18 244.18 357.18 244.06 370.65 244.06" style="fill:#C4834C;opacity:0.6000000000000001"></polygon><rect x="132.07" y="255.01" width="238.59" height="0.25" style="fill:#C4834C"></rect><rect x="132.07" y="265.96" width="238.59" height="0.25" style="fill:#C4834C"></rect><rect x="132.07" y="276.92" width="238.59" height="0.25" style="fill:#C4834C"></rect><rect x="132.07" y="287.87" width="238.59" height="0.25" style="fill:#C4834C"></rect><rect x="132.07" y="298.82" width="238.59" height="0.25" style="fill:#C4834C"></rect><rect x="132.07" y="309.78" width="238.59" height="0.25" style="fill:#C4834C"></rect><rect x="132.07" y="320.73" width="238.59" height="0.25" style="fill:#C4834C"></rect><rect x="132.07" y="331.69" width="238.59" height="0.25" style="fill:#C4834C"></rect><rect x="132.07" y="342.64" width="238.59" height="0.25" style="fill:#C4834C"></rect><rect x="116.16" y="244.06" width="262.32" height="7.8" style="fill:#fff"></rect><rect x="116.16" y="249.23" width="262.32" height="2.63" style="fill:#ebebeb"></rect><path d="M378.48,251.86l-262.32.24h-.24v-8.29h.25l262.32.25h0Zm0,0v-7.8h0l-262.32.24.25-.25v7.8l-.24-.24Z" style="fill:#a6a6a6"></path><rect x="319.78" y="298.83" width="101.74" height="7.8" transform="translate(67.92 673.39) rotate(-90)" style="fill:#fff"></rect><rect x="322.37" y="301.42" width="101.74" height="2.63" transform="translate(70.51 675.97) rotate(-90)" style="fill:#ebebeb"></rect><rect x="81.2" y="298.83" width="101.74" height="7.8" transform="translate(-170.66 434.8) rotate(-90)" style="fill:#fff"></rect><rect x="83.78" y="301.42" width="101.74" height="2.63" transform="translate(-168.08 437.38) rotate(-90)" style="fill:#ebebeb"></rect><path d="M136,353.6l-7.8.07h-.07v-.07c-.1-8.48-.07-17-.11-25.43l-.06-25.44L128,277.3c0-8.48.08-17,.16-25.44q.14,12.72.16,25.44l.08,25.43,0,25.44c-.05,8.47,0,16.95-.12,25.43l-.07-.07Z" style="fill:#a6a6a6"></path><rect x="257.06" y="262.45" width="101.14" height="82.56" style="fill:#fff"></rect><rect x="263.02" y="268.41" width="89.22" height="70.64" style="fill:#37474f"></rect><polygon points="352.24 301.35 352.24 316.56 329.75 339.05 314.54 339.05 352.24 301.35" style="fill:#455a64"></polygon><polygon points="333.78 268.42 263.14 339.05 263.02 339.05 263.02 323.96 318.58 268.42 333.78 268.42" style="fill:#455a64"></polygon><polygon points="269.61 268.42 263.02 275 263.02 273.19 267.79 268.42 269.61 268.42" style="fill:#455a64"></polygon><polygon points="352.24 321.98 352.24 323.78 336.97 339.05 335.17 339.05 352.24 321.98" style="fill:#455a64"></polygon><polygon points="313.77 268.42 263.02 319.18 263.02 317.36 311.95 268.42 313.77 268.42" style="fill:#455a64"></polygon><polygon points="352.24 280.35 352.24 285.69 298.88 339.05 293.53 339.05 352.24 280.35" style="fill:#455a64"></polygon><polygon points="291.25 268.42 263.02 296.64 263.02 291.29 285.89 268.42 291.25 268.42" style="fill:#455a64"></polygon><rect x="288.47" y="268.41" width="5.96" height="70.64" style="fill:#fff"></rect><rect x="320.84" y="268.41" width="5.96" height="70.64" style="fill:#fff"></rect><rect x="144.53" y="262.45" width="101.14" height="82.56" style="fill:#fff"></rect><rect x="150.49" y="268.41" width="89.22" height="70.64" style="fill:#37474f"></rect><polygon points="239.71 301.35 239.71 316.56 217.22 339.05 202.01 339.05 239.71 301.35" style="fill:#455a64"></polygon><polygon points="221.25 268.42 150.62 339.05 150.49 339.05 150.49 323.96 206.05 268.42 221.25 268.42" style="fill:#455a64"></polygon><polygon points="157.08 268.42 150.49 275 150.49 273.19 155.26 268.42 157.08 268.42" style="fill:#455a64"></polygon><polygon points="239.71 321.98 239.71 323.78 224.44 339.05 222.64 339.05 239.71 321.98" style="fill:#455a64"></polygon><polygon points="201.24 268.42 150.49 319.18 150.49 317.36 199.43 268.42 201.24 268.42" style="fill:#455a64"></polygon><polygon points="239.71 280.35 239.71 285.69 186.35 339.05 181 339.05 239.71 280.35" style="fill:#455a64"></polygon><polygon points="178.72 268.42 150.49 296.64 150.49 291.29 173.37 268.42 178.72 268.42" style="fill:#455a64"></polygon><rect x="175.94" y="268.41" width="5.96" height="70.64" style="fill:#fff"></rect><rect x="208.3" y="268.41" width="5.96" height="70.64" style="fill:#fff"></rect><polygon points="381.1 244.06 120.21 244.06 126.8 143.37 374.51 143.37 381.1 244.06" style="fill:#C4834C"></polygon><polygon points="381.1 244.06 120.21 244.06 126.8 143.37 374.51 143.37 381.1 244.06" style="opacity:0.4"></polygon><polygon points="352.9 143.37 344.1 244.06 381.1 244.06 374.51 143.37 352.9 143.37" style="opacity:0.1"></polygon><g style="opacity:0.2"><rect x="125.49" y="163.14" width="123.44" height="0.75"></rect><rect x="258.01" y="163.14" width="8.41" height="0.75"></rect><rect x="274.37" y="163.14" width="101.46" height="0.75"></rect><rect x="124.17" y="183.27" width="205.71" height="0.75"></rect><rect x="338.99" y="183.27" width="38.16" height="0.75"></rect><rect x="122.85" y="203.42" width="14.01" height="0.75"></rect><rect x="147.55" y="203.42" width="131.39" height="0.75"></rect><rect x="287.79" y="203.42" width="90.68" height="0.75"></rect><rect x="121.53" y="223.55" width="173.81" height="0.75"></rect><rect x="303.06" y="223.55" width="7.8" height="0.75"></rect><rect x="318.81" y="223.55" width="60.97" height="0.75"></rect></g><polygon points="633.84 244.06 354.74 244.06 365.28 82.96 623.3 82.96 633.84 244.06" style="fill:#C4834C"></polygon><polygon points="633.84 244.06 354.74 244.06 365.28 82.96 623.3 82.96 633.84 244.06" style="opacity:0.4"></polygon><g style="opacity:0.2"><rect x="363.96" y="102.72" width="74.97" height="0.75"></rect><rect x="451.24" y="102.72" width="173.38" height="0.75"></rect><rect x="362.64" y="122.86" width="175.47" height="0.75"></rect><rect x="551.79" y="122.86" width="12.88" height="0.75"></rect><rect x="572.59" y="122.86" width="53.35" height="0.75"></rect><rect x="361.33" y="143" width="265.93" height="0.75"></rect><rect x="360.01" y="163.14" width="21.09" height="0.75"></rect><rect x="391.17" y="163.14" width="237.4" height="0.75"></rect><rect x="358.69" y="183.27" width="271.2" height="0.75"></rect><rect x="357.37" y="203.42" width="241.89" height="0.75"></rect><rect x="610.45" y="203.42" width="20.75" height="0.75"></rect><rect x="356.05" y="223.55" width="276.47" height="0.75"></rect></g><polygon points="370.66 244.06 617.92 244.06 494.29 121.06 370.66 244.06" style="fill:#C4834C"></polygon><polygon points="370.66 244.06 617.92 244.06 494.29 121.06 370.66 244.06" style="fill:#fff;opacity:0.6000000000000001"></polygon><rect x="483.89" y="131.27" width="20.79" height="0.25" style="fill:#C4834C"></rect><rect x="472.88" y="142.23" width="42.8" height="0.25" style="fill:#C4834C"></rect><rect x="461.88" y="153.18" width="64.81" height="0.25" style="fill:#C4834C"></rect><rect x="450.86" y="164.13" width="86.85" height="0.25" style="fill:#C4834C"></rect><rect x="439.85" y="175.09" width="108.86" height="0.25" style="fill:#C4834C"></rect><rect x="428.85" y="186.04" width="130.87" height="0.25" style="fill:#C4834C"></rect><rect x="417.84" y="196.99" width="152.88" height="0.25" style="fill:#C4834C"></rect><rect x="406.83" y="207.95" width="174.92" height="0.25" style="fill:#C4834C"></rect><rect x="395.82" y="218.9" width="196.93" height="0.25" style="fill:#C4834C"></rect><rect x="384.81" y="229.85" width="218.94" height="0.25" style="fill:#C4834C"></rect><rect x="373.81" y="240.81" width="240.95" height="0.25" style="fill:#C4834C"></rect><polygon points="370.66 244.06 388.07 244.06 497.4 136.6 605.78 244.06 617.92 244.06 494.29 121.06 370.66 244.06" style="fill:#C4834C;opacity:0.6000000000000001"></polygon><circle cx="494.29" cy="200.05" r="27.81" transform="translate(218.28 656.3) rotate(-80.86)" style="fill:#fff"></circle><circle cx="494.29" cy="200.05" r="21.69" transform="translate(215.85 654.82) rotate(-80.56)" style="fill:#37474f"></circle><path d="M515.92,198.51l-23.17,23.16a21.28,21.28,0,0,1-11.16-4l30.28-30.26A21.42,21.42,0,0,1,515.92,198.51Z" style="fill:#455a64"></path><path d="M509.66,184.75,479,215.43c-.31-.3-.61-.62-.88-.94l30.62-30.62C509.05,184.16,509.37,184.46,509.66,184.75Z" style="fill:#455a64"></path><path d="M493.51,178.39l-20.89,20.88a21.37,21.37,0,0,1,1.27-6.62l13-13A21.15,21.15,0,0,1,493.51,178.39Z" style="fill:#455a64"></path><path d="M516,200.05c0,.44,0,.89-.05,1.33a14.64,14.64,0,0,1-.16,1.65h-43a12.64,12.64,0,0,1-.16-1.65c0-.44,0-.89,0-1.33a20.91,20.91,0,0,1,.21-3h43A20.91,20.91,0,0,1,516,200.05Z" style="fill:#fff"></path><path d="M515.93,201.38a14.64,14.64,0,0,1-.16,1.65h-43a12.64,12.64,0,0,1-.16-1.65Z" style="fill:#ebebeb"></path><path d="M497.27,178.58v42.94a12.81,12.81,0,0,1-1.65.16,11.8,11.8,0,0,1-1.34.06,20.76,20.76,0,0,1-3-.22V178.58a20.76,20.76,0,0,1,3-.22c.46,0,.9,0,1.34.06A12.81,12.81,0,0,1,497.27,178.58Z" style="fill:#fff"></path><path d="M497.27,201.38v20.14a12.81,12.81,0,0,1-1.65.16v-20.3Z" style="fill:#ebebeb"></path><path d="M497.27,178.58v18.49h-1.65V178.42A12.81,12.81,0,0,1,497.27,178.58Z" style="fill:#ebebeb"></path><polygon points="618.87 250.95 494.29 127 369.72 250.95 363.77 244.97 494.29 115.11 624.82 244.97 618.87 250.95" style="fill:#fff"></polygon><polygon points="369.72 250.95 366.74 247.96 493.4 121.94 621.33 248.48 618.87 250.95 494.29 127 369.72 250.95" style="fill:#ebebeb"></polygon><rect x="580.15" y="66.09" width="32.61" height="43.81" style="fill:#C4834C"></rect><rect x="580.15" y="66.09" width="32.61" height="43.81" style="fill:#fff;opacity:0.6000000000000001"></rect><rect x="587.73" y="53.76" width="18.79" height="12.33" style="fill:#C4834C"></rect><rect x="587.73" y="53.76" width="18.79" height="12.33" style="fill:#fff;opacity:0.6000000000000001"></rect><rect x="580.16" y="53.76" width="7.57" height="12.33" style="fill:#C4834C"></rect><rect x="580.16" y="53.76" width="7.57" height="12.33" style="fill:#fff;opacity:0.30000000000000004"></rect><rect x="580.16" y="76.92" width="32.6" height="0.25" style="fill:#C4834C"></rect><rect x="580.16" y="87.88" width="32.6" height="0.25" style="fill:#C4834C"></rect><rect x="580.16" y="98.83" width="32.6" height="0.25" style="fill:#C4834C"></rect><polygon points="580.15 66.09 572.59 66.09 572.59 102.8 580.15 109.91 580.15 66.09" style="fill:#C4834C"></polygon><polygon points="580.15 66.09 572.59 66.09 572.59 102.8 580.15 109.91 580.15 66.09" style="fill:#fff;opacity:0.30000000000000004"></polygon><rect x="572.59" y="76.92" width="7.56" height="0.25" style="fill:#C4834C"></rect><rect x="572.59" y="87.88" width="7.56" height="0.25" style="fill:#C4834C"></rect><rect x="572.59" y="98.83" width="7.56" height="0.25" style="fill:#C4834C"></rect><rect x="476" y="367.72" width="135.55" height="89.42" style="fill:#C4834C"></rect><rect x="476" y="367.72" width="135.55" height="89.42" style="opacity:0.4"></rect><rect x="447.42" y="408.54" width="89.42" height="7.8" transform="translate(79.69 904.56) rotate(-90)" style="fill:#C4834C"></rect><rect x="447.42" y="408.54" width="89.42" height="7.8" transform="translate(79.69 904.56) rotate(-90)" style="opacity:0.30000000000000004"></rect><rect x="450" y="411.12" width="89.42" height="2.63" transform="translate(82.28 907.15) rotate(-90)" style="opacity:0.30000000000000004"></rect><rect x="546.81" y="408.54" width="89.42" height="7.8" transform="translate(179.09 1003.95) rotate(-90)" style="fill:#C4834C"></rect><rect x="546.81" y="408.54" width="89.42" height="7.8" transform="translate(179.09 1003.95) rotate(-90)" style="opacity:0.30000000000000004"></rect><rect x="549.39" y="411.12" width="89.42" height="2.63" transform="translate(181.67 1006.54) rotate(-90)" style="opacity:0.30000000000000004"></rect><rect x="476" y="457.15" width="135.55" height="6.11" style="fill:#C4834C"></rect><rect x="476" y="457.15" width="135.55" height="6.11" style="fill:#fff;opacity:0.30000000000000004"></rect><rect x="476" y="463.26" width="135.55" height="3.05" style="fill:#C4834C"></rect><rect x="476" y="463.26" width="135.55" height="3.05" style="opacity:0.4"></rect><polygon points="591.52 466.31 496.03 466.31 506.57 463.26 580.98 463.26 591.52 466.31" style="fill:#C4834C"></polygon><polygon points="591.52 466.31 496.03 466.31 506.57 463.26 580.98 463.26 591.52 466.31" style="fill:#fff;opacity:0.30000000000000004"></polygon><rect x="370.66" y="244.06" width="247.27" height="109.54" style="fill:#C4834C"></rect><rect x="370.66" y="244.06" width="247.27" height="109.54" style="fill:#fff;opacity:0.6000000000000001"></rect><polygon points="370.66 244.06 617.93 244.06 617.93 255.09 370.66 257.55 370.66 244.06" style="fill:#C4834C;opacity:0.6000000000000001"></polygon><rect x="370.66" y="254.89" width="247.27" height="0.25" style="fill:#C4834C"></rect><rect x="370.66" y="265.85" width="247.27" height="0.25" style="fill:#C4834C"></rect><rect x="370.66" y="276.8" width="247.27" height="0.25" style="fill:#C4834C"></rect><rect x="370.66" y="287.75" width="247.27" height="0.25" style="fill:#C4834C"></rect><rect x="370.66" y="298.71" width="247.27" height="0.25" style="fill:#C4834C"></rect><rect x="370.66" y="309.66" width="247.27" height="0.25" style="fill:#C4834C"></rect><rect x="370.66" y="320.62" width="247.27" height="0.25" style="fill:#C4834C"></rect><rect x="370.66" y="331.57" width="247.27" height="0.25" style="fill:#C4834C"></rect><rect x="370.66" y="342.52" width="247.27" height="0.25" style="fill:#C4834C"></rect><rect x="385.38" y="262.45" width="58.19" height="91.15" style="fill:#fff"></rect><rect x="391.17" y="268.41" width="46.62" height="85.19" style="fill:#C4834C"></rect><rect x="396.84" y="273.9" width="14.96" height="68.01" style="fill:#37474f"></rect><rect x="417.17" y="273.9" width="14.96" height="68.01" style="fill:#37474f"></rect><polygon points="396.83 327.67 411.79 312.71 411.79 327.92 397.79 341.92 396.83 341.92 396.83 327.67" style="fill:#455a64"></polygon><polygon points="432.13 292.38 432.13 307.58 417.17 322.54 417.17 307.34 432.13 292.38" style="fill:#455a64"></polygon><polygon points="401.63 273.91 396.83 278.71 396.83 276.89 399.82 273.91 401.63 273.91" style="fill:#455a64"></polygon><polygon points="396.83 321.05 411.79 306.09 411.79 307.91 396.83 322.87 396.83 321.05" style="fill:#455a64"></polygon><polygon points="432.13 285.76 432.13 287.57 417.17 302.53 417.17 300.72 432.13 285.76" style="fill:#455a64"></polygon><polygon points="432.13 337.96 432.13 341.92 428.18 341.92 432.13 337.96" style="fill:#455a64"></polygon><polygon points="396.83 294.99 411.79 280.03 411.79 285.38 396.83 300.34 396.83 294.99" style="fill:#455a64"></polygon><polygon points="423.26 273.91 417.17 280 417.17 274.66 417.92 273.91 423.26 273.91" style="fill:#455a64"></polygon><rect x="481" y="262.45" width="101.14" height="82.56" style="fill:#fff"></rect><rect x="486.96" y="268.41" width="89.22" height="70.64" style="fill:#37474f"></rect><polygon points="519.85 268.42 486.97 301.3 486.97 286.08 504.65 268.42 519.85 268.42" style="fill:#455a64"></polygon><polygon points="575.8 268.42 505.17 339.05 489.96 339.05 560.59 268.42 575.8 268.42" style="fill:#455a64"></polygon><polygon points="535.05 268.42 486.97 316.5 486.97 314.7 533.24 268.42 535.05 268.42" style="fill:#455a64"></polygon><polygon points="576.19 327.53 576.19 329.34 566.48 339.05 564.66 339.05 576.19 327.53" style="fill:#455a64"></polygon><polygon points="497.4 268.42 486.97 278.85 486.97 273.51 492.06 268.42 497.4 268.42" style="fill:#455a64"></polygon><polygon points="576.19 301.44 576.19 306.8 543.94 339.05 538.58 339.05 576.19 301.44" style="fill:#455a64"></polygon><rect x="512.41" y="268.41" width="5.96" height="70.64" style="fill:#fff"></rect><rect x="544.78" y="268.41" width="5.96" height="70.64" style="fill:#fff"></rect><rect x="354.74" y="244.06" width="279.11" height="7.8" style="fill:#fff"></rect><rect x="354.74" y="249.23" width="279.11" height="2.63" style="fill:#ebebeb"></rect><polygon points="354.74 244.06 633.84 243.82 634.09 243.82 634.09 244.06 634.09 251.86 634.09 252.11 633.84 252.11 354.74 251.86 633.84 251.61 633.59 251.86 633.6 244.06 633.84 244.31 354.74 244.06" style="fill:#a6a6a6"></polygon><rect x="202.07" y="409.96" width="98.59" height="14.12" transform="translate(668.38 165.65) rotate(90)" style="fill:#fff"></rect><rect x="196.32" y="415.7" width="98.59" height="2.63" transform="translate(662.63 171.4) rotate(90)" style="fill:#ebebeb"></rect><path d="M244.3,466.31l-.22-98.59v-.23h.23l14.13,0h.25v.25l-.18,98.59v.06h-.06Zm0,0,14.13-.06-.07.06-.18-98.59.25.25-14.13,0,.23-.23Z" style="fill:#a6a6a6"></path><rect x="92.11" y="409.96" width="98.59" height="14.12" transform="translate(558.42 275.61) rotate(90)" style="fill:#fff"></rect><rect x="86.36" y="415.7" width="98.59" height="2.63" transform="translate(552.67 281.36) rotate(90)" style="fill:#ebebeb"></rect><path d="M134.34,466.31l-.23-98.59v-.23h.23l14.12,0h.25v.25l-.18,98.59v.06h-.07Zm0,0,14.12-.06-.06.06-.18-98.59.24.25-14.12,0,.23-.23Z" style="fill:#a6a6a6"></path><rect x="569.32" y="409.96" width="98.59" height="14.12" transform="translate(1035.63 -201.59) rotate(90)" style="fill:#fff"></rect><rect x="563.57" y="415.7" width="98.59" height="2.63" transform="translate(1029.88 -195.85) rotate(90)" style="fill:#ebebeb"></rect><path d="M625.67,367.72c.08,8.22.15,16.43.16,24.65L625.9,417c.05,8.21,0,16.43,0,24.64l-.08,24.65v.12h-.12l-14.12-.12,14.12-.12-.12.12-.08-24.65c0-8.21-.08-16.43,0-24.64l.08-24.65C625.52,384.15,625.59,375.94,625.67,367.72Z" style="fill:#a6a6a6"></path><rect x="419.64" y="409.96" width="98.59" height="14.12" transform="translate(885.95 -51.92) rotate(90)" style="fill:#fff"></rect><rect x="413.9" y="415.7" width="98.59" height="2.63" transform="translate(880.21 -46.17) rotate(90)" style="fill:#ebebeb"></rect><path d="M461.88,367.72c.07,8.22.15,16.43.15,24.65l.08,24.65c0,8.21,0,16.43,0,24.64L462,466.31l-.12-.12,14.12.12-14.12.12h-.13v-.12l-.07-24.65c0-8.21-.08-16.43,0-24.64l.07-24.65C461.73,384.15,461.8,375.94,461.88,367.72Z" style="fill:#a6a6a6"></path><rect x="312.03" y="409.96" width="98.59" height="14.12" transform="translate(778.34 55.69) rotate(90)" style="fill:#fff"></rect><rect x="306.28" y="415.7" width="98.59" height="2.63" transform="translate(772.6 61.44) rotate(90)" style="fill:#ebebeb"></rect><path d="M354.26,466.31,354,367.72v-.23h.22l14.13,0h.25v.25l-.19,98.59v.06h-.06Zm0,0,14.13-.06-.07.06-.18-98.59.25.25-14.13,0,.23-.23Z" style="fill:#a6a6a6"></path><polygon points="134.34 367.72 148.46 367.72 148.46 376.95 134.34 377.06 134.34 367.72" style="fill:#ebebeb"></polygon><polygon points="244.3 367.72 258.43 367.72 258.43 376.09 244.3 376.2 244.3 367.72" style="fill:#ebebeb"></polygon><polygon points="354.26 367.72 368.39 367.72 368.39 375.23 354.26 375.34 354.26 367.72" style="fill:#ebebeb"></polygon><polygon points="461.88 367.72 476 367.72 476 374.39 461.88 374.5 461.88 367.72" style="fill:#ebebeb"></polygon><polygon points="625.67 367.72 625.67 373.21 611.55 373.32 611.55 367.72 625.67 367.72" style="fill:#ebebeb"></polygon><rect x="135.97" y="340.06" width="230.79" height="9.9" style="fill:#fff"></rect><rect x="135.97" y="347.34" width="230.79" height="2.63" style="fill:#ebebeb"></rect><rect x="135.97" y="326.86" width="230.79" height="9.9" style="fill:#fff"></rect><rect x="135.97" y="334.13" width="230.79" height="2.63" style="fill:#ebebeb"></rect><rect x="135.97" y="313.66" width="230.79" height="9.9" style="fill:#fff"></rect><rect x="135.97" y="320.93" width="230.79" height="2.63" style="fill:#ebebeb"></rect><rect x="368.39" y="390.4" width="93.42" height="9.9" style="fill:#fff"></rect><rect x="368.39" y="397.67" width="93.42" height="2.63" style="fill:#ebebeb"></rect><path d="M461.81,400.3l-93.42.24h-.24V390.15h.25l46.71.07,46.71.13h.05v0Zm0,0-.05-9.9.05,0-46.71.13-46.71.08.25-.25,0,9.9-.23-.23Z" style="fill:#a6a6a6"></path><rect x="368.39" y="377.2" width="93.42" height="9.9" style="fill:#fff"></rect><rect x="368.39" y="384.47" width="93.42" height="2.63" style="fill:#ebebeb"></rect><rect x="368.39" y="363.99" width="93.42" height="9.9" style="fill:#fff"></rect><rect x="368.39" y="371.27" width="93.42" height="2.63" style="fill:#ebebeb"></rect><path d="M461.81,373.9l-93.42.23h-.24V363.74h.25l46.71.07,46.71.13h.05v0Zm0,0-.05-9.91.05.05-46.71.13-46.71.07.25-.25,0,9.91-.23-.23Z" style="fill:#a6a6a6"></path><rect x="368.39" y="377.2" width="93.42" height="9.9" style="fill:#fff"></rect><rect x="368.39" y="384.47" width="93.42" height="2.63" style="fill:#ebebeb"></rect><path d="M461.81,387.1l-93.42.23h-.24V377h.25l46.71.07,46.71.13h.05v.05Zm0,0-.05-9.9.05,0-46.71.13-46.71.08.25-.25,0,9.9-.23-.23Z" style="fill:#a6a6a6"></path><rect x="368.39" y="403.6" width="93.42" height="9.9" style="fill:#fff"></rect><rect x="368.39" y="410.88" width="93.42" height="2.63" style="fill:#ebebeb"></rect><path d="M461.81,413.5l-93.42.24h-.24V403.35h.25l46.71.08,46.71.12h.05v.05Zm0,0-.05-9.9.05,0-46.71.12-46.71.08.25-.25,0,9.9-.23-.23Z" style="fill:#a6a6a6"></path><rect x="368.39" y="416.8" width="93.42" height="9.9" style="fill:#fff"></rect><rect x="368.39" y="424.08" width="93.42" height="2.63" style="fill:#ebebeb"></rect><path d="M461.81,426.71l-93.42.23h-.24V416.55h.25l46.71.08,46.71.12h.05v.05Zm0,0-.05-9.91.05.05L415.1,417l-46.71.07.25-.25,0,9.91-.23-.24Z" style="fill:#a6a6a6"></path><rect x="368.39" y="430" width="93.42" height="9.9" style="fill:#fff"></rect><rect x="368.39" y="437.28" width="93.42" height="2.63" style="fill:#ebebeb"></rect><path d="M461.81,439.91l-93.42.23h-.24V429.75h.25l46.71.08,46.71.13h.05v0Zm0,0-.05-9.91.05.05-46.71.13-46.71.07.25-.25,0,9.91-.23-.24Z" style="fill:#a6a6a6"></path><rect x="368.39" y="443.2" width="93.42" height="9.9" style="fill:#fff"></rect><rect x="368.39" y="450.48" width="93.42" height="2.63" style="fill:#ebebeb"></rect><path d="M461.81,453.11l-93.42.23h-.24V443h.25l46.71.08,46.71.13h.05v0Zm0,0-.05-9.91.05.05-46.71.13-46.71.07.25-.25,0,9.91-.23-.23Z" style="fill:#a6a6a6"></path><rect x="368.39" y="456.41" width="93.42" height="9.9" style="fill:#fff"></rect><rect x="368.39" y="463.68" width="93.42" height="2.63" style="fill:#ebebeb"></rect><path d="M461.81,466.31l-93.42.23h-.24V456.16h.25l46.71.07,46.71.13h.05v.05Zm0,0-.05-9.9.05,0-46.71.13-46.71.07.25-.24,0,9.9-.23-.23Z" style="fill:#a6a6a6"></path><rect x="462.2" y="340.06" width="151.83" height="9.9" style="fill:#fff"></rect><rect x="462.2" y="347.34" width="151.83" height="2.63" style="fill:#ebebeb"></rect><rect x="462.2" y="326.86" width="151.83" height="9.9" style="fill:#fff"></rect><rect x="462.2" y="334.13" width="151.83" height="2.63" style="fill:#ebebeb"></rect><rect x="462.2" y="313.66" width="151.83" height="9.9" style="fill:#fff"></rect><rect x="462.2" y="320.93" width="151.83" height="2.63" style="fill:#ebebeb"></rect><rect x="319.79" y="298.83" width="101.74" height="7.8" transform="translate(67.93 673.39) rotate(-90)" style="fill:#fff"></rect><rect x="322.37" y="301.42" width="101.74" height="2.63" transform="translate(70.51 675.97) rotate(-90)" style="fill:#ebebeb"></rect><rect x="407.43" y="298.83" width="101.74" height="7.8" transform="translate(155.57 761.03) rotate(-90)" style="fill:#fff"></rect><rect x="410.02" y="301.42" width="101.74" height="2.63" transform="translate(158.16 763.62) rotate(-90)" style="fill:#ebebeb"></rect><rect x="567.06" y="298.83" width="101.74" height="7.8" transform="translate(315.2 920.66) rotate(-90)" style="fill:#fff"></rect><rect x="569.64" y="301.42" width="101.74" height="2.63" transform="translate(317.78 923.24) rotate(-90)" style="fill:#ebebeb"></rect><path d="M614,251.86l7.8-.06h.06v.06c.09,8.48.08,17,.11,25.44l.08,25.43L622,328.17c0,8.47,0,16.95-.12,25.43v.07h-.06l-7.8-.07,7.8-.06-.07.06c-.09-8.48-.07-17-.11-25.43l-.07-25.44.07-25.43c0-8.48,0-17,.11-25.44l.07.07Z" style="fill:#a6a6a6"></path><rect x="476" y="367.72" width="135.55" height="27.63" style="fill:#C4834C"></rect><rect x="476" y="371.55" width="135.55" height="0.25" style="opacity:0.2"></rect><rect x="476" y="375.5" width="135.55" height="0.25" style="opacity:0.2"></rect><rect x="476" y="379.46" width="135.55" height="0.25" style="opacity:0.2"></rect><rect x="476" y="383.41" width="135.55" height="0.25" style="opacity:0.2"></rect><rect x="476" y="387.37" width="135.55" height="0.25" style="opacity:0.2"></rect><rect x="476" y="391.32" width="135.55" height="0.25" style="opacity:0.2"></rect><rect x="116.16" y="353.6" width="517.68" height="14.12" style="fill:#fff"></rect><rect x="116.16" y="365.09" width="517.68" height="2.63" style="fill:#ebebeb"></rect><path d="M634.09,368H115.91V353.35H634.09Zm-517.68-.5H633.59V353.85H116.41Z" style="fill:#a6a6a6"></path></g><g id="freepik--Car--inject-120"><path d="M509.52,414.9a8.36,8.36,0,0,1-2.17-1.23c-.28-.45-1.51-2.31-1.94-2.38-1.62-.28-6-.11-7.52.69-.81.43.05,3.66.79,4.42s6.07.91,6.93.74a3,3,0,0,0,1.5-1.06l2.11.59Z" style="fill:#C4834C"></path><path d="M510,412.52a5.82,5.82,0,0,0-1.78.51,8.31,8.31,0,0,0-1.37,3.54,3.39,3.39,0,0,0,.95,1.69Z" style="fill:#C4834C"></path><path d="M510,412.52a5.82,5.82,0,0,0-1.78.51,8.31,8.31,0,0,0-1.37,3.54,3.39,3.39,0,0,0,.95,1.69Z" style="opacity:0.1"></path><path d="M580,414.9a8.52,8.52,0,0,0,2.17-1.23c.28-.45,1.5-2.31,1.93-2.38,1.62-.28,6-.11,7.52.69.81.43,0,3.66-.79,4.42s-6.07.91-6.93.74a2.9,2.9,0,0,1-1.49-1.06l-2.12.59Z" style="fill:#C4834C"></path><path d="M579.51,412.52a5.75,5.75,0,0,1,1.78.51,8.31,8.31,0,0,1,1.37,3.54,3.39,3.39,0,0,1-.95,1.69Z" style="fill:#C4834C"></path><path d="M579.51,412.52a5.75,5.75,0,0,1,1.78.51,8.31,8.31,0,0,1,1.37,3.54,3.39,3.39,0,0,1-.95,1.69Z" style="opacity:0.1"></path><rect x="498.63" y="434.21" width="13.57" height="28.3" rx="6.3" style="fill:#263238"></rect><path d="M503.11,426s-3.14,1.6-3.88,3.08,0,16.78,0,17.95a64.83,64.83,0,0,0,2.71,9.62c.43.8,6.42,1.73,6.42,1.73Z" style="fill:#C4834C"></path><path d="M503.11,426s-3.14,1.6-3.88,3.08,0,16.78,0,17.95a64.83,64.83,0,0,0,2.71,9.62c.43.8,6.42,1.73,6.42,1.73Z" style="opacity:0.1"></path><rect x="577.36" y="434.21" width="13.57" height="28.3" rx="6.3" transform="translate(1168.29 896.73) rotate(180)" style="fill:#263238"></rect><path d="M586.44,426s3.15,1.6,3.89,3.08,0,16.78,0,17.95a64.83,64.83,0,0,1-2.71,9.62c-.44.8-6.42,1.73-6.42,1.73Z" style="fill:#C4834C"></path><path d="M586.44,426s3.15,1.6,3.89,3.08,0,16.78,0,17.95a64.83,64.83,0,0,1-2.71,9.62c-.44.8-6.42,1.73-6.42,1.73Z" style="opacity:0.1"></path><path d="M587.66,451.48c0,.4-1.38,6.14-1.94,6.72s-11.66,1.05-12.34,1.05-2.8-1.2-3.2-1.29-22.68,0-25.4,0-25-.07-25.4,0-2.53,1.29-3.21,1.29-11.78-.46-12.34-1.05-1.91-6.32-1.94-6.72.4-1.82.4-2.13-.33-21.79-.24-22.21a25.6,25.6,0,0,1,1.37-3.95c.39-.63,3.91-5.07,4-5.35,2.16-6.49,8.21-16,9.13-16.81a6,6,0,0,1,3.08-1.46c.93-.12,13.44-.58,25.15-.58s24.22.46,25.14.58A6,6,0,0,1,573,401c.92.83,7,10.32,9.14,16.81.09.28,3.6,4.72,4,5.35a26.59,26.59,0,0,1,1.36,3.95c.1.42-.24,21.9-.24,22.21S587.7,451.08,587.66,451.48Z" style="fill:#C4834C"></path><path d="M585,447.66c0,.37-.5,3.24-.82,3.33-8.94,2.22-30.39,4.09-39.37,3.94-9,.15-30.44-1.72-39.37-3.94-.33-.09-.83-3-.83-3.33s.37-4.48.83-4.6,9.91,1.58,17.85,2.63a174.69,174.69,0,0,0,43,0c8-1.05,17.4-2.75,17.86-2.63S585,447.29,585,447.66Z" style="opacity:0.1"></path><path d="M576.24,444.22l-3,8.65a239.13,239.13,0,0,1-28.42,2.06,239.28,239.28,0,0,1-28.43-2.06l-3-8.65c3.07.48,6.64,1,10,1.47a174.69,174.69,0,0,0,43,0C569.6,445.25,573.17,444.7,576.24,444.22Z" style="fill:#fff;opacity:0.5"></path><path d="M566.29,445.69a36.28,36.28,0,0,1-2.95,5.62,8.84,8.84,0,0,1-2.66,2.08c-.43.09-5.76,1.54-15.9,1.54s-15.47-1.45-15.91-1.54a9.09,9.09,0,0,1-2.66-2.08,38.26,38.26,0,0,1-3-5.62,174.69,174.69,0,0,0,43,0Z" style="fill:#263238"></path><path d="M511.19,447.61a1.88,1.88,0,1,1-1.88-1.87A1.88,1.88,0,0,1,511.19,447.61Z" style="fill:#fff"></path><path d="M508,446.28a2,2,0,1,1,1.32,3.44,2,2,0,0,1-1.32-3.44Zm0,0a1.76,1.76,0,0,0,.1,2.56,1.74,1.74,0,1,0-.1-2.56Z" style="fill:#dbdbdb"></path><path d="M578.16,447.61a1.88,1.88,0,1,0,1.88-1.87A1.88,1.88,0,0,0,578.16,447.61Z" style="fill:#fff"></path><path d="M581.36,446.28a1.74,1.74,0,1,0-.1,2.56,1.75,1.75,0,0,0,.1-2.56Zm0,0a2,2,0,0,1-1.32,3.44,2,2,0,1,1,1.32-3.44Z" style="fill:#dbdbdb"></path><path d="M580.45,417.53s-16.72.73-35.67.73-35.67-.73-35.67-.73C512.53,409,517,402.32,517.5,402a12.75,12.75,0,0,1,2.74-1.14c2.1-.52,17.11-.62,24.54-.62s22.43.1,24.53.62a12.62,12.62,0,0,1,2.75,1.14C572.55,402.32,577,409,580.45,417.53Z" style="fill:#455a64"></path><path d="M580.45,417.53s-16.72.73-35.67.73-35.67-.73-35.67-.73c.32-.81.65-1.6,1-2.37,3.85.16,18.45.69,34.69.69s30.83-.53,34.68-.69Q580,416.32,580.45,417.53Z" style="fill:#263238"></path><g style="opacity:0.7000000000000001"><path d="M539.25,410.48H515.91a1.35,1.35,0,0,0-1.33,1.14l-.6,3.77a1.36,1.36,0,0,0,1.34,1.57h24.53a1.36,1.36,0,0,0,1.34-1.57l-.6-3.77A1.36,1.36,0,0,0,539.25,410.48Z" style="fill:#263238"></path><rect x="519.32" y="406.11" width="16.54" height="5.83" rx="2.7" style="fill:#263238"></rect></g><g style="opacity:0.7000000000000001"><path d="M573.64,410.48H550.3a1.36,1.36,0,0,0-1.34,1.14l-.59,3.77A1.35,1.35,0,0,0,549.7,417h24.54a1.36,1.36,0,0,0,1.34-1.57l-.6-3.77A1.36,1.36,0,0,0,573.64,410.48Z" style="fill:#263238"></path><rect x="553.7" y="406.11" width="16.54" height="5.83" rx="2.7" style="fill:#263238"></rect></g><polygon points="573.53 416.71 550.4 416.71 552.62 413.56 561.97 413.07 571.32 413.56 573.53 416.71" style="fill:#263238"></polygon><path d="M562,408.78a5.4,5.4,0,0,0-5.4,5.4,5.26,5.26,0,0,0,.22,1.54,5.43,5.43,0,0,0,1.45,2.37l1.87,0a4.31,4.31,0,0,1-2.16-2.36,4.44,4.44,0,0,1-.27-1.51,4.26,4.26,0,0,1,.68-2.31,4,4,0,0,1,.72-.86,4.29,4.29,0,0,1,5.89.1,4.43,4.43,0,0,1,.68.87,4.25,4.25,0,0,1,.61,2.2,4.1,4.1,0,0,1-.21,1.32,4.28,4.28,0,0,1-2,2.46l1.88,0a5.4,5.4,0,0,0-3.91-9.13Z" style="fill:#263238"></path><polygon points="562.08 414.82 558.03 411.61 558.72 410.73 562.08 413.4 565.44 410.73 566.13 411.61 562.08 414.82" style="fill:#263238"></polygon><g style="opacity:0.1"><path d="M538.84,400.21l-17.71,17.71-4.28-.11,17.56-17.56Z" style="fill:#fff"></path><path d="M572.64,402.67l-15.5,15.49-4.45.06L569.91,401a11.16,11.16,0,0,1,2.15.95A6.07,6.07,0,0,1,572.64,402.67Z" style="fill:#fff"></path><path d="M579.18,414.53,576,417.7l-4.54.14,6.3-6.3C578.24,412.49,578.71,413.49,579.18,414.53Z" style="fill:#fff"></path><path d="M533,400.27l-17.5,17.49-.65,0,17.46-17.47Z" style="fill:#fff"></path><path d="M554.18,400.24l-18,18h-.67l18-18Z" style="fill:#fff"></path><path d="M576.93,409.9l-8,8-.69,0,8.48-8.48C576.77,409.6,576.85,409.75,576.93,409.9Z" style="fill:#fff"></path><path d="M523.44,400.52l-12.25,12.25c.5-1.06,1-2.07,1.51-3l9.13-9.14C522.3,400.58,522.84,400.54,523.44,400.52Z" style="fill:#fff"></path><path d="M560.09,400.32l-17.93,17.93h-1.5L558.6,400.3Z" style="fill:#fff"></path></g><path d="M509.11,417.53a34.6,34.6,0,0,1-2.93,5.16l-.12.18c-.05.19.17.58.28.78s.36.58.55.88c-.47-.37-1.55-1.29-1.17-1.95a27.36,27.36,0,0,1,3.39-5.05Z" style="opacity:0.1"></path><path d="M580.45,417.53a27.36,27.36,0,0,1,3.39,5.05c.38.66-.71,1.57-1.18,1.95.19-.3.39-.58.55-.88s.34-.59.28-.78l-.12-.18a34.54,34.54,0,0,1-2.92-5.16Z" style="opacity:0.1"></path><path d="M586.94,431.51c0,.4,0,2.64-.32,2.83a34.3,34.3,0,0,1-7,2.14,201.51,201.51,0,0,1-69.74,0,34.64,34.64,0,0,1-7-2.14c-.3-.19-.32-2.43-.32-2.83s2.62-5.62,3.11-5.75,5.92,3,15,4.6c9.34,1.68,24,1.72,24,1.72s14.7,0,24-1.72c9.11-1.64,14.54-4.46,15-4.32S586.94,431.12,586.94,431.51Z" style="opacity:0.1"></path><path d="M586.62,434.34a33.48,33.48,0,0,1-10.12,3.15q-5.24.94-10.51,1.62a167.21,167.21,0,0,1-21.21,1.58A189.42,189.42,0,0,1,510.45,437a29.5,29.5,0,0,1-7.52-2.64,31.5,31.5,0,0,0,7.59,2.23,250.57,250.57,0,0,0,34.26,3,201.39,201.39,0,0,0,21.11-1.33c3.51-.37,7-.79,10.52-1.3a43.5,43.5,0,0,0,5.2-.91,32.47,32.47,0,0,0,5-1.7Z" style="fill:#fff;opacity:0.5"></path><path d="M507.72,424.72c1.89.17,10.9,5.77,11.28,6.23s1.3,5.09.73,5.54-7.38.22-9.43-.11-6.29-1.48-7.25-2.21-.22-5.91.72-6.94C505,425.9,506.5,424.61,507.72,424.72Z" style="fill:#fff"></path><path d="M507.72,424.72a6,6,0,0,1,1.41.46c1.37.6,2.68,1.32,4,2,2,1.09,3.92,2.19,5.78,3.45a1.13,1.13,0,0,1,.46.68,15,15,0,0,1,.39,1.46,14.44,14.44,0,0,1,.4,3c0,.58-.12,1-.75,1a29.72,29.72,0,0,1-4.9.12,35.8,35.8,0,0,1-4.5-.39,30.5,30.5,0,0,1-6.46-2,2.62,2.62,0,0,1-.67-.43,5,5,0,0,1-.29-3,9.22,9.22,0,0,1,1.14-3.93c1-1.07,2.39-2.54,4-2.52Zm0,0c-1.53,0-2.71,1.26-3.71,2.28a2.92,2.92,0,0,0-.72,1.27,13.1,13.1,0,0,0-.54,2.91,8.51,8.51,0,0,0,.07,2.2,1,1,0,0,0,.53.81,25.47,25.47,0,0,0,5.29,1.61,29.06,29.06,0,0,0,5.88.62c1,0,2,.06,3,.05a9.53,9.53,0,0,0,2.08-.17.32.32,0,0,0,.06-.17,12,12,0,0,0-.25-3.25,9.7,9.7,0,0,0-.46-1.76c0-.08-.12-.13-.2-.21-1.81-1.31-3.72-2.48-5.64-3.63a42.57,42.57,0,0,0-4-2.09,6.49,6.49,0,0,0-1.41-.47Z" style="fill:#dbdbdb"></path><path d="M512.39,431.62A2.61,2.61,0,1,1,508,429.7a2.62,2.62,0,0,1,4.39,1.92Zm0,0a2.33,2.33,0,1,0-4.05,1.58,2.34,2.34,0,0,0,4.05-1.58Z" style="fill:#dbdbdb"></path><path d="M517.43,433.26a2.25,2.25,0,0,1-3.75,1.66,2.28,2.28,0,0,1,0-3.31,2.25,2.25,0,0,1,3.75,1.65Zm0,0a2,2,0,1,0-2.1,2,2,2,0,0,0,2.1-2Z" style="fill:#dbdbdb"></path><path d="M506.89,429.3a24.5,24.5,0,0,0-.45,5.49,3,3,0,0,0,.54.84,15.37,15.37,0,0,1-3.93-1.46c-.95-.73-.22-5.91.72-6.94,1.2-1.34,2.73-2.63,3.94-2.51a8.53,8.53,0,0,1,2.21.83S507.18,428.46,506.89,429.3Z" style="fill:#C4834C"></path><path d="M506.89,429.3a24.5,24.5,0,0,0-.45,5.49,3,3,0,0,0,.54.84,15.37,15.37,0,0,1-3.93-1.46c-.95-.73-.22-5.91.72-6.94,1.2-1.34,2.73-2.63,3.94-2.51a8.53,8.53,0,0,1,2.21.83S507.18,428.46,506.89,429.3Z" style="opacity:0.2"></path><path d="M581.84,424.72c-1.9.17-10.91,5.77-11.29,6.23s-1.29,5.09-.73,5.54,7.38.22,9.43-.11,6.3-1.48,7.25-2.21.22-5.91-.71-6.94C584.58,425.9,583.06,424.61,581.84,424.72Z" style="fill:#fff"></path><path d="M581.84,424.72a6.32,6.32,0,0,0-1.41.47,42.74,42.74,0,0,0-4,2.09c-1.91,1.15-3.83,2.32-5.63,3.63-.09.08-.18.13-.21.21a9.67,9.67,0,0,0-.45,1.76,11.58,11.58,0,0,0-.26,3.25.51.51,0,0,0,.06.17l.26.07a34.94,34.94,0,0,0,4.8.05,28.89,28.89,0,0,0,5.87-.62,25.74,25.74,0,0,0,5.3-1.61,1,1,0,0,0,.52-.81,8.09,8.09,0,0,0,.07-2.2,13.08,13.08,0,0,0-.53-2.91,2.85,2.85,0,0,0-.73-1.27c-1-1-2.17-2.28-3.7-2.28Zm0,0c1.61,0,2.94,1.45,4,2.52a9.38,9.38,0,0,1,1.15,3.93,5.1,5.1,0,0,1-.29,3,2.66,2.66,0,0,1-.68.43,30.15,30.15,0,0,1-6.46,2,45.78,45.78,0,0,1-7.49.42,13.51,13.51,0,0,1-1.9-.15,1.24,1.24,0,0,1-.45-.15.68.68,0,0,1-.26-.49,10.92,10.92,0,0,1,.36-3.41,12.58,12.58,0,0,1,.39-1.46,1.12,1.12,0,0,1,.45-.68c1.87-1.26,3.83-2.36,5.78-3.45,1.31-.72,2.63-1.44,4-2a5.68,5.68,0,0,1,1.41-.46Z" style="fill:#dbdbdb"></path><path d="M577.16,431.62a2.34,2.34,0,1,0,4.06-1.58,2.34,2.34,0,0,0-4.06,1.58Zm0,0a2.63,2.63,0,0,1,4.4-1.92,2.62,2.62,0,1,1-4.4,1.92Z" style="fill:#dbdbdb"></path><path d="M572.12,433.26a2,2,0,1,0,2.1-2,2,2,0,0,0-2.1,2Zm0,0a2.24,2.24,0,1,1,3.75,1.66,2.25,2.25,0,0,1-3.75-1.66Z" style="fill:#dbdbdb"></path><path d="M582.67,429.3a23.89,23.89,0,0,1,.44,5.49,3,3,0,0,1-.53.84,15.26,15.26,0,0,0,3.92-1.46c1-.73.22-5.91-.72-6.94-1.2-1.34-2.72-2.63-3.94-2.51a8.37,8.37,0,0,0-2.2.83S582.38,428.46,582.67,429.3Z" style="fill:#C4834C"></path><path d="M582.67,429.3a23.89,23.89,0,0,1,.44,5.49,3,3,0,0,1-.53.84,15.26,15.26,0,0,0,3.92-1.46c1-.73.22-5.91-.72-6.94-1.2-1.34-2.72-2.63-3.94-2.51a8.37,8.37,0,0,0-2.2.83S582.38,428.46,582.67,429.3Z" style="opacity:0.2"></path><path d="M568.81,430.36a51.41,51.41,0,0,1-2.66,5.73,8.26,8.26,0,0,1-2.87,1.74,112.67,112.67,0,0,1-37,0,8.44,8.44,0,0,1-2.87-1.74,51.41,51.41,0,0,1-2.66-5.73c0-.21,6.89,1.13,11,1.29,2,.08,8.42.43,13,.43s11-.35,13-.43C561.92,431.49,568.77,430.15,568.81,430.36Z" style="fill:#37474f"></path><path d="M525.25,430.94c.93.14,1.93.28,2.92.39h-7.06l-.16-.39Zm39.06,0c-.93.14-1.93.28-2.92.39h7.05l.17-.39ZM549,432c-1.47,0-2.93.07-4.25.07s-2.79,0-4.26-.07H521.41l.18.39H568c.06-.14.12-.26.17-.39Zm-27.13,1.07.18.38h45.39c.07-.12.13-.25.19-.38Zm.5,1.06c.06.14.13.27.19.39H567q.09-.18.18-.39Zm.52,1.07.2.39h43.31l.2-.39Zm.64,1.06a2.88,2.88,0,0,0,.48.39h41.48a3.37,3.37,0,0,0,.48-.39Zm1.61,1.07a7.16,7.16,0,0,0,.81.39h37.59a8.11,8.11,0,0,0,.82-.39Zm4.69,1.07c.93.13,2,.26,3.28.38h23.27c1.26-.12,2.36-.25,3.29-.38Z" style="fill:#455a64"></path><rect x="535.66" y="442.74" width="18.24" height="4.87" style="fill:#fff"></rect></g></svg>
