<svg xmlns="http://www.w3.org/2000/svg" viewBox="0 0 750 500"><g id="freepik--background-complete--inject-89"><path d="M60.64,382.56a26.47,26.47,0,0,1-16.22-12.21A23.48,23.48,0,0,1,42.72,351c1.77-4.93,5.18-9.27,6.65-14.29C51,331,50,324.94,49,319.11s-2.07-11.85-.51-17.57S55,290.45,61.27,290c5.84-.38,11.25,3.67,13.69,8.65s2.45,10.69,1.88,16.14-1.68,10.89-1.33,16.36c.71,11.06,7.34,21.48,6.56,32.54-.4,5.76-2.79,9.45-6.87,13.78-3.52,3.73-9.38,6.19-14.56,5.05" style="fill:#ebebeb"></path><path d="M62.71,437.39c-.07,0-.12-24.52-.12-54.75s0-54.75.12-54.75.11,24.51.11,54.75S62.77,437.39,62.71,437.39Z" style="fill:#e0e0e0"></path><path d="M62.39,363.43a10.28,10.28,0,0,1-1-.9c-.6-.57-1.42-1.37-2.28-2.29s-1.66-1.74-2.23-2.33a8.69,8.69,0,0,1-.9-1,8.06,8.06,0,0,1,1,.89c.6.57,1.42,1.37,2.28,2.29s1.66,1.74,2.23,2.33A9.42,9.42,0,0,1,62.39,363.43Z" style="fill:#e0e0e0"></path><rect x="44.71" y="432.84" width="36.61" height="4.47" style="fill:#e0e0e0"></rect><path d="M63.05,340.49a7.66,7.66,0,0,0,2.23-.93,6.08,6.08,0,0,0,1.8-1.81,6,6,0,0,0,1-2.86v-.1l.13.11a4.79,4.79,0,0,0-2.69,1.48,10.26,10.26,0,0,0-1.51,2c-.36.62-.61,1.14-.78,1.5a3.83,3.83,0,0,1-.28.55,3.12,3.12,0,0,1,.2-.58,13.7,13.7,0,0,1,.73-1.54,9.45,9.45,0,0,1,1.49-2.07,4.82,4.82,0,0,1,2.81-1.56l.14,0v.22a6.06,6.06,0,0,1-1,3,6.12,6.12,0,0,1-1.88,1.83,5.44,5.44,0,0,1-1.66.7c-.21.06-.38.07-.49.1Z" style="fill:#e0e0e0"></path><path d="M63.05,340.49a13.7,13.7,0,0,1,1.53-1.91,14.23,14.23,0,0,1,1.71-1.77,13.65,13.65,0,0,1-1.54,1.9A13.51,13.51,0,0,1,63.05,340.49Z" style="fill:#e0e0e0"></path><path d="M153.52,168c.64-4.6-5.86-8.39-10.75-8.79-2.33-.18-4.75.17-7-.6-4.79-1.66-6.7-7.84-11.36-9.81-3.49-1.47-7.51-.16-10.89,1.54s-6.72,3.85-10.5,4.09c-3.29.21-6.85-1-9.73.59-2.14,1.2-3.26,3.67-5.24,5.13s-4.45,1.72-6.85,1.85-4.88.16-7.06,1.16-4,3.3-3.54,5.66Z" style="fill:#e0e0e0"></path><path d="M674.54,340.59s-5-3.33-11.13,8.56a154.6,154.6,0,0,0-8.52,18.75s-1.62,2.49-3.33.84-4-6.3-6.95-5.48-4.06,4.21-3.51,9.18,1.33,15.9,1.39,16.89-.5,2.4-1.84,1.46-9-9.63-12.94-5.73-.12,17.5.26,19,.09,2.13-.62,2.49-3-2.8-5.31-5.18-5.37-4.75-7.43-2.31-2.8,12.62,6.78,29.22l4.93,7.41,8.93-.44c19-2.08,26.83-8.68,27.58-11.79s-3-4.19-6.25-4.63-7.19-.44-7.32-1.22.21-1.41,1.64-2,14.64-5.55,15.48-11-10.72-6.52-12.27-7.05-.73-1.83.09-2.35,10.12-6.35,14.45-8.85S675.1,381,674,378.1s-6.2-2-8.54-2.37-1.29-3.19-1.29-3.19a154.51,154.51,0,0,0,10.1-18c6-12,.18-14.06.18-14.06" style="fill:#ebebeb"></path><path d="M624.89,437.27c4.4-8.8,12.49-24.3,19.37-37.65s13.09-25.42,17.54-34.19c2.21-4.38,4-7.93,5.25-10.4.62-1.22,1.1-2.17,1.44-2.82l.37-.74.14-.24a2.69,2.69,0,0,1-.11.26l-.35.74c-.33.66-.79,1.62-1.39,2.85-1.2,2.47-3,6-5.18,10.43-4.4,8.8-10.59,20.9-17.46,34.24s-15,28.83-19.45,37.61" style="fill:#e0e0e0"></path><path d="M647.59,369.9a2.4,2.4,0,0,1,.22.6c.13.4.29,1,.49,1.69.39,1.42.89,3.4,1.39,5.6l1.27,5.63.4,1.71a4.24,4.24,0,0,1,.12.63,2.91,2.91,0,0,1-.23-.6c-.12-.4-.29-1-.48-1.69-.38-1.43-.84-3.42-1.35-5.62s-1-4.12-1.31-5.62l-.4-1.7A3.17,3.17,0,0,1,647.59,369.9Z" style="fill:#e0e0e0"></path><path d="M652.29,385.92c0-.07,4-1.27,9-2.67s9.09-2.47,9.11-2.4-4,1.27-9,2.67S652.31,386,652.29,385.92Z" style="fill:#e0e0e0"></path><path d="M640.81,405.94a2.82,2.82,0,0,1,.66,0l1.78,0c1.51,0,3.59,0,5.89-.05s4.38-.2,5.88-.31l1.78-.13a3.34,3.34,0,0,1,.66,0,3.06,3.06,0,0,1-.65.12c-.42.06-1,.14-1.77.22-1.5.16-3.59.32-5.89.39s-4.39,0-5.9,0c-.76,0-1.37-.07-1.79-.11A3.51,3.51,0,0,1,640.81,405.94Z" style="fill:#e0e0e0"></path><path d="M633.37,392.38a2.76,2.76,0,0,1,.34.5l.85,1.41c.71,1.21,1.67,2.87,2.72,4.73s2,3.53,2.65,4.76l.77,1.46a2.08,2.08,0,0,1,.25.55,2.76,2.76,0,0,1-.34-.5l-.85-1.42c-.71-1.2-1.67-2.87-2.72-4.72s-2-3.53-2.65-4.76l-.77-1.46A2.08,2.08,0,0,1,633.37,392.38Z" style="fill:#e0e0e0"></path><path d="M621,408.76a4.72,4.72,0,0,1,.43.64c.29.48.65,1.08,1.1,1.81.91,1.54,2.16,3.67,3.53,6s2.59,4.5,3.46,6.06l1,1.85a3.69,3.69,0,0,1,.34.7,3.78,3.78,0,0,1-.43-.64l-1.1-1.81c-.92-1.54-2.17-3.66-3.53-6s-2.59-4.51-3.46-6.07l-1-1.85A3.38,3.38,0,0,1,621,408.76Z" style="fill:#e0e0e0"></path><path d="M630.75,425.38a4.68,4.68,0,0,1,.83-.06l2.27-.05c1.91,0,4.55-.13,7.46-.31s5.55-.38,7.45-.55l2.26-.21a5.15,5.15,0,0,1,.83,0,4.64,4.64,0,0,1-.82.15c-.53.08-1.29.18-2.25.29-1.9.22-4.53.47-7.45.64s-5.57.22-7.48.22c-1,0-1.73,0-2.27,0A4.27,4.27,0,0,1,630.75,425.38Z" style="fill:#e0e0e0"></path><path d="M159.81,241.92c1-7.28-9.27-13.27-17-13.89-3.68-.3-7.51.27-11-.95-7.56-2.63-10.57-12.39-18-15.5-5.51-2.32-11.85-.25-17.19,2.44s-10.62,6.07-16.59,6.45c-5.19.33-10.83-1.59-15.37.94-3.39,1.89-5.16,5.79-8.28,8.09s-7,2.73-10.82,2.94-7.7.24-11.15,1.82-6.3,5.22-5.59,9Z" style="fill:#e0e0e0"></path><path d="M481.17,126.93c1.19-8.63-11-15.73-20.15-16.47-4.37-.35-8.9.32-13-1.13-9-3.12-12.54-14.7-21.29-18.39-6.54-2.76-14.06-.3-20.4,2.89s-12.61,7.2-19.69,7.66c-6.16.39-12.85-1.89-18.23,1.12-4,2.24-6.12,6.87-9.83,9.6s-8.34,3.23-12.83,3.48-9.15.29-13.24,2.16-7.47,6.2-6.63,10.62Z" style="fill:#ebebeb"></path><path d="M348.16,69.33c.36-2.59-3.3-4.72-6.05-4.94a15.87,15.87,0,0,1-3.91-.34c-2.69-.94-3.76-4.41-6.38-5.52-2-.83-4.22-.09-6.13.87s-3.78,2.16-5.9,2.29c-1.85.12-3.86-.56-5.47.34-1.21.67-1.84,2.06-2.95,2.88a7,7,0,0,1-3.85,1,11,11,0,0,0-4,.65,3.13,3.13,0,0,0-2,3.19Z" style="fill:#e0e0e0"></path><path d="M680.77,95.09c.35-2.59-3.3-4.72-6-4.94a15,15,0,0,1-3.91-.34c-2.69-.93-3.76-4.41-6.39-5.51-2-.83-4.22-.09-6.12.86s-3.78,2.16-5.91,2.3c-1.84.12-3.85-.57-5.47.34-1.2.67-1.83,2.06-2.94,2.88a7,7,0,0,1-3.86,1,10.85,10.85,0,0,0-4,.65,3.13,3.13,0,0,0-2,3.18Z" style="fill:#f5f5f5"></path><path d="M717.9,175.19c.62-4.55-5.8-8.29-10.63-8.68-2.3-.18-4.69.17-6.87-.59-4.72-1.65-6.61-7.75-11.22-9.69-3.44-1.46-7.41-.16-10.75,1.52s-6.64,3.79-10.37,4c-3.25.21-6.77-1-9.61.59-2.12,1.18-3.23,3.62-5.18,5.06s-4.4,1.71-6.76,1.84-4.82.15-7,1.14-3.94,3.26-3.49,5.59Z" style="fill:#ebebeb"></path></g><g id="freepik--speech-bubble--inject-89"><path d="M300.73,229.69l-19.79-34.88a93.46,93.46,0,1,0-22.39,24.9l0,0Z" style="fill:#fafafa"></path><path d="M300.73,229.69l-42.24-9.82-.19,0,.12-.16,0,0,.18.18a100.18,100.18,0,0,1-8.77,6,98.41,98.41,0,0,1-10.4,5.48,93.66,93.66,0,0,1-25.55,7.26,92.47,92.47,0,0,1-14.75.79,89.84,89.84,0,0,1-15.59-1.66,93.65,93.65,0,0,1-73.84-73.34,95.11,95.11,0,0,1,1-41.41,93,93,0,0,1,7.67-20.12c.79-1.64,1.75-3.19,2.65-4.77S123,95,124,93.44a95.37,95.37,0,0,1,6.74-8.73A94.7,94.7,0,0,1,156.7,63.77c1.63-.84,3.24-1.71,4.9-2.48s3.31-1.54,5-2.17a93.6,93.6,0,0,1,20.75-5.67,96,96,0,0,1,21-.78A92.84,92.84,0,0,1,246.61,64a94,94,0,0,1,44.21,54.35,93,93,0,0,1,3.32,15.44c.37,2.54.51,5.06.68,7.53s.16,4.91.07,7.3a93,93,0,0,1-4.53,26.17A94.5,94.5,0,0,1,281,194.87v-.13l19.68,34.95-19.9-34.82,0-.07,0-.06a94.67,94.67,0,0,0,9.24-20,92.76,92.76,0,0,0,4.46-26.08c.08-2.38,0-4.81-.08-7.28s-.32-5-.69-7.49a93,93,0,0,0-85.47-80.69,95.47,95.47,0,0,0-20.85.78,93.1,93.1,0,0,0-20.63,5.65c-1.7.62-3.33,1.42-5,2.16s-3.25,1.63-4.87,2.46a94.44,94.44,0,0,0-9.32,5.86A98.67,98.67,0,0,0,139,77a96.21,96.21,0,0,0-14.52,16.72c-1,1.53-2,3-2.93,4.6s-1.84,3.12-2.63,4.75a92.46,92.46,0,0,0-7.63,20,94.69,94.69,0,0,0-1,41.18,93.15,93.15,0,0,0,73.43,73A90,90,0,0,0,199.17,239a92.38,92.38,0,0,0,40.16-8,93.64,93.64,0,0,0,19.14-11.44l.77-.57-.58.76,0,0-.07-.21Z" style="fill:#263238"></path><path d="M253.81,182.16l-12.53,12.21a3.32,3.32,0,0,1-4.61,0l-86.34-82.61a3.32,3.32,0,0,1-.1-4.69l13.08-13.67a3.32,3.32,0,0,1,4.72-.07l85.79,84.05A3.33,3.33,0,0,1,253.81,182.16Z" style="fill:#C4834C"></path><path d="M173.43,98.92a27.28,27.28,0,0,1-3.47,4,26.7,26.7,0,0,1-3.85,3.63,27.63,27.63,0,0,1,3.47-4A26.35,26.35,0,0,1,173.43,98.92Z" style="fill:#263238"></path><path d="M187.15,112.14a27.28,27.28,0,0,1-3.47,4,26.79,26.79,0,0,1-3.85,3.63,27,27,0,0,1,3.47-4A26.94,26.94,0,0,1,187.15,112.14Z" style="fill:#263238"></path><path d="M180,105a48.83,48.83,0,0,1-4.74,5.25,47.67,47.67,0,0,1-5.11,4.89,48.83,48.83,0,0,1,4.74-5.25A48.79,48.79,0,0,1,180,105Z" style="fill:#263238"></path><path d="M194.08,119.07a47.55,47.55,0,0,1-4.74,5.25,47.67,47.67,0,0,1-5.11,4.89A48.83,48.83,0,0,1,189,124,48.79,48.79,0,0,1,194.08,119.07Z" style="fill:#263238"></path><path d="M200.57,125.55a27.51,27.51,0,0,1-3.48,4,27.21,27.21,0,0,1-3.84,3.62,26.55,26.55,0,0,1,3.47-4A26.11,26.11,0,0,1,200.57,125.55Z" style="fill:#263238"></path><path d="M207.5,132.48a48.33,48.33,0,0,1-4.74,5.26,46.8,46.8,0,0,1-5.11,4.88,48.83,48.83,0,0,1,4.74-5.25A47.67,47.67,0,0,1,207.5,132.48Z" style="fill:#263238"></path><path d="M214,139a26.55,26.55,0,0,1-3.47,4,26.11,26.11,0,0,1-3.85,3.63,27,27,0,0,1,3.47-4A27.57,27.57,0,0,1,214,139Z" style="fill:#263238"></path><path d="M220.91,145.9a46.79,46.79,0,0,1-4.73,5.25,47.18,47.18,0,0,1-5.12,4.89,48.83,48.83,0,0,1,4.74-5.25A48.79,48.79,0,0,1,220.91,145.9Z" style="fill:#263238"></path><path d="M227.4,152.38a27,27,0,0,1-3.47,4,27.57,27.57,0,0,1-3.85,3.62,27.28,27.28,0,0,1,3.47-4A26.79,26.79,0,0,1,227.4,152.38Z" style="fill:#263238"></path><path d="M234.33,159.31a47.27,47.27,0,0,1-4.74,5.26,48.79,48.79,0,0,1-5.11,4.89,49.44,49.44,0,0,1,4.74-5.26A48.79,48.79,0,0,1,234.33,159.31Z" style="fill:#263238"></path><path d="M240.81,165.8a26.55,26.55,0,0,1-3.47,4,26.11,26.11,0,0,1-3.85,3.63,28.13,28.13,0,0,1,3.48-4A27.21,27.21,0,0,1,240.81,165.8Z" style="fill:#263238"></path><path d="M210.9,129.47c.3.52,12.07,11.29,12.07,11.29l7.64-7.49s13.08,4,21.48-5.22c4.92-5.41,5.72-12.42,5.67-16.71a10.27,10.27,0,0,0-2.37-6.4h0l-12,14.92-11.91-11.92,12.56-13s-1.32-3.11-2.76-3.08c-4.38.07-12.76,2.81-19.15,10-7.56,8.55-3.66,19.81-3.66,19.81Z" style="fill:#263238"></path><path d="M208.25,127l12.08,11.33,8.16-8s13.08,4,21.47-5.22c7.64-8.4,5.37-20.61,5.37-20.61l-14.07,12.41L229.35,105l12.56-13A21.58,21.58,0,0,0,220,99c-7.56,8.56-3.66,19.82-3.66,19.82Z" style="fill:#455a64"></path><path d="M195.51,162.27c-.3-.53-12.07-11.3-12.07-11.3l-7.65,7.49s-14.36-2.85-21.47,5.22c-5.46,6.21-7.86,14.4-7.63,18.42.11,1.85,2.27,2.19,2.27,2.19L163,171.88l11.91,11.91-14.83,10.83h0a10.15,10.15,0,0,0,6.64,2.86,21.58,21.58,0,0,0,17.54-7.63c7.56-8.56,3.65-19.82,3.65-19.82Z" style="fill:#263238"></path><path d="M193.24,160.08c-.3-.53-12.06-11.3-12.06-11.3l-7.65,7.49s-14.37-2.85-21.47,5.22c-8,9-5.37,20.61-5.37,20.61l14.07-12.41,11.91,11.91-12.56,13a21.58,21.58,0,0,0,21.91-7c7.56-8.56,3.66-19.82,3.66-19.82Z" style="fill:#455a64"></path></g><g id="freepik--House--inject-89"><polygon points="160.16 437.03 160.16 304.93 445.77 212.48 445.77 272.91 621.33 311.71 621.33 437.03 160.16 437.03" style="fill:#f5f5f5"></polygon><path d="M159.92,417c.73-2.08,4-1.86,5.49-.19s1.76,4,2.52,6.08,2.54,4.2,4.73,3.91,4.07-3,6.2-2.26,1.84,4.7,4,5.81,4.93-1.82,7.36-1c1.87.62,2.46,3.11,4.2,4,1.32.7,2.93.32,4.42.49s3.12,1.59,2.46,2.93H160.16Z" style="fill:#ebebeb"></path><polygon points="128.04 316.17 128.04 298.9 360.63 221.6 360.28 238.96 128.04 316.17" style="fill:#e0e0e0"></polygon><path d="M160.16,305.19c3.07,3,8.07,1.91,12.28,1.05s9.72-.63,11.33,3.35c.9,2.22.37,5.28,2.39,6.57s5-.94,5.5-3.42-.19-5.07.1-7.59c.71-6,8.27-10,13.62-7.21,1.33.69,2.63,1.74,4.12,1.6,2.1-.19,3.18-2.48,4.43-4.18,2.91-3.95,8-5.37,12.62-7.1s9.15-2.52,9.95-7.36Z" style="fill:#ebebeb"></path><path d="M343.53,245l-6.71,7.66c-1.42,1.64-3,3.35-5.1,3.87s-4.42-.18-6.16,1c-1.52,1-2,3.1-3.33,4.34-3.16,2.85-8.54-.47-12.34,1.44-2.18,1.09-3.22,3.62-3.68,6s-.52,4.91-1.56,7.12-3.46,4-5.8,3.37c-2.63-.77-3.51-4-4.05-6.67s-1.74-5.89-4.46-6.26c-1.73-.24-3.36.84-5.09,1.06s-3.93-1.45-3-2.92Z" style="fill:#ebebeb"></path><path d="M170.21,437c-.14,0-.26-30.33-.26-67.72s.12-67.73.26-67.73.26,30.32.26,67.73S170.35,437,170.21,437Z" style="fill:#e0e0e0"></path><path d="M182.1,437c-.14,0-.26-31.35-.26-70s.12-70,.26-70,.26,31.34.26,70S182.25,437,182.1,437Z" style="fill:#e0e0e0"></path><path d="M193.27,437c-.15,0-.26-32.11-.26-71.7s.11-71.7.26-71.7.26,32.1.26,71.7S193.41,437,193.27,437Z" style="fill:#e0e0e0"></path><path d="M204.43,437c-.14,0-.26-32.75-.26-73.14s.12-73.14.26-73.14.26,32.74.26,73.14S204.57,437,204.43,437Z" style="fill:#e0e0e0"></path><path d="M215.59,437c-.14,0-.26-33.56-.26-74.95s.12-75,.26-75,.26,33.55.26,75S215.74,437,215.59,437Z" style="fill:#e0e0e0"></path><path d="M226.75,437c-.14,0-.26-34.58-.26-77.23s.12-77.24.26-77.24.26,34.58.26,77.24S226.9,437,226.75,437Z" style="fill:#e0e0e0"></path><path d="M237.92,437c-.15,0-.26-35.18-.26-78.56s.11-78.56.26-78.56.26,35.17.26,78.56S238.06,437,237.92,437Z" style="fill:#e0e0e0"></path><path d="M249.08,437c-.14,0-.26-35.89-.26-80.14s.12-80.14.26-80.14.26,35.87.26,80.14S249.22,437,249.08,437Z" style="fill:#e0e0e0"></path><path d="M260.24,437c-.14,0-.26-36.75-.26-82.07s.12-82.07.26-82.07.26,36.73.26,82.07S260.39,437,260.24,437Z" style="fill:#e0e0e0"></path><path d="M271.41,437c-.15,0-.26-37.55-.26-83.85s.11-83.86.26-83.86.26,37.54.26,83.86S271.55,437,271.41,437Z" style="fill:#e0e0e0"></path><path d="M282.57,437c-.15,0-.26-38.25-.26-85.41s.11-85.42.26-85.42.26,38.23.26,85.42S282.71,437,282.57,437Z" style="fill:#e0e0e0"></path><path d="M279.22,383.6a3.75,3.75,0,0,0,3.09,1.68,9.43,9.43,0,0,1,3.56.73,4.81,4.81,0,0,1,2.11,3,26.17,26.17,0,0,1,.52,3.76c.1.88.49,2,1.38,2s1.44-1.2,1.47-2.18,0-2.19.88-2.66a1.71,1.71,0,0,1,2,.59,5,5,0,0,1,.82,2.14q.63,3,1.28,6.09a6,6,0,0,0,.74,2.12,2,2,0,0,0,1.92,1c1.36-.25,1.66-2,1.63-3.43l-.09-5.62a7.22,7.22,0,0,1,.4-3.11,2.47,2.47,0,0,1,2.48-1.58c1.09.18,1.75,1.26,2.43,2.13s1.87,1.67,2.82,1.1c1.23-.74.7-3,2-3.7.87-.48,1.9.16,2.79.59a9.08,9.08,0,0,0,7.68-.38,27.16,27.16,0,0,0,6.35-4.75Z" style="fill:#ebebeb"></path><path d="M293.73,437c-.14,0-.26-39.07-.26-87.26s.12-87.27.26-87.27.26,39.07.26,87.27S293.88,437,293.73,437Z" style="fill:#e0e0e0"></path><path d="M304.89,437c-.14,0-.26-39.91-.26-89.13s.12-89.13.26-89.13.26,39.9.26,89.13S305,437,304.89,437Z" style="fill:#e0e0e0"></path><path d="M316.06,437c-.15,0-.26-40.58-.26-90.63s.11-90.64.26-90.64.26,40.57.26,90.64S316.2,437,316.06,437Z" style="fill:#e0e0e0"></path><path d="M327.22,437c-.14,0-.26-41.5-.26-92.68s.12-92.69.26-92.69.26,41.49.26,92.69S327.36,437,327.22,437Z" style="fill:#e0e0e0"></path><path d="M338.38,437c-.14,0-.26-42.26-.26-94.37s.12-94.38.26-94.38.26,42.25.26,94.38S338.53,437,338.38,437Z" style="fill:#e0e0e0"></path><path d="M349.55,437c-.15,0-.27-43-.27-96s.12-96,.27-96,.26,43,.26,96S349.69,437,349.55,437Z" style="fill:#e0e0e0"></path><rect x="189.69" y="334.72" width="48.28" height="48.28" style="fill:#fafafa"></rect><path d="M238.47,383.5H189.19V334.22h49.28Zm-48.28-1h47.28V335.22H190.19Z" style="fill:#e0e0e0"></path><rect x="210.14" y="334.6" width="7.39" height="48.29" style="fill:#e0e0e0"></rect><rect x="210.14" y="334.71" width="7.39" height="48.29" transform="translate(-145.02 572.69) rotate(-90)" style="fill:#e0e0e0"></rect><rect x="279.23" y="334.72" width="48.28" height="48.28" style="fill:#fafafa"></rect><path d="M328,383.5H278.73V334.22H328Zm-48.28-1H327V335.22H279.73Z" style="fill:#e0e0e0"></path><rect x="299.67" y="334.6" width="7.39" height="48.29" style="fill:#e0e0e0"></rect><rect x="299.67" y="334.71" width="7.39" height="48.29" transform="translate(-55.49 662.22) rotate(-90)" style="fill:#e0e0e0"></rect><path d="M182.1,375.9s-3.55,9.21-3.38,13,.69,16.38.69,16.38l2.69,11.94Z" style="fill:#ebebeb"></path><polygon points="254.51 351.61 258.56 354.96 254.51 360.53 260.24 385.89 260.24 330.82 254.51 351.61" style="fill:#ebebeb"></polygon><path d="M324.91,436.92c-.33-1.28.86-2.53,2.14-2.83a10,10,0,0,1,3.92.27,5.2,5.2,0,0,0,3.83-.46,5.64,5.64,0,0,0,1.82-3.42,6.5,6.5,0,0,1,1.66-3.52c1-.87,2.88-.79,3.33.45,4.2-3.37,1-11.39,5.17-14.79,1.75-1.43,4.3-1.52,6.11-2.88,2.22-1.68,2.73-4.83,2.5-7.6s-1-5.55-.63-8.32,2.4-5.62,5.19-5.63V437Z" style="fill:#ebebeb"></path><path d="M360.62,450.29c-.14,0-.26-59.63-.26-133.18s.12-133.19.26-133.19.27,59.62.27,133.19S360.77,450.29,360.62,450.29Z" style="fill:#263238"></path><path d="M513,170.42s-.33.14-1,.38l-2.95,1.06-11.36,4c-9.88,3.42-24.2,8.29-41.91,14.26-35.43,11.93-84.43,28.23-138.57,46.16L178.55,282.14l-42,14L125.14,300l-3,1c-.64.24-1.06.4-.92.39s-.07,0,0,0l.18-.1.74-.31c.66-.25,1.64-.62,2.94-1.08,2.59-.93,6.42-2.26,11.37-3.95,9.89-3.38,24.22-8.2,42-14.13l138.64-46,138.62-46,42-14.1,11.39-3.89,3-1C512.68,170.52,513,170.42,513,170.42Z" style="fill:#263238"></path><polygon points="435.59 213.92 435.59 437.03 621.33 437.03 621.33 311.71 445.77 272.91 445.77 210 435.59 213.92" style="fill:#C4834C"></polygon><polygon points="445.77 272.91 445.77 260.42 652.72 307.71 652.72 319.76 445.77 272.91" style="fill:#263238"></polygon><path d="M466,319.67s0-.15,0-.42,0-.72,0-1.18c0-1.11,0-2.57,0-4.36l.07.07-16.25,0c-.09.09.13-.13.1-.11h0v5.95l-.1-.1,11.61.05,3.4,0h.94l-.9,0-3.37,0-11.68,0h-.1v-6h0l.1-.1,16.25,0h.07v.07c0,1.8,0,3.28,0,4.4,0,.46,0,.84,0,1.17S466,319.67,466,319.67Z" style="fill:#263238"></path><g style="opacity:0.30000000000000004"><rect x="445.9" y="307.75" width="16.25" height="5.96"></rect></g><path d="M455,387.23s0-.15,0-.42,0-.72,0-1.19c0-1.1,0-2.57,0-4.35l.07.07-16.25,0c-.09.1.12-.12.1-.1h0v5.94l-.1-.1,11.61,0,3.4,0,.91,0h-.87l-3.37,0-11.68.05h-.1v-.1c0-.94,0-1.91,0-2.9v-3h0l.11-.11,16.25,0h.07v.07c0,1.8,0,3.28,0,4.39,0,.46,0,.85,0,1.17S455,387.23,455,387.23Z" style="fill:#263238"></path><g style="opacity:0.30000000000000004"><rect x="434.92" y="375.31" width="16.25" height="5.96"></rect></g><g style="opacity:0.30000000000000004"><rect x="455.37" y="347.49" width="16.25" height="5.96" style="fill:#fff"></rect></g><path d="M475.46,437.35s0-.15,0-.42,0-.72,0-1.19c0-1.1,0-2.57,0-4.35l.07.07-16.25,0,.1-.1h0v5.94l-.1-.1,11.61.05,3.4,0,.91,0h-.87l-3.37,0-11.68.05h-.1v-.1c0-.94,0-1.91,0-2.9v-3h0s.2-.2.11-.1l16.25,0h.07v.07c0,1.8,0,3.28,0,4.4,0,.45,0,.84,0,1.16S475.46,437.35,475.46,437.35Z" style="fill:#263238"></path><g style="opacity:0.30000000000000004"><rect x="455.36" y="425.43" width="16.25" height="5.96" style="fill:#fff"></rect></g><path d="M492.06,403.57s0-.15,0-.42,0-.72,0-1.18c0-1.11,0-2.57,0-4.36l.07.07-16.25,0,.11-.11h0v5.95l-.1-.1,11.61,0,3.4,0h.94l-.89,0-3.38,0-11.68,0h-.1v-6.05h0l.1-.1,16.25,0h.07v.07c0,1.8,0,3.28,0,4.4,0,.46,0,.84,0,1.17S492.06,403.57,492.06,403.57Z" style="fill:#263238"></path><path d="M527.47,334.53s0-.15,0-.43,0-.72,0-1.18c0-1.11,0-2.57,0-4.35l.07.07-16.25,0,.1-.1h0v5.94l-.1-.1,11.61,0,3.4,0h.92l.32,0h-1.19l-3.38,0-11.68.05h-.1v-6h0s.19-.2.1-.11l16.25,0h.07v.07c0,1.8,0,3.28,0,4.39,0,.46,0,.85,0,1.17S527.47,334.53,527.47,334.53Z" style="fill:#263238"></path><g style="opacity:0.30000000000000004"><rect x="507.37" y="322.61" width="16.25" height="5.96" style="fill:#fff"></rect></g><path d="M544.08,300.75s0-.15,0-.42,0-.72,0-1.19c0-1.1,0-2.57,0-4.35l.08.07-16.25,0,.1-.1h0v5.94l-.1-.1,11.61,0,3.39,0,.92,0h-.87l-3.37,0-11.68.05h-.11v-6h0l.11-.11,16.25,0h.07v.07c0,1.8,0,3.28,0,4.39,0,.46,0,.85,0,1.17S544.08,300.75,544.08,300.75Z" style="fill:#263238"></path><path d="M595.66,436.83s0-.15,0-.42,0-.72,0-1.19c0-1.1,0-2.56,0-4.35l.07.07-16.25,0c-.1.09.12-.13.1-.11h0v5.94l-.1-.1,11.61,0,3.4,0,.91,0h0l-.9,0-3.37,0-11.68.05h-.1v-.1c0-.94,0-1.91,0-2.9v-3h0s.2-.2.11-.1l16.25,0h.07v.07c0,1.8,0,3.28,0,4.4,0,.45,0,.84,0,1.16S595.66,436.83,595.66,436.83Z" style="fill:#263238"></path><g style="opacity:0.30000000000000004"><rect x="575.56" y="424.91" width="16.25" height="5.96"></rect></g><g style="opacity:0.30000000000000004"><rect x="596.01" y="397.09" width="16.25" height="5.96" style="fill:#fff"></rect></g><rect x="493.38" y="334.84" width="108.37" height="85.65" transform="translate(-59.06 104.78) rotate(-10.37)" style="fill:#263238"></rect><path d="M501.68,426.87c0-.08,23.78-4.58,53.15-10.05S608,407,608,407.08s-23.78,4.58-53.16,10.05S501.69,427,501.68,426.87Z" style="fill:#455a64"></path><path d="M501.15,422.79c0-.08,23.79-4.58,53.15-10.05s53.2-9.83,53.22-9.74-23.78,4.58-53.16,10.05S501.17,422.88,501.15,422.79Z" style="fill:#455a64"></path><path d="M500.63,418.72c0-.09,23.78-4.59,53.15-10.05S607,398.84,607,398.92s-23.78,4.59-53.16,10.05S500.64,418.8,500.63,418.72Z" style="fill:#455a64"></path><path d="M499.34,414.64c0-.08,23.79-4.58,53.15-10.05s53.2-9.83,53.22-9.74-23.78,4.58-53.16,10S499.36,414.73,499.34,414.64Z" style="fill:#455a64"></path><path d="M498.68,411c0-.08,23.79-4.58,53.15-10s53.2-9.83,53.22-9.74-23.78,4.58-53.16,10.05S498.7,411.12,498.68,411Z" style="fill:#455a64"></path><path d="M497.9,406.73c0-.09,23.78-4.59,53.15-10.05s53.19-9.83,53.21-9.75S580.48,391.52,551.1,397,497.91,406.81,497.9,406.73Z" style="fill:#455a64"></path><path d="M497.15,402.68c0-.09,23.79-4.59,53.16-10.05s53.19-9.83,53.21-9.75-23.78,4.59-53.16,10.06S497.17,402.76,497.15,402.68Z" style="fill:#455a64"></path><path d="M496.42,398.66c0-.09,23.78-4.59,53.15-10.06s53.2-9.82,53.21-9.74-23.78,4.58-53.15,10.05S496.43,398.74,496.42,398.66Z" style="fill:#455a64"></path><path d="M495.69,394.67c0-.09,23.78-4.59,53.15-10.05s53.2-9.83,53.21-9.75-23.78,4.59-53.15,10.06S495.7,394.75,495.69,394.67Z" style="fill:#455a64"></path><path d="M495,390.62c0-.09,23.78-4.59,53.15-10.05s53.19-9.83,53.21-9.75-23.78,4.59-53.16,10.05S495,390.7,495,390.62Z" style="fill:#455a64"></path><path d="M494.21,386.58c0-.08,23.78-4.58,53.15-10.05s53.2-9.83,53.21-9.74-23.78,4.58-53.15,10S494.22,386.67,494.21,386.58Z" style="fill:#455a64"></path><path d="M493.47,382.56c0-.08,23.79-4.58,53.15-10.05s53.2-9.83,53.22-9.74-23.78,4.58-53.16,10.05S493.49,382.65,493.47,382.56Z" style="fill:#455a64"></path><path d="M492.74,378.59c0-.08,23.79-4.58,53.16-10s53.19-9.83,53.21-9.74-23.78,4.58-53.16,10.05S492.76,378.68,492.74,378.59Z" style="fill:#455a64"></path><path d="M492,374.7c0-.09,23.79-4.59,53.15-10.05s53.2-9.83,53.22-9.75-23.78,4.59-53.16,10.05S492.05,374.78,492,374.7Z" style="fill:#455a64"></path><path d="M491.29,370.67c0-.09,23.79-4.59,53.15-10.05s53.2-9.83,53.22-9.75-23.78,4.59-53.16,10.05S491.31,370.75,491.29,370.67Z" style="fill:#455a64"></path><path d="M490.56,366.68c0-.09,23.79-4.59,53.15-10.05s53.2-9.83,53.22-9.75-23.78,4.59-53.16,10.06S490.58,366.76,490.56,366.68Z" style="fill:#455a64"></path><path d="M489.77,362.33c0-.08,23.78-4.58,53.15-10.05s53.2-9.83,53.21-9.74-23.78,4.58-53.15,10S489.78,362.42,489.77,362.33Z" style="fill:#455a64"></path><path d="M489,358.26c0-.08,23.79-4.58,53.15-10.05s53.2-9.83,53.22-9.74-23.78,4.58-53.16,10S489,358.35,489,358.26Z" style="fill:#455a64"></path><path d="M488.29,354.23c0-.08,23.78-4.58,53.15-10.05s53.19-9.83,53.21-9.74-23.78,4.58-53.16,10.05S488.3,354.32,488.29,354.23Z" style="fill:#455a64"></path><path d="M487.55,350.19c0-.08,23.78-4.58,53.15-10.05s53.19-9.83,53.21-9.74-23.78,4.58-53.16,10.05S487.56,350.28,487.55,350.19Z" style="fill:#455a64"></path><path d="M486.86,346.33c0-.08,23.78-4.58,53.15-10.05s53.19-9.83,53.21-9.74-23.78,4.58-53.16,10S486.87,346.42,486.86,346.33Z" style="fill:#455a64"></path><polygon points="435.59 425.1 360.28 425.1 360.28 227.72 435.59 208.28 435.59 425.1" style="fill:#455a64"></polygon><path d="M424.64,422.11s0-.16,0-.45,0-.75,0-1.32c0-1.17,0-2.87,0-5.07,0-4.43,0-10.88-.06-19,0-16.25-.07-39.21-.12-66.13l.24.25H371.22l.26-.26c0,35.1,0,67.28-.06,92l-.2-.2,38.95.11,10.7.05,2.8,0,1,0s-.31,0-.93,0l-2.76,0-10.66.06-39.07.1H371v-.2c0-24.69,0-56.87-.06-92v-.26h.27l53.41,0h.25v.24c0,27-.08,50-.11,66.29,0,8.1,0,14.53-.07,18.95,0,2.18,0,3.86,0,5,0,.55,0,1,0,1.28S424.64,422.11,424.64,422.11Z" style="fill:#263238"></path><rect x="360.62" y="422.11" width="78.9" height="14.92" style="fill:#263238"></rect><path d="M435.59,216c.14,0,.05,45.73-.21,102.12s-.58,102.14-.73,102.14,0-45.72.21-102.14S435.44,216,435.59,216Z" style="fill:#263238"></path><path d="M439.65,429.38c0,.14-17.69.26-39.51.26s-39.52-.12-39.52-.26,17.69-.27,39.52-.27S439.65,429.23,439.65,429.38Z" style="fill:#455a64"></path><path d="M434.78,323.48c0,.06-16.6.1-37.08.1s-37.08,0-37.08-.1,16.6-.11,37.08-.11S434.78,323.42,434.78,323.48Z" style="fill:#fafafa"></path><path d="M434.78,315.29c0,.06-16.6.11-37.08.11s-37.08,0-37.08-.11,16.6-.1,37.08-.1S434.78,315.24,434.78,315.29Z" style="fill:#fafafa"></path><path d="M434.78,307.11c0,.06-16.6.11-37.08.11s-37.08-.05-37.08-.11,16.6-.1,37.08-.1S434.78,307.05,434.78,307.11Z" style="fill:#fafafa"></path><path d="M434.78,298.93c0,.06-16.6.1-37.08.1s-37.08,0-37.08-.1,16.6-.11,37.08-.11S434.78,298.87,434.78,298.93Z" style="fill:#fafafa"></path><path d="M434.78,290.75c0,.05-16.6.1-37.08.1s-37.08-.05-37.08-.1,16.6-.11,37.08-.11S434.78,290.69,434.78,290.75Z" style="fill:#fafafa"></path><path d="M434.78,282.56c0,.06-16.6.11-37.08.11s-37.08-.05-37.08-.11,16.6-.1,37.08-.1S434.78,282.5,434.78,282.56Z" style="fill:#fafafa"></path><path d="M434.78,274.38c0,.06-16.6.1-37.08.1s-37.08,0-37.08-.1,16.6-.11,37.08-.11S434.78,274.32,434.78,274.38Z" style="fill:#fafafa"></path><path d="M434.78,266.2c0,.05-16.6.1-37.08.1s-37.08-.05-37.08-.1,16.6-.11,37.08-.11S434.78,266.14,434.78,266.2Z" style="fill:#fafafa"></path><path d="M434.78,258c0,.06-16.6.11-37.08.11s-37.08-.05-37.08-.11,16.6-.1,37.08-.1S434.78,258,434.78,258Z" style="fill:#fafafa"></path><path d="M434.78,249.83c0,.06-16.6.1-37.08.1s-37.08,0-37.08-.1,16.6-.11,37.08-.11S434.78,249.77,434.78,249.83Z" style="fill:#fafafa"></path><path d="M434.78,241.65s-16.6.1-37.08.1-37.08-.05-37.08-.1,16.6-.11,37.08-.11S434.78,241.59,434.78,241.65Z" style="fill:#fafafa"></path><path d="M434.78,233.46c0,.06-16.6.11-37.08.11s-37.08,0-37.08-.11,16.6-.1,37.08-.1S434.78,233.4,434.78,233.46Z" style="fill:#fafafa"></path><path d="M434.78,225.28c0,.06-16.6.1-37.08.1s-37.08,0-37.08-.1,16.6-.11,37.08-.11S434.78,225.22,434.78,225.28Z" style="fill:#fafafa"></path><path d="M434.78,217.1c0,.05-11.89.1-26.54.1s-26.55,0-26.55-.1,11.89-.11,26.55-.11S434.78,217,434.78,217.1Z" style="fill:#fafafa"></path><path d="M377.05,385.89c0-.05-.08-1.07-.13-2.72s-.11-3.92-.12-6.52l.25.25h-2.93l.26-.26h0v2.68c0,.87,0,1.7,0,2.49,0,1.52-.05,2.88-.07,4.05l-.17-.17a26.12,26.12,0,0,1,2.93.17,25.25,25.25,0,0,1-2.93.17H374v-.17c0-1.17,0-2.53-.06-4.05,0-.79,0-1.62,0-2.49,0-.43,0-.87,0-1.33v-1.35h0c.12-.11-.26.26.26-.26h3.19v.25c0,2.71-.06,5.06-.11,6.7A19.78,19.78,0,0,1,377.05,385.89Z" style="fill:#263238"></path><rect x="392.87" y="339.9" width="10.12" height="10.12" style="fill:#ebebeb"></rect><rect x="392.87" y="358.45" width="10.12" height="10.12" style="fill:#ebebeb"></rect><rect x="392.87" y="377.01" width="10.12" height="10.12" style="fill:#ebebeb"></rect><rect x="392.87" y="395.57" width="10.12" height="10.12" style="fill:#ebebeb"></rect><path d="M402,340.41a10,10,0,0,1-1.22,1.41c-.79.84-1.89,2-3.12,3.24s-2.37,2.39-3.19,3.19a11.18,11.18,0,0,1-1.39,1.25,11.86,11.86,0,0,1,1.23-1.41c.79-.84,1.89-2,3.12-3.24s2.36-2.38,3.19-3.19A10.76,10.76,0,0,1,402,340.41Z" style="fill:#fff"></path><path d="M398.71,342.53a6.49,6.49,0,0,1-1.4,1.45,6.56,6.56,0,0,1-1.62,1.21,7.29,7.29,0,0,1,1.41-1.45A7,7,0,0,1,398.71,342.53Z" style="fill:#fff"></path><path d="M401.22,359.3a7.63,7.63,0,0,1-1,1.28c-.66.76-1.58,1.8-2.61,2.94s-2,2.16-2.69,2.89a8.29,8.29,0,0,1-1.18,1.13,8.35,8.35,0,0,1,1-1.28c.66-.77,1.58-1.81,2.61-2.95s2-2.15,2.68-2.88A9,9,0,0,1,401.22,359.3Z" style="fill:#fff"></path><path d="M400.55,363a9,9,0,0,1-1.6,1.74,9.35,9.35,0,0,1-1.81,1.51,8.57,8.57,0,0,1,1.6-1.74A9.35,9.35,0,0,1,400.55,363Z" style="fill:#fff"></path><path d="M400.87,378.3a9.65,9.65,0,0,1-1,1.3c-.65.77-1.56,1.83-2.57,3s-1.95,2.19-2.64,2.93a10,10,0,0,1-1.16,1.16,8.1,8.1,0,0,1,1-1.3c.65-.78,1.55-1.84,2.57-3s1.95-2.19,2.64-2.93A8.52,8.52,0,0,1,400.87,378.3Z" style="fill:#fff"></path><path d="M397.63,379.78c.08,0-.26.68-.88,1.3a2.78,2.78,0,0,1-1.29.88c0-.08.48-.51,1.07-1.11S397.56,379.73,397.63,379.78Z" style="fill:#fff"></path><path d="M401.43,395.89a47.89,47.89,0,0,1-3.24,4.43,48.63,48.63,0,0,1-3.47,4.23,46.61,46.61,0,0,1,3.23-4.42A48.42,48.42,0,0,1,401.43,395.89Z" style="fill:#fff"></path><path d="M397.84,397.88a7.14,7.14,0,0,1-1.33,1.63,7,7,0,0,1-1.55,1.41,14.82,14.82,0,0,1,2.88-3Z" style="fill:#fff"></path><polygon points="360.63 238.85 360.63 221.6 480.5 181.37 480.5 199.1 360.63 238.85" style="fill:#455a64"></polygon><path d="M696.6,437c0,.14-149.31.26-333.45.26S29.68,437.17,29.68,437s149.27-.26,333.47-.26S696.6,436.88,696.6,437Z" style="fill:#263238"></path><path d="M160.16,437c-.15,0-.26-39.08-.26-87.27s.11-87.28.26-87.28.26,39.07.26,87.28S160.3,437,160.16,437Z" style="fill:#263238"></path><path d="M514.18,187.29s-.34.14-1,.38l-2.94,1.06-11.36,4C489,196.13,474.68,201,457,207c-35.43,11.93-84.43,28.23-138.57,46.17L179.7,299l-42,14-11.4,3.86-3,1c-.63.23-1,.4-.92.39s-.07,0,0,0l.18-.1c.16-.08.41-.18.73-.31.66-.25,1.65-.62,2.94-1.08,2.59-.93,6.43-2.26,11.37-3.95,9.89-3.38,24.23-8.2,42-14.13l138.64-46,138.61-46,42-14.09,11.39-3.89,3-1C513.83,187.39,514.18,187.29,514.18,187.29Z" style="fill:#263238"></path></g><g id="freepik--Stars--inject-89"><polygon points="414.38 175.48 415.03 186.72 424.7 188.06 415.13 188.59 414.38 199.1 413.11 188.59 403.48 188.06 413.15 186.73 414.38 175.48" style="fill:#e0e0e0"></polygon><polygon points="435.12 189.47 436.21 208.1 452.23 210.32 436.37 211.19 435.12 228.6 433.03 211.19 417.07 210.32 433.08 208.12 435.12 189.47" style="fill:#ebebeb"></polygon><polygon points="371.5 347.25 372.14 358.25 381.59 359.55 372.24 360.07 371.5 370.34 370.26 360.07 360.85 359.55 370.3 358.26 371.5 347.25" style="fill:#ebebeb"></polygon><polygon points="484.31 327.29 485.18 342.14 497.94 343.91 485.31 344.6 484.31 358.48 482.64 344.6 469.93 343.91 482.69 342.16 484.31 327.29" style="fill:#ebebeb"></polygon><polygon points="473.99 315.96 474.52 325.13 482.4 326.22 474.6 326.65 473.99 335.21 472.96 326.65 465.11 326.22 472.99 325.14 473.99 315.96" style="fill:#ebebeb"></polygon></g><g id="freepik--Plants--inject-89"><path d="M109.64,402a6.58,6.58,0,0,1,4,3.22,11.63,11.63,0,0,1,1.37,5.11c.22,3.43-1.09,7.17-2.67,10.22-3.27-2-4.69-6.17-5.28-8.34-.92-3.44-.5-10.21,2.53-10.21" style="fill:#455a64"></path><path d="M116.67,425.55a5.66,5.66,0,0,1,.86-5.61,7.49,7.49,0,0,1,5.14-2.67,3.16,3.16,0,0,1,2.58.65,2.42,2.42,0,0,1,.47,2.41,5,5,0,0,1-1.48,2.07c-2.18,2-4.65,3.49-7.57,3.15" style="fill:#455a64"></path><path d="M114.86,436.51a4,4,0,0,1,0-.71c0-.5,0-1.15,0-1.93a19.85,19.85,0,0,1,.87-6.31,12.09,12.09,0,0,1,3.48-5.31,8.13,8.13,0,0,1,1.61-1.08c.2-.11.37-.17.48-.22s.17-.07.17-.06a12.85,12.85,0,0,0-2.15,1.49,12.61,12.61,0,0,0-3.35,5.26,21.1,21.1,0,0,0-.93,6.23c0,.82-.06,1.48-.09,1.93A3.16,3.16,0,0,1,114.86,436.51Z" style="fill:#263238"></path><path d="M109.78,407.21s0,.1.08.3.12.5.21.86c.17.74.41,1.82.69,3.16.57,2.68,1.3,6.4,2,10.52s1.27,7.86,1.64,10.57c.18,1.36.32,2.46.41,3.22,0,.36.07.65.1.88a1.82,1.82,0,0,1,0,.31,1.39,1.39,0,0,1-.06-.3l-.15-.87c-.12-.79-.28-1.88-.48-3.21-.42-2.71-1-6.44-1.71-10.56s-1.42-7.83-1.94-10.52c-.26-1.32-.46-2.4-.62-3.18-.06-.36-.11-.65-.16-.87A1.2,1.2,0,0,1,109.78,407.21Z" style="fill:#263238"></path><path d="M112.13,428.46a13.24,13.24,0,0,0-8.8-8.27c-1-.28-2.31-.36-3,.48s-.25,2.08.3,3a11.29,11.29,0,0,0,11.45,5.09" style="fill:#455a64"></path><path d="M104.36,423.3a4.39,4.39,0,0,1,.65.16c.2.06.46.13.74.24a8.45,8.45,0,0,1,1,.39,9.9,9.9,0,0,1,1.12.57,12.18,12.18,0,0,1,1.22.77,13.45,13.45,0,0,1,4.31,5,13.45,13.45,0,0,1,.58,1.33,9.54,9.54,0,0,1,.38,1.19,8.75,8.75,0,0,1,.23,1,5.37,5.37,0,0,1,.11.78,4,4,0,0,1,0,.66c-.06,0-.13-.94-.56-2.4a14.47,14.47,0,0,0-1-2.46,14.41,14.41,0,0,0-1.83-2.69,15.65,15.65,0,0,0-2.4-2.2,14,14,0,0,0-1.19-.77,12.13,12.13,0,0,0-1.1-.59C105.26,423.59,104.34,423.36,104.36,423.3Z" style="fill:#263238"></path><path d="M247.36,379.2l8.19,58.35,2.14.07C256.33,417.8,254.88,397.59,247.36,379.2Z" style="fill:#455a64"></path><path d="M270.12,376.46c-5.73,6.27-8,14.9-9.48,23.27-2.05,11.86-2.24,25.87-1.62,37.89l3,.07A164.58,164.58,0,0,1,270.12,376.46Z" style="fill:#455a64"></path><path d="M248.86,413.72a24.15,24.15,0,0,0-3.06-8.29c-2.23-3.33-5.86-5.43-9.51-7.07s-7.5-2.95-10.8-5.22c3.68,6,12,7.65,16.3,13.3,2.12,2.81,3,6.34,3.83,9.76,1.81,7.46,2.93,13.92,4.74,21.38h2.42A190.48,190.48,0,0,0,248.86,413.72Z" style="fill:#455a64"></path><path d="M264.19,437.62s2.05-23.17,3.57-27.43,15.91-16,15.77-15.46-10.79,13.42-12.31,16-4.15,26.84-4.15,26.84Z" style="fill:#455a64"></path><path d="M135.47,336.14s-5.73.82-2.45,13.36a149,149,0,0,0,6,19s.44,2.84-1.85,2.76-7-1.91-8.55.57-.18,5.66,3.43,8.88,11.27,10.55,12,11.22,1.19,2-.38,2.24-12.73-1.05-13,4.28,11.25,12.64,12.5,13.47,1.44,1.47,1.17,2.19-4-.05-7.18-.28-6.93.07-6.83,3.16,6.17,10.87,23.81,16.59l8.35,2.12,6.13-6.1C181,415.75,182.26,406,180.79,403.25s-4.86-1.08-7.5.72-5.45,4.36-6,3.87-.76-1.14-.1-2.48,6.92-13.48,4-17.94-11.93,2.26-13.39,2.89-1.71-.84-1.46-1.75,3.16-11.12,4.65-15.73,1.18-8-1.53-9.39-5.72,2.61-7.66,3.83-3-1.45-3-1.45a149.43,149.43,0,0,0-4.39-19.44c-3.51-12.48-9-10.22-9-10.22" style="fill:#C4834C"></path><path d="M162.38,435.77c-2.54-9.17-6.67-23.55-10.38-37.59s-7.09-26.75-9.58-35.94c-1.25-4.58-2.26-8.29-3-10.87l-.81-3c-.08-.33-.15-.59-.2-.77l-.06-.27a2.32,2.32,0,0,1,.09.26l.23.77c.19.68.48,1.67.85,2.94.74,2.56,1.78,6.27,3,10.85,2.54,9.18,6,21.88,9.66,35.92s7.81,28.43,10.3,37.61" style="fill:#263238"></path><path d="M135.12,374.67a2.19,2.19,0,0,1,.55.29c.34.2.84.5,1.44.89,1.21.77,2.85,1.87,4.63,3.12l4.57,3.23,1.39,1a2.76,2.76,0,0,1,.49.38,3.65,3.65,0,0,1-.55-.29c-.35-.2-.84-.51-1.44-.9-1.2-.78-2.82-1.91-4.61-3.16L137,376c-.56-.39-1-.71-1.4-1A2.84,2.84,0,0,1,135.12,374.67Z" style="fill:#263238"></path><path d="M148.19,383.87c-.06,0,2.07-3.52,4.76-7.77s4.92-7.67,5-7.63-2.07,3.52-4.76,7.77S148.26,383.91,148.19,383.87Z" style="fill:#263238"></path><path d="M153.88,404.54a3.3,3.3,0,0,1,.45-.44l1.3-1.14c1.09-1,2.59-2.31,4.2-3.86s3-3,4-4c.47-.5.87-.91,1.2-1.25a2.86,2.86,0,0,1,.46-.44,2.84,2.84,0,0,1-.39.51c-.26.32-.64.76-1.13,1.31-1,1.08-2.37,2.55-4,4.1s-3.13,2.87-4.26,3.8c-.56.46-1,.83-1.35,1.08A2.25,2.25,0,0,1,153.88,404.54Z" style="fill:#263238"></path><path d="M139.74,399.83a2.48,2.48,0,0,1,.57.13l1.53.47c1.28.4,3.06,1,5,1.63s3.71,1.25,5,1.7l1.5.55a2.51,2.51,0,0,1,.54.23,2.27,2.27,0,0,1-.57-.13l-1.53-.47c-1.29-.4-3.06-1-5-1.63s-3.71-1.25-5-1.7l-1.51-.55A2,2,0,0,1,139.74,399.83Z" style="fill:#263238"></path><path d="M141.51,419.2a5.22,5.22,0,0,1,.73.18l2,.59c1.65.51,3.93,1.23,6.44,2s4.78,1.56,6.42,2.11l1.93.67a3.26,3.26,0,0,1,.7.28,4.33,4.33,0,0,1-.73-.18l-2-.59c-1.65-.51-3.93-1.23-6.44-2s-4.78-1.55-6.42-2.11l-1.93-.67A3.26,3.26,0,0,1,141.51,419.2Z" style="fill:#263238"></path><path d="M159.69,424.85a5.16,5.16,0,0,1,.57-.58l1.59-1.51c1.34-1.27,3.18-3,5.16-5.05s3.74-3.88,5-5.24l1.49-1.61a4.72,4.72,0,0,1,.57-.57,4.33,4.33,0,0,1-.49.64c-.33.4-.82,1-1.43,1.67-1.22,1.39-2.95,3.28-4.94,5.29s-3.85,3.77-5.23,5c-.68.62-1.25,1.12-1.64,1.45A3.41,3.41,0,0,1,159.69,424.85Z" style="fill:#263238"></path></g><g id="freepik--Character--inject-89"><path d="M517.05,201c-9.95,11.34-26.41,31.1-36.16,46.24-4.86,7.55-8.69,14-10.38,19l26.25,6.44,26-36.22Z" style="fill:#f2b797"></path><path d="M485.92,268.06s15.71.13,16.81.77,8.91,10.51,8.91,10.51l-2.2,8.83a2.51,2.51,0,0,1-2.63-1.74,42.57,42.57,0,0,1-.81-6.87l-2.8-2.5,1,17.73a8.38,8.38,0,0,1-3.61-2.88C499.43,290,496.8,276,496.8,276l-3.1.49,1.7,10.16-2.75,6.7s-3.73-1.65-2.68-5.17l.47-2.59-2.26-10.47-2.7,11.58s-3.1.13-2.8-2.5.54-10.86.54-10.86-9.54-3.65-9.46-8.31Z" style="fill:#f2b797"></path><path d="M511.64,279.34a10.41,10.41,0,0,1-1.15-1.23l-3-3.48c-1.26-1.47-2.76-3.24-4.47-5.15-.21-.21-.44-.52-.63-.56a6,6,0,0,0-.93-.24c-.64-.13-1.32-.22-2-.31-1.38-.18-2.82-.33-4.29-.46-5.9-.54-11.25-.89-15.13-1.18l-4.58-.34a11.36,11.36,0,0,1-1.68-.19,10,10,0,0,1,1.69,0c1.08,0,2.65.09,4.59.18,3.89.19,9.25.49,15.16,1,1.47.14,2.92.29,4.31.47.69.1,1.37.19,2,.33a6.3,6.3,0,0,1,1,.27c.44.19.57.48.81.7,1.7,1.94,3.16,3.73,4.4,5.23s2.21,2.73,2.88,3.59A10.08,10.08,0,0,1,511.64,279.34Z" style="fill:#dd8f6c"></path><path d="M490.91,271.43a6.81,6.81,0,0,1,2.86,6.19c-.15,0-.26-1.55-1.07-3.26S490.8,271.54,490.91,271.43Z" style="fill:#dd8f6c"></path><path d="M499.78,271.58c0-.06.49.05,1.11.47a5.67,5.67,0,0,1,2.37,5.12c-.08.75-.29,1.17-.35,1.15s0-.46,0-1.17a6.73,6.73,0,0,0-2.23-4.81C500.14,271.88,499.75,271.65,499.78,271.58Z" style="fill:#dd8f6c"></path><path d="M538.52,191.15s-17.41,1.68-22,5.14c-2.32,1.74-23,29.8-23,29.8.25.52,19.23,27.8,19.23,27.8l7.64-7.75,7,32.92,88,20.12-9.79-101.33S567.24,188.92,538.52,191.15Z" style="fill:#455a64"></path><path d="M532,191.88s18.95,42.46,34,49.77c0,0,24.68-14.49,33.26-45.53C599.24,196.12,567.32,185.75,532,191.88Z" style="fill:#f2b797"></path><path d="M650.73,253.9c-8.92-15.65-24.3-36.26-33.62-48.11L609.69,238,632,270.27c-3.32-1.12-33.51,25.05-33.51,25.05l9.73,15.58c14.1-5,42.38-19.35,48-24C664.3,280.43,660.44,270.92,650.73,253.9Z" style="fill:#f2b797"></path><path d="M601.27,293.52h0c-.63.22-14.72,10.09-14.72,10.09a110.69,110.69,0,0,0-8.34,19.28c.08,1.85,1.26,15.27,1.65,17,.64,2.93,3.76,2.26,3.71,1.22-.11-2.27-.1-10.78-.1-10.78l1.81,11.75.48,2.57s.31,1.39,1.55,1.3c1.79-.13,2.31-1.09,2.37-2.86.07-1.92-1-16.24-1-16.24l3.48,15.75a1.62,1.62,0,0,0,2.09,1.31c1.58-.4,1.82-2.15,1.62-4.48a1.54,1.54,0,0,0,.83.23,2.38,2.38,0,0,0,2.12-2.7c0-1.67,0-22,0-22l13.57-5.72Z" style="fill:#f2b797"></path><path d="M581.73,322.32a3.38,3.38,0,0,1,.27.9c.15.58.34,1.43.57,2.49.46,2.1,1.06,5,1.66,8.26s1.09,6.17,1.38,8.31c.15,1.07.25,1.93.3,2.53a4.18,4.18,0,0,1,0,.94,3.37,3.37,0,0,1-.21-.91c-.12-.69-.27-1.53-.45-2.51-.4-2.23-.93-5.1-1.51-8.28s-1.11-6.05-1.52-8.28c-.17-1-.31-1.82-.43-2.52A4,4,0,0,1,581.73,322.32Z" style="fill:#dd8f6c"></path><path d="M587.83,323.39c.12,0,1.19,4.26,2.39,9.58s2.06,9.65,1.94,9.67-1.19-4.26-2.38-9.57S587.71,323.42,587.83,323.39Z" style="fill:#dd8f6c"></path><path d="M594,324.73a64.28,64.28,0,0,1,1.19,7.66,68.3,68.3,0,0,1,.74,7.71,63.84,63.84,0,0,1-1.19-7.66A68.1,68.1,0,0,1,594,324.73Z" style="fill:#dd8f6c"></path><path d="M579.25,334.85a3.22,3.22,0,0,1-.16-.89c-.08-.68-.18-1.5-.29-2.47-.23-2.09-.51-5-.8-8.22v0l0-.05c.07-.21.16-.44.24-.66,1.19-3.2,2.28-6.09,3.1-8.18l1-2.45a3.8,3.8,0,0,1,.42-.88,3.79,3.79,0,0,1-.26.94c-.23.68-.51,1.52-.85,2.51-.74,2.11-1.79,5-3,8.21l-.25.66v-.09c.28,3.24.51,6.14.66,8.24.06,1,.11,1.79.15,2.47A3.75,3.75,0,0,1,579.25,334.85Z" style="fill:#dd8f6c"></path><path d="M652.71,275.22a30,30,0,0,1-2.77-1.85,25,25,0,0,0-7.27-3.12,24.66,24.66,0,0,0-7.88-.61,28,28,0,0,1-3.32.34,8.83,8.83,0,0,1,3.25-.94,21.09,21.09,0,0,1,15.56,3.83A8.39,8.39,0,0,1,652.71,275.22Z" style="fill:#dd8f6c"></path><path d="M618.1,203.7c-3.78-4.92-12.6-5.85-12.6-5.85l3.57,43.41,9.83,13.68,20.23-23.5S621.88,208.62,618.1,203.7Z" style="fill:#455a64"></path><path d="M547.57,261.76a11.88,11.88,0,0,1-3.07.34,14.82,14.82,0,0,1-12.54-7,11.62,11.62,0,0,1-1.32-2.79,8.18,8.18,0,0,1,.35.75,15,15,0,0,0,1.1,2,15.36,15.36,0,0,0,5.34,5A15.56,15.56,0,0,0,544.5,262a15.3,15.3,0,0,0,2.25-.1A7.69,7.69,0,0,1,547.57,261.76Z" style="fill:#263238"></path><path d="M602.06,262a16.28,16.28,0,0,1-3.42,1.28,20.14,20.14,0,0,1-3.92.62,21.55,21.55,0,0,1-9.53-1.58,21,21,0,0,1-3.51-1.86,16.39,16.39,0,0,1-2.82-2.32l.21.15.55.47a10.54,10.54,0,0,0,.9.71,14.58,14.58,0,0,0,1.24.86,21.34,21.34,0,0,0,3.5,1.81,23.89,23.89,0,0,0,4.64,1.31,23.6,23.6,0,0,0,4.81.26,21,21,0,0,0,3.89-.58,14.79,14.79,0,0,0,1.46-.41,9.34,9.34,0,0,0,1.08-.38l.67-.26A.86.86,0,0,1,602.06,262Z" style="fill:#263238"></path><path d="M614.19,202s0,.12-.11.35-.22.61-.35,1c-.33.85-.75,2.09-1.25,3.64a79.68,79.68,0,0,0-2.83,12.38,78.88,78.88,0,0,0-.79,12.67c0,1.63.08,2.94.15,3.85,0,.4,0,.75.06,1a2.43,2.43,0,0,1,0,.36s0-.12-.05-.36-.06-.64-.1-1c-.09-.91-.17-2.23-.22-3.86a74.05,74.05,0,0,1,.73-12.7,75.22,75.22,0,0,1,2.9-12.39c.51-1.55,1-2.79,1.31-3.63.15-.37.28-.69.39-1Z" style="fill:#263238"></path><path d="M514.15,209a2.61,2.61,0,0,1,.08.37c0,.32.1.68.17,1.1.16,1,.37,2.4.61,4,.52,3.4,1.26,8.09,2.15,13.25s1.76,9.84,2.41,13.21c.31,1.62.56,3,.76,4,.08.42.15.78.2,1.09a3.58,3.58,0,0,1,.06.38s0-.13-.1-.37-.14-.67-.24-1.08c-.21-1-.49-2.38-.83-4-.68-3.37-1.57-8-2.46-13.2s-1.61-9.86-2.09-13.27c-.22-1.63-.41-3-.55-4-.05-.42-.1-.79-.13-1.1S514.15,209,514.15,209Z" style="fill:#263238"></path><path d="M541.71,212.23a5.59,5.59,0,0,1-1.17-.21c-.75-.16-1.82-.43-3.14-.8a104.21,104.21,0,0,1-10.15-3.39,105.68,105.68,0,0,1-9.76-4.4c-1.21-.63-2.18-1.17-2.84-1.56a5.4,5.4,0,0,1-1-.64,4.81,4.81,0,0,1,1.1.47l2.92,1.4c2.46,1.17,5.9,2.72,9.78,4.24s7.45,2.72,10.06,3.53l3.09.95A4.84,4.84,0,0,1,541.71,212.23Z" style="fill:#C4834C"></path><path d="M552.93,231.94a7.6,7.6,0,0,1-1.52-.39c-1-.28-2.35-.71-4.06-1.27-3.41-1.12-8.1-2.76-13.21-4.75s-9.68-3.95-12.95-5.43c-1.64-.74-3-1.36-3.86-1.81a10,10,0,0,1-1.38-.73,8.3,8.3,0,0,1,1.46.55l3.92,1.65c3.31,1.4,7.89,3.3,13,5.28s9.76,3.68,13.14,4.89l4,1.43A9.66,9.66,0,0,1,552.93,231.94Z" style="fill:#C4834C"></path><path d="M607.19,229a4.35,4.35,0,0,1-1.08.42c-.7.24-1.73.55-3,.88a68,68,0,0,1-20.55,2.07c-1.33-.08-2.4-.17-3.13-.27a5.5,5.5,0,0,1-1.14-.19,4.49,4.49,0,0,1,1.15,0c.74,0,1.81.07,3.13.1A83.69,83.69,0,0,0,603,230c1.29-.28,2.33-.53,3-.71A5.22,5.22,0,0,1,607.19,229Z" style="fill:#C4834C"></path><path d="M609.65,212.54a13.42,13.42,0,0,1-2.62.76c-1.65.38-3.94.81-6.5,1.13s-4.9.44-6.58.47a12.56,12.56,0,0,1-2.74-.11,17.85,17.85,0,0,1,2.72-.26c1.68-.12,4-.31,6.53-.62s4.84-.69,6.49-1A15.74,15.74,0,0,1,609.65,212.54Z" style="fill:#C4834C"></path><path d="M610.7,202.59c-.05.15-2.83-.88-6.43-1.32s-6.55-.17-6.57-.33a5.78,5.78,0,0,1,1.93-.32,23.4,23.4,0,0,1,4.7.13,23.67,23.67,0,0,1,4.59,1.05A5.79,5.79,0,0,1,610.7,202.59Z" style="fill:#C4834C"></path><path d="M626.56,214.84a4.07,4.07,0,0,1-.73.86l-2.09,2.23c-1.76,1.89-4.13,4.56-6.52,7.68s-4.33,6.12-5.69,8.32c-.63,1-1.17,1.89-1.6,2.6a5.15,5.15,0,0,1-.64.94,4.36,4.36,0,0,1,.46-1c.32-.65.82-1.58,1.46-2.7a79.29,79.29,0,0,1,5.6-8.44,78.42,78.42,0,0,1,6.66-7.63c.92-.91,1.68-1.64,2.22-2.12A4.87,4.87,0,0,1,626.56,214.84Z" style="fill:#C4834C"></path><path d="M634.85,226.89a4.76,4.76,0,0,1-.88.76c-.58.45-1.42,1.12-2.43,2a74.91,74.91,0,0,0-7.48,7.09,77.21,77.21,0,0,0-6.43,8.06c-.75,1.08-1.34,2-1.75,2.6a5,5,0,0,1-.67.93,5,5,0,0,1,.5-1c.35-.65.9-1.58,1.62-2.7a61.53,61.53,0,0,1,14-15.23c1.05-.81,1.92-1.43,2.54-1.84A4.7,4.7,0,0,1,634.85,226.89Z" style="fill:#C4834C"></path><path d="M611.47,250.89a.81.81,0,0,1-.24.06l-.7.12-2.69.41c-1.17.18-2.61.37-4.28.54s-3.58.41-5.69.54l-3.32.24c-1.15.08-2.36.11-3.6.16-2.49.14-5.15.13-8,.15-5.6-.06-11.76-.35-18.19-1s-12.51-1.73-18-2.86c-2.74-.61-5.34-1.16-7.74-1.82-1.21-.32-2.38-.6-3.49-.92l-3.19-.94c-2-.57-3.85-1.21-5.44-1.73s-3-1-4.07-1.44l-2.55-1-.66-.26a.7.7,0,0,1-.22-.11.67.67,0,0,1,.24.06l.68.21,2.57.88c1.12.39,2.49.86,4.1,1.35s3.41,1.11,5.45,1.66l3.2.9c1.11.31,2.28.58,3.48.89,2.41.64,5,1.17,7.74,1.77,5.47,1.1,11.54,2.1,18,2.81s12.56,1,18.14,1.06c2.8,0,5.45,0,7.94-.1,1.24-.05,2.44-.06,3.59-.13l3.31-.21c2.11-.1,4-.32,5.69-.46s3.11-.31,4.28-.46l2.71-.31.7-.06A.69.69,0,0,1,611.47,250.89Z" style="fill:#C4834C"></path><path d="M576.75,262.91a31.22,31.22,0,0,1-3.72-.33c-2.29-.24-5.46-.51-9-.66s-6.69-.13-9-.09a31,31,0,0,1-3.73,0,4.42,4.42,0,0,1,1-.17c.64-.07,1.57-.15,2.73-.22a90.1,90.1,0,0,1,9-.06c3.52.15,6.7.48,9,.81,1.15.17,2.07.32,2.7.45A4.31,4.31,0,0,1,576.75,262.91Z" style="fill:#C4834C"></path><path d="M534.67,259.33c0,.14-2.28-.48-5.09-1s-5.12-.66-5.12-.82a16.14,16.14,0,0,1,5.21.31A16,16,0,0,1,534.67,259.33Z" style="fill:#C4834C"></path><path d="M613.16,279.94a8.72,8.72,0,0,1-.88.08l-2.55.16c-2.21.13-5.41.24-9.37.31s-8.68,0-13.91-.1-11-.46-17-1-11.75-1.18-16.94-1.89-9.84-1.49-13.73-2.22-7-1.38-9.19-1.87l-2.49-.58a4.92,4.92,0,0,1-.86-.23,5.5,5.5,0,0,1,.88.13l2.51.48c2.17.44,5.31,1,9.21,1.7s8.55,1.41,13.73,2.12,10.91,1.33,16.92,1.84,11.76.81,17,1,9.94.24,13.89.21,7.16-.08,9.37-.15l2.55-.05A4.62,4.62,0,0,1,613.16,279.94Z" style="fill:#C4834C"></path><path d="M612.14,259.37a14.49,14.49,0,0,1-3.83.76,15.15,15.15,0,0,1-3.89.24,14.61,14.61,0,0,1,3.83-.76A15.15,15.15,0,0,1,612.14,259.37Z" style="fill:#C4834C"></path><path d="M516.75,243.31a4.5,4.5,0,0,1-.86-.77c-.53-.52-1.28-1.29-2.19-2.26-1.82-1.93-4.27-4.67-6.84-7.81s-4.78-6.06-6.33-8.22c-.77-1.08-1.38-2-1.79-2.59a4.7,4.7,0,0,1-.59-1,5.25,5.25,0,0,1,.76.88l1.92,2.49c1.61,2.1,3.87,5,6.43,8.11s5,5.9,6.71,7.9L516,242.4A6.12,6.12,0,0,1,516.75,243.31Z" style="fill:#C4834C"></path><path d="M513,218.7a25.9,25.9,0,0,1-3.87-3.38,25.33,25.33,0,0,1-3.52-3.76,25.67,25.67,0,0,1,3.88,3.38A24.91,24.91,0,0,1,513,218.7Z" style="fill:#C4834C"></path><g style="opacity:0.30000000000000004"><path d="M548.15,262a7.68,7.68,0,0,0-2.62,0c-5.62.47-11-3.14-14.1-7.88a17.08,17.08,0,0,0,15.24,11.41,4.39,4.39,0,0,0,1.87-.24,1.79,1.79,0,0,0,1.15-1.39A1.94,1.94,0,0,0,548.15,262Z"></path></g><g style="opacity:0.30000000000000004"><path d="M579.67,259.32c2.79,3.56,6.33,6.75,10.67,8s9.56.2,12.3-3.4a1.38,1.38,0,0,0,.35-1.27c-.28-.63-1.2-.52-1.87-.32A26.36,26.36,0,0,1,580,259.42"></path></g><path d="M610.18,140.28a2.4,2.4,0,0,0,1-4c1.22-.67.88-2.6-.08-3.61s-2.32-1.64-3.07-2.82a2.86,2.86,0,0,0,3.42-2.47,2.33,2.33,0,0,0,1.47-4.28c1.31-.11,1.2-2.27.11-3s-2.53-.67-3.71-1.23a15.49,15.49,0,0,0-8.19-4.81l5.34-4a3.18,3.18,0,0,0,1.08-1.14c.46-1.06-.37-2.23-1.25-3a12.56,12.56,0,0,0-6.64-2.9c-.78-.09-1.78,0-2,.78a11.1,11.1,0,0,0-5.41-.61,4.33,4.33,0,0,0-2.89.88,8.57,8.57,0,0,1,1.91-2.39A3.68,3.68,0,0,0,592.45,99c-.11-1-1.34-1.9-2.19-1.33,1-.44.83-2,0-2.64a4.72,4.72,0,0,0-3-.74c-.73,0-1.66.1-1.86.8-.34-1.63-3.13-1.86-3.72-.3a2.53,2.53,0,0,0-3.65.29,3.26,3.26,0,0,0-4.61,1.71l2.84-4.76c.54-.9.63-2.59-.41-2.48,1.5,0,2.35-2,1.62-3.34a3.88,3.88,0,0,0-3.9-1.62l-1.3,1.88a3,3,0,0,0-4.52,3.29,1.53,1.53,0,0,0-2.25.45,4.45,4.45,0,0,0-.43,2.56,2.53,2.53,0,0,0-3.92,2.09,8.19,8.19,0,0,0-4.29-.89,2.91,2.91,0,0,0-3.79-4.13,2.87,2.87,0,0,0-3.7-2.33c-.46-1.74-2.74-3-4.12-1.87s-.66,3.47.22,5.11l2.85,5.32-9.29-5a1.65,1.65,0,0,0-.93-.27c-.44.05-.76.46-1.16.66-.56.28-1.24.14-1.84.32-1.64.51-1.61,3-.49,4.3s2.84,1.92,4.11,3.07l-4.13.78a4.23,4.23,0,0,0-5.44-2.86c-.56-1.52-2.61-1.71-4.23-1.65-1.45.06-3.05.19-4.08,1.21-1.32,1.32-1.07,3.63,0,5.12a11.85,11.85,0,0,0,4.51,3.19c-.28,1.24-1.88,1.62-3.13,1.43s-2.56-.67-3.74-.23c-1.61.61-2.29,2.69-3.91,3.28a6.05,6.05,0,0,0-1.47.49,2.93,2.93,0,0,0-1,1.92l-.6,2.68a3.22,3.22,0,0,0-.11,1.34c.29,1.46,2.33,1.77,3.7,1.21s2.55-1.65,4-1.86c-1.94,1-4,2-5.07,3.91s-.64,4.78,1.4,5.52,4.09-1.05,5.6-2.65,3.66-3.29,5.65-2.38" style="fill:#263238"></path><path d="M607.2,139a2.65,2.65,0,0,1,4,2.3,5.53,5.53,0,0,1,2.07,9.55c-1.22,1-3.64,1.07-3.9-.51a4.33,4.33,0,0,1-3.05,2.66,4.16,4.16,0,0,1-1.68,5.9c2.48,1.71,2,6.21-.77,7.36a3.4,3.4,0,1,1-6.21,2.78,7.14,7.14,0,0,1-2.27,3.39c-1.14.78-3,.64-3.58-.61a4.68,4.68,0,0,1-6.66,2.8,3,3,0,0,1-5.94,1.05l-7.78.59a27.91,27.91,0,0,1-5.17.08,14.08,14.08,0,0,1-6.16-2.24,4.71,4.71,0,0,0-1.89-.93,4.83,4.83,0,0,0-2.35.57,12.64,12.64,0,0,1-12.19-1.8,6.29,6.29,0,0,0-1.69-1.12,5.48,5.48,0,0,0-2.32-.12,22.84,22.84,0,0,1-5.72-.33c-1.62-.3-3.34-.88-4.21-2.27s-.19-3.72,1.45-3.84a3.55,3.55,0,0,0-1.12-2.88,2.13,2.13,0,0,0-2.89.13,1.53,1.53,0,0,0,.92,2.42c-1.66,1.37-4.54-.1-4.76-2.23s1.74-4.09,3.87-4.29a9.73,9.73,0,0,1-.52-4.69,3.47,3.47,0,0,1-4.67.94,5.94,5.94,0,0,1-3.62,3.1,3.57,3.57,0,0,1-4.12-1.81c-.64-1.51.52-3.57,2.15-3.52a3.09,3.09,0,0,1,2.35-4.68,4.82,4.82,0,0,1,2.48-5.33,2.51,2.51,0,0,1-3.69-1.07c-.86,1.65-3.3,1.47-5,.67-1.31-.62-2.6-1.56-2.4-3.47a3.81,3.81,0,0,1,1.19-2.33c1.54-1.46,3.68-1.72,5.72-1.95a24.72,24.72,0,0,0,1.72-8,4.8,4.8,0,0,1-5.2-3.46l11.27-7s26.09-4,27-4,55.46,28.08,55.46,28.08c1.26,1.32,3.72.72,4.65-.85a5.08,5.08,0,0,0-.44-5.18,14.85,14.85,0,0,0-4-3.7c1.75-.12,3.61-.28,4.9-1.55a2.79,2.79,0,0,0,.75-3c-.63-1.5-2.37-1.4-3.48-2.25a6.24,6.24,0,0,1-1.44-2" style="fill:#263238"></path><path d="M579.46,120.94l-29-7.53c-9.28-1-15.53,10.35-16.18,19.66-.72,10.35-1.19,23,0,30.74,2.36,15.55,14.25,17.61,14.25,17.61s0,2.26,0,7.91l.31,3.22,32.34.57,3.08-66.61A5.47,5.47,0,0,0,579.46,120.94Z" style="fill:#f2b797"></path><path d="M539.5,144.39a2,2,0,0,0,1.91,2,1.91,1.91,0,0,0,2.07-1.78,2,2,0,0,0-1.91-2A1.91,1.91,0,0,0,539.5,144.39Z" style="fill:#263238"></path><path d="M537,139.68c.25.26,1.77-.85,3.91-.83s3.71,1.11,3.94.85-.13-.59-.81-1.09a5.46,5.46,0,0,0-3.16-1,5.27,5.27,0,0,0-3.11,1C537.14,139.09,536.91,139.56,537,139.68Z" style="fill:#263238"></path><path d="M560.15,145.13a2,2,0,0,0,1.91,2,1.9,1.9,0,0,0,2.06-1.78,2,2,0,0,0-1.9-2A1.91,1.91,0,0,0,560.15,145.13Z" style="fill:#263238"></path><path d="M558.1,140.22c.25.26,1.77-.84,3.91-.82s3.71,1.1,3.94.84-.13-.59-.82-1.09a5.5,5.5,0,0,0-3.15-1,5.26,5.26,0,0,0-3.11,1C558.21,139.64,558,140.11,558.1,140.22Z" style="fill:#263238"></path><path d="M550.22,156.07a13.58,13.58,0,0,0-3.48-.66c-.55-.06-1.07-.17-1.16-.54a2.83,2.83,0,0,1,.38-1.62c.52-1.32,1.07-2.71,1.65-4.16,2.29-5.92,3.95-10.79,3.71-10.88s-2.29,4.64-4.58,10.56L545.16,153a3.2,3.2,0,0,0-.3,2.15,1.39,1.39,0,0,0,.9.8,3.82,3.82,0,0,0,.93.14A14.22,14.22,0,0,0,550.22,156.07Z" style="fill:#263238"></path><path d="M548.56,181.42A39.44,39.44,0,0,0,569.4,176s-5.3,10.74-20.84,9.18Z" style="fill:#dd8f6c"></path><path d="M550,160.9a5.42,5.42,0,0,1,4.46-2.36,3.28,3.28,0,0,1,2.75,5.13,3.37,3.37,0,0,1-3.56,1.29,8,8,0,0,1-3.19-2,2.51,2.51,0,0,1-.68-.83,1.13,1.13,0,0,1,.1-1.11" style="fill:#dd8f6c"></path><path d="M556.51,157.59c-.35,0-.37,2.31-2.37,3.94s-4.48,1.37-4.5,1.69c0,.15.55.46,1.6.5a5.79,5.79,0,0,0,3.75-1.28,5,5,0,0,0,1.84-3.31C556.93,158.16,556.67,157.58,556.51,157.59Z" style="fill:#263238"></path><path d="M557.16,135.27c.21.59,2.35.33,4.87.65s4.54,1,4.88.5c.15-.25-.2-.8-1-1.37a8.54,8.54,0,0,0-7.42-.87C557.54,134.54,557.07,135,557.16,135.27Z" style="fill:#263238"></path><path d="M537.87,133.48c.37.49,1.85,0,3.62,0s3.28.35,3.63-.15c.16-.25-.08-.74-.73-1.21a5.07,5.07,0,0,0-2.95-.81,5,5,0,0,0-2.9,1C537.91,132.74,537.7,133.24,537.87,133.48Z" style="fill:#263238"></path><path d="M583.49,142.44a2.59,2.59,0,0,1-.74,3,1.79,1.79,0,0,1-2.55-.7c-.67.91-2.23,0-2-1.2-.84.47-1.94-.66-1.67-1.72-1,.38-1.56-1.19-2.08-2.25a16.48,16.48,0,0,0-1-1.6,10.89,10.89,0,0,1-1.61-5.86c-1.28-1.44-1.6-3.67-1.86-5.74l-.48-3.86-.73-.9a2.09,2.09,0,0,1-1.39,2,4.43,4.43,0,0,1-2.34,0l-2.31-.44-1.44.43a5.87,5.87,0,0,1-.41,3.76,3.62,3.62,0,0,1-1.33,2.11,1.09,1.09,0,0,1-1.53-1.16,1.22,1.22,0,0,1-1.88-.29,4,4,0,0,1-.53-2.38,10.26,10.26,0,0,1,1.83-5.62l-4,3.78a1.87,1.87,0,0,1-1,.61,1.05,1.05,0,0,1-1.12,1.18,2.76,2.76,0,0,1-1.49-1c-1-1-2-2.77-1.16-3.93a.86.86,0,0,1-.39-1.27l-4.55,3.48c.46-.26,1,.44.87,1a2.45,2.45,0,0,1-1,1.36,3.56,3.56,0,0,1,.54,2.16c.81-.74,2,.62,1.79,1.8a2.58,2.58,0,0,1-2.4,1.89,1.8,1.8,0,0,1-2-1.32c-1,.21-2-1.16-1.61-2.29-.72.49-1.37-.81-1.41-1.79a14.12,14.12,0,0,1,.77-5.3c0,.25-.25.46-.43.33a.39.39,0,0,1,.07-.61l-2.55,6.28a14.76,14.76,0,0,0-1.39,5.22c0,.75-.09,1.77-.72,1.84a1,1,0,0,1-.49-.12,9.4,9.4,0,0,1-4.13-4.77,6.89,6.89,0,0,1-.64-2.2c-.15-1.6.52-3.15.63-4.76a13.57,13.57,0,0,1,.13-2.12,6.45,6.45,0,0,1,1.63-2.78c2.45-2.85,5-5.8,8.32-7,2-.71,4.15-.69,6.17-1.38a34.6,34.6,0,0,0,3.61-1.68c5-2.34,10.45-2.65,15.78-2.22a25.43,25.43,0,0,1,8.75,2,30.57,30.57,0,0,1,8.23,6.29,46.61,46.61,0,0,1,9.68,13,22.85,22.85,0,0,1,2.34,12.82c-.64,4.4-3.35,8.53-7,9.44l-1.45-1.65" style="fill:#263238"></path><path d="M580.13,145.42c.21-.1,8.64-2.78,8.57,5.89s-8.77,6.8-8.78,6.56S580.13,145.42,580.13,145.42Z" style="fill:#f2b797"></path><path d="M582.6,154.6s.15.11.4.23a1.48,1.48,0,0,0,1.13,0c.92-.32,1.7-1.77,1.76-3.33a4.89,4.89,0,0,0-.41-2.17,1.72,1.72,0,0,0-1.12-1.17.77.77,0,0,0-.9.41c-.11.24-.06.41-.11.43s-.18-.15-.11-.51a1,1,0,0,1,.35-.54,1.1,1.1,0,0,1,.83-.21,2.11,2.11,0,0,1,1.57,1.36,5.12,5.12,0,0,1,.5,2.42c-.07,1.74-1,3.37-2.23,3.72a1.58,1.58,0,0,1-1.38-.24C582.61,154.81,582.57,154.62,582.6,154.6Z" style="fill:#dd8f6c"></path><path d="M519.72,122.22a1.49,1.49,0,0,1,.51-1.06,1.85,1.85,0,0,1,1.29-.47,5.67,5.67,0,0,1,1.85.44l.22.08,0-.23a1.69,1.69,0,0,1,1.36-1.64,5,5,0,0,1,2.76.44l1.21.45-1-.77a1.38,1.38,0,0,1,.11-2,3.1,3.1,0,0,1,2.42-.57h.12l.76.07-.63-.43a1.47,1.47,0,0,1,.16-2.34,2.22,2.22,0,0,1,2.49.24l.8.63-.53-.87a3.33,3.33,0,0,1,0-3.41,3.13,3.13,0,0,1,2.3-1.47,3.45,3.45,0,0,1,1.83.24,6.73,6.73,0,0,0,.61.29.84.84,0,0,0-.13-.12,2.46,2.46,0,0,0-.43-.28,3.51,3.51,0,0,0-1.91-.35,3.36,3.36,0,0,0-2.53,1.53,3.66,3.66,0,0,0-.06,3.76l.27-.24a2.6,2.6,0,0,0-2.93-.28,1.93,1.93,0,0,0-.84,1.42,1.65,1.65,0,0,0,.67,1.57l.13-.35-.13,0a3.5,3.5,0,0,0-2.72.69,2,2,0,0,0-.59,1.28,1.46,1.46,0,0,0,.53,1.28l.17-.32a5,5,0,0,0-3-.42,2,2,0,0,0-1.56,2l.18-.15a5.5,5.5,0,0,0-2-.39,2,2,0,0,0-1.39.57,1.32,1.32,0,0,0-.43.85A.57.57,0,0,0,519.72,122.22Z" style="fill:#455a64"></path><path d="M530.66,102.34s.16.12.51.19a6.6,6.6,0,0,0,1.52.08,4.55,4.55,0,0,1,2.18.32,1.4,1.4,0,0,1,.77.95,1,1,0,0,1-.4,1.15l.27.19c.08-.5.7-.82,1.26-1.15a6.4,6.4,0,0,1,1.82-.79,2.34,2.34,0,0,1,1.86.28,1.57,1.57,0,0,1,.81,1.45l-.07.48.37-.32a4.36,4.36,0,0,1,2.55-1.06,5,5,0,0,1,2.18.32A6.21,6.21,0,0,1,548,105.5a1.64,1.64,0,0,0-.33-.43,4.24,4.24,0,0,0-1.26-.85,4.94,4.94,0,0,0-2.29-.41,4.55,4.55,0,0,0-2.77,1.08l.3.16a1.93,1.93,0,0,0-1-1.81,2.73,2.73,0,0,0-2.15-.34,6.65,6.65,0,0,0-1.94.83,8.76,8.76,0,0,0-.85.55,1.47,1.47,0,0,0-.58.88l0,.37.32-.18a1.35,1.35,0,0,0,.56-1.55,1.72,1.72,0,0,0-1-1.14,4.57,4.57,0,0,0-2.34-.28,8.63,8.63,0,0,1-1.49,0C530.85,102.38,530.67,102.32,530.66,102.34Z" style="fill:#455a64"></path><path d="M550,94.84a3.76,3.76,0,0,1,1,.14,2.43,2.43,0,0,1,1,.62,2.17,2.17,0,0,1,.63,1.31v.22l.2-.07a1.28,1.28,0,0,1,1.43.8,3.9,3.9,0,0,1,.08,2.16l-.12.76.48-.63.07-.09a1.64,1.64,0,0,1,1.34-.56,1.86,1.86,0,0,1,1.28.55,3,3,0,0,1,.79,2.31,5.43,5.43,0,0,1-.44,1.69,2.92,2.92,0,0,0-.24.61s.17-.17.38-.54a4.76,4.76,0,0,0,.57-1.73,3.17,3.17,0,0,0-.8-2.59,2.18,2.18,0,0,0-3.18,0l-.1.13.36.13a4.16,4.16,0,0,0-.13-2.37,1.61,1.61,0,0,0-1.87-1l.22.15a2.38,2.38,0,0,0-.77-1.48,2.47,2.47,0,0,0-1.11-.61,2,2,0,0,0-.81,0C550.12,94.79,550,94.82,550,94.84Z" style="fill:#455a64"></path><path d="M600.85,133.63s.08-.08.2-.25a8.56,8.56,0,0,0,.46-.78,3,3,0,0,0,.31-1.44,2.18,2.18,0,0,0-.3-.9,1.48,1.48,0,0,0-.86-.65l.08.21a1.82,1.82,0,0,0-2-2.8l.18.27a1.46,1.46,0,0,0-.06-1.74,2.18,2.18,0,0,0-1.67-.78,6.29,6.29,0,0,1-.87,0,.74.74,0,0,1-.54-.47,3.31,3.31,0,0,0-.51-.84,1.63,1.63,0,0,0-.92-.51,9.24,9.24,0,0,0-2.09,0,2.27,2.27,0,0,1-1.69-.49c-.19-.2-.33-.48-.54-.75a2,2,0,0,0-.79-.61,2,2,0,0,0-1.83.1l.23.24a1.56,1.56,0,0,0-.21-1.8,2.23,2.23,0,0,0-1.47-.73,7.19,7.19,0,0,0-2.56.32,8.58,8.58,0,0,0-1.53.62,1.58,1.58,0,0,0-.5.31,17.42,17.42,0,0,1,2.08-.73,7,7,0,0,1,2.47-.24,1.92,1.92,0,0,1,1.26.65,1.21,1.21,0,0,1,.17,1.41l-.41.62.64-.38a1.76,1.76,0,0,1,1.52-.06,1.58,1.58,0,0,1,.64.51,7.36,7.36,0,0,0,.56.78,2,2,0,0,0,.93.52,5.14,5.14,0,0,0,1,.1,9.49,9.49,0,0,1,2,0,1.31,1.31,0,0,1,.72.39,3.05,3.05,0,0,1,.45.76,1.13,1.13,0,0,0,.82.67,5.75,5.75,0,0,0,.93,0,1.84,1.84,0,0,1,1.39.62,1.12,1.12,0,0,1,.07,1.31l-.3.4.49-.13a1.52,1.52,0,0,1,1.63,2.31l-.1.17.19,0a1.51,1.51,0,0,1,1,1.32,2.76,2.76,0,0,1-.23,1.34C601.06,133.24,600.82,133.61,600.85,133.63Z" style="fill:#455a64"></path><path d="M600.19,157.46s.14,0,.38-.12a2.69,2.69,0,0,0,.89-.7,2.77,2.77,0,0,0,.66-1.66,3,3,0,0,0-.8-2.19l0,.21a5.37,5.37,0,0,0,1-1.95,2.15,2.15,0,0,0-.09-1.25,1.63,1.63,0,0,0-.92-1l0,.35a2.28,2.28,0,0,0,1-2.05,2.47,2.47,0,0,0-.4-1.27,2.11,2.11,0,0,0-1-.81c-.37-.17-.54-.34-.55-.72a3.07,3.07,0,0,0-.27-1.15,3.88,3.88,0,0,0-1.46-1.56c-.52-.38-1-.74-1.47-1.05a6.57,6.57,0,0,0-2.39-1.13,3.59,3.59,0,0,0-.72-.06l-.25,0s.35,0,.93.17a7.08,7.08,0,0,1,2.27,1.2l1.44,1.09a3.62,3.62,0,0,1,1.32,1.45,2.67,2.67,0,0,1,.22,1,1.13,1.13,0,0,0,.22.65,1.61,1.61,0,0,0,.55.38,2,2,0,0,1,.4,3.46l-.34.21.38.14A1.56,1.56,0,0,1,602,151a5.28,5.28,0,0,1-.93,1.83l-.08.12.09.09a2.67,2.67,0,0,1,.24,3.5A3.64,3.64,0,0,1,600.19,157.46Z" style="fill:#455a64"></path><path d="M587.94,147.28a1.54,1.54,0,0,0,.53-.11,5,5,0,0,0,1.38-.72,5.17,5.17,0,0,0,1.56-1.83,2.09,2.09,0,0,0,.26-1.5,1,1,0,0,0-.6-.67.82.82,0,0,0-1,.16l.29.18a2.57,2.57,0,0,0,.27-1.51,1.22,1.22,0,0,0-.47-.74,1.08,1.08,0,0,0-.9-.13,1.66,1.66,0,0,1-.67.1c-.14,0-.17-.23-.16-.52a2.36,2.36,0,0,0-.66-1.66,2.59,2.59,0,0,0-2.66-.76l.25.23a2.23,2.23,0,0,0-.41-2.16,1.36,1.36,0,0,0-1.06-.33,1,1,0,0,0-.87.64l.33.07a5.27,5.27,0,0,0-.67-2.86,5.57,5.57,0,0,0-1.46-1.72,4.43,4.43,0,0,0-1.27-.71,1.8,1.8,0,0,0-.49-.13,7.93,7.93,0,0,1,1.63,1,5.29,5.29,0,0,1,1.34,1.69,5.08,5.08,0,0,1,.58,2.7l-.1,1.42.43-1.35c.15-.47,1-.54,1.36-.15a1.9,1.9,0,0,1,.29,1.8l-.1.34.35-.11a2.19,2.19,0,0,1,2.24.66,2,2,0,0,1,.56,1.38,1.6,1.6,0,0,0,0,.47.6.6,0,0,0,.37.42,1.69,1.69,0,0,0,.9-.08.62.62,0,0,1,.59.06.81.81,0,0,1,.33.51,2.33,2.33,0,0,1-.23,1.3l-.37,1,.66-.77c.26-.31.9,0,1,.37a1.81,1.81,0,0,1-.22,1.28,5.17,5.17,0,0,1-1.43,1.8A7.94,7.94,0,0,1,587.94,147.28Z" style="fill:#455a64"></path><path d="M568.31,123.13a3,3,0,0,0,1.16-.46,3.15,3.15,0,0,0,1-.92,2.13,2.13,0,0,0,.39-1.7,2.9,2.9,0,0,0-.16-.41l-.09.27a1.87,1.87,0,0,0,1-1.29,1.73,1.73,0,0,0-.25-1.27c-.43-.63-.94-.69-.93-.65s.39.21.7.78a1.52,1.52,0,0,1,.13,1.07,1.55,1.55,0,0,1-.79,1l-.18.09.1.19a1.25,1.25,0,0,1,.11.31,1.89,1.89,0,0,1-.29,1.4,3.42,3.42,0,0,1-.91.88A6.66,6.66,0,0,0,568.31,123.13Z" style="fill:#455a64"></path><path d="M559.2,118.92a2.44,2.44,0,0,1-.27-1.44,1.59,1.59,0,0,1,.92-1.22,1.74,1.74,0,0,1,1.87.29l.25.23.06-.33a3.12,3.12,0,0,1,.45-1.16,1.46,1.46,0,0,1,1-.7c.63-.08,1.33.5,1.16,1l.37.08a3,3,0,0,1,1.07-2,2.9,2.9,0,0,1,1.68-.65,4.47,4.47,0,0,1,1.64.3s-.11-.13-.38-.26a2.91,2.91,0,0,0-1.27-.28,3.13,3.13,0,0,0-1.87.63,3.29,3.29,0,0,0-1.25,2.17l.37.07a1.11,1.11,0,0,0-.39-1.14,1.56,1.56,0,0,0-1.17-.37,1.84,1.84,0,0,0-1.26.88,3.32,3.32,0,0,0-.48,1.3l.31-.1a2.08,2.08,0,0,0-2.26-.31,1.84,1.84,0,0,0-1,1.48,1.89,1.89,0,0,0,.23,1.15C559.07,118.84,559.19,118.93,559.2,118.92Z" style="fill:#455a64"></path><path d="M529.07,128a23.31,23.31,0,0,1,9.21-17.69,31.09,31.09,0,0,1,19.31-6.09,46.73,46.73,0,0,1,19.81,5.1c4.07,2,8,4.53,10.63,8.25s3.62,8.32,4.4,12.81a30.07,30.07,0,0,1,.56,9.21,11.59,11.59,0,0,1-4.3,7.94c2,.58,4-1.14,5.25-2.85,4.82-6.61,4.15-15.55,1.69-23.34-2-6.3-6.45-11.06-10-13.89-5.18-4.11-12.11-5.94-18.68-6.63-7.31-.76-14.41-1.18-21,2S528.09,114.36,529.07,128" style="fill:#455a64"></path><path d="M534.82,133s-.12.1-.37.19a3.18,3.18,0,0,1-1.11.15,4.21,4.21,0,0,1-3.14-1.84,6.67,6.67,0,0,1-1.13-3.48,5,5,0,0,1,.07-1.52,14.77,14.77,0,0,1,.15,1.5,7,7,0,0,0,1.17,3.32,4.14,4.14,0,0,0,2.89,1.8A5.61,5.61,0,0,0,534.82,133Z" style="fill:#455a64"></path><path d="M559,106.28s-.16-.2-.5-.51a4,4,0,0,0-1.73-.89,3.55,3.55,0,0,0-2.84.51,3.75,3.75,0,0,0-1.63,3.23v.3l-.25-.18a3.28,3.28,0,0,0-2.41-.55,3,3,0,0,0-2.17,1.47,3.24,3.24,0,0,0-.34,2.6l.09.33-.3-.14a2,2,0,0,0-2.44.67,2.06,2.06,0,0,0,0,2.33l.27.37-.42-.17a3.38,3.38,0,0,0-2.61.12,3.94,3.94,0,0,0-1.61,1.3,3.81,3.81,0,0,0-.65,1.69,1.66,1.66,0,0,1,0-.49,3.33,3.33,0,0,1,.51-1.29,4.14,4.14,0,0,1,1.64-1.4,3.54,3.54,0,0,1,2.79-.17l-.15.2a2.27,2.27,0,0,1,2.74-3.44l-.21.19a3.61,3.61,0,0,1,.37-2.86,3.32,3.32,0,0,1,2.39-1.61,3.56,3.56,0,0,1,2.64.62l-.23.12a4,4,0,0,1,1.78-3.44,3.71,3.71,0,0,1,3-.48,3.91,3.91,0,0,1,1.75,1A2,2,0,0,1,559,106.28Z" style="fill:#455a64"></path></g></svg>